<?xml version="1.0" standalone="no"?>
<!DOCTYPE svg PUBLIC "-//W3C//DTD SVG 20010904//EN"
 "http://www.w3.org/TR/2001/REC-SVG-20010904/DTD/svg10.dtd">
<svg version="1.0" xmlns="http://www.w3.org/2000/svg"
 width="16.000000pt" height="16.000000pt" viewBox="0 0 16.000000 16.000000"
 preserveAspectRatio="xMidYMid meet">
<metadata>
Created by potrace 1.11, written by Peter Selinger 2001-2013
</metadata>
<g transform="translate(0.000000,16.000000) scale(0.003556,-0.003556)"
fill="#000000" stroke="none">
<path d="M0 2250 l0 -2250 2250 0 2250 0 0 2250 0 2250 -2250 0 -2250 0 0
-2250z m2233 1894 c3 -4 -12 -42 -34 -85 l-39 -79 -103 0 c-57 0 -106 3 -109
6 -7 7 68 146 85 156 14 9 191 11 200 2z m1891 -44 c56 -68 39 -184 -39 -263
-47 -46 -59 -32 -25 30 11 21 20 55 20 77 0 31 -7 44 -37 72 l-37 34 39 40
c21 22 42 40 46 40 4 0 19 -14 33 -30z m-2994 -171 c0 -5 -17 -41 -37 -80
l-38 -69 -67 0 c-41 0 -71 -5 -78 -12 -6 -7 -50 -85 -98 -173 l-87 -160 -79
-3 c-85 -3 -116 11 -116 51 0 11 29 77 65 148 36 70 65 133 65 138 0 7 -35 11
-95 11 -52 0 -95 2 -95 5 0 2 21 38 46 80 l45 75 285 0 c193 0 284 -3 284 -11z
m531 1 c10 -6 19 -16 19 -22 0 -7 -29 -65 -65 -129 -36 -65 -65 -124 -65 -132
0 -8 22 -59 49 -114 l49 -100 -101 -6 c-60 -4 -105 -3 -111 3 -5 5 -29 55 -52
111 l-43 101 24 49 c14 27 25 51 25 54 0 3 -22 5 -49 5 l-49 0 -90 -162 -91
-163 -95 -3 c-68 -2 -96 1 -96 9 0 22 222 414 253 448 53 56 72 60 280 61 112
0 196 -4 208 -10z m469 0 c0 -6 -21 -50 -46 -98 -142 -266 -166 -313 -162
-317 2 -3 125 92 273 210 l269 215 102 0 c80 0 106 -3 118 -16 21 -21 20 -72
-3 -110 -10 -16 -47 -84 -82 -150 -35 -65 -77 -144 -94 -174 l-31 -55 -97 -3
c-58 -2 -97 1 -97 7 0 5 30 65 66 131 36 67 64 124 61 126 -2 2 -76 -59 -165
-135 l-161 -139 -208 5 c-114 3 -210 7 -212 9 -2 1 24 54 57 116 32 62 83 160
112 218 29 58 62 120 72 138 l20 32 104 0 c66 0 104 -4 104 -10z m1220 3 c0
-3 -19 -44 -42 -90 l-43 -83 -72 0 c-45 0 -75 -4 -80 -12 -4 -7 -44 -82 -88
-168 l-80 -155 -56 -3 c-131 -7 -141 32 -49 205 33 62 60 117 60 123 0 6 -38
10 -95 10 -52 0 -95 2 -95 5 0 3 19 43 42 90 l42 85 278 0 c153 0 278 -3 278
-7z m260 -4 c0 -6 -20 -48 -45 -93 -25 -46 -45 -86 -45 -90 0 -3 30 -6 68 -6
l67 0 54 100 54 100 99 0 c54 0 98 -2 98 -4 0 -7 -261 -490 -272 -503 -11 -14
-198 -19 -198 -5 0 4 20 44 44 90 31 59 40 85 31 88 -7 3 -39 4 -71 2 l-59 -3
-42 -80 c-22 -44 -46 -86 -52 -92 -16 -18 -191 -18 -191 0 0 11 221 430 256
485 13 20 22 22 109 22 62 0 95 -4 95 -11z m-692 -556 c-2 -5 -19 -38 -37 -75
l-34 -68 -139 0 c-104 0 -146 -4 -168 -15 -26 -13 -50 -42 -50 -59 0 -3 59 -6
130 -6 117 0 132 -2 150 -20 11 -11 20 -30 20 -42 0 -35 -67 -144 -115 -186
-69 -60 -125 -72 -348 -72 -102 0 -188 3 -191 8 -2 4 10 34 27 67 l32 60 177
5 c170 5 177 6 202 29 14 14 26 28 26 31 0 4 -58 9 -128 12 -71 3 -138 11
-150 17 -34 18 -28 65 19 149 48 86 105 147 151 161 39 11 431 14 426 4z
m-1282 -11 c30 -20 24 -51 -29 -154 -169 -322 -165 -316 -242 -356 -44 -23
-65 -26 -178 -30 -71 -2 -132 0 -137 4 -5 5 9 39 33 79 l42 70 74 5 75 5 26
45 c14 25 40 71 58 103 l32 57 -73 0 -73 0 -38 -65 -38 -65 -99 0 c-54 0 -99
4 -99 9 0 12 108 200 129 225 9 10 34 32 55 47 l39 29 216 0 c119 0 221 -4
227 -8z m261 -24 c17 -50 85 -212 94 -222 4 -4 36 51 71 123 l63 131 108 0
108 0 -107 -207 c-149 -290 -215 -417 -223 -425 -4 -4 -20 20 -36 55 -16 34
-55 115 -86 180 l-56 118 -70 -128 -71 -128 -63 1 c-52 1 -66 5 -81 24 -32 40
-36 31 129 348 l85 162 62 0 c62 0 63 0 73 -32z m-1117 14 c0 -5 -43 -87 -95
-183 -52 -96 -95 -177 -95 -181 0 -5 94 -8 210 -8 116 0 210 -2 210 -5 0 -4
-6 -18 -14 -33 -21 -40 -65 -78 -116 -101 -41 -19 -65 -21 -271 -21 -351 0
-347 -31 -65 482 l31 58 103 0 c56 0 102 -4 102 -8z m17 -2508 c34 -21 45 -82
41 -230 -3 -116 -6 -136 -24 -161 -28 -37 -73 -49 -124 -34 -62 19 -70 43 -70
225 0 151 1 155 25 185 36 42 99 49 152 15z m624 5 c21 -11 43 -64 35 -84 -10
-27 -43 -18 -49 14 -13 61 -88 63 -100 3 -12 -60 9 -96 79 -137 53 -31 74 -68
74 -133 0 -59 -28 -91 -87 -98 -58 -7 -103 21 -121 74 -16 48 -16 47 15 56 18
6 22 2 28 -26 14 -63 58 -87 97 -51 39 35 18 106 -45 145 -68 43 -89 71 -95
126 -6 64 16 108 61 121 33 10 79 5 108 -10z m1010 0 c21 -11 43 -64 35 -84
-10 -27 -43 -18 -49 14 -13 61 -88 63 -100 3 -12 -60 9 -96 79 -137 53 -31 74
-68 74 -133 0 -59 -28 -91 -87 -98 -58 -7 -103 21 -121 74 -16 48 -16 47 15
56 18 6 22 2 28 -26 14 -63 58 -87 97 -51 39 35 18 106 -45 145 -68 43 -89 71
-95 126 -6 64 16 108 61 121 33 10 79 5 108 -10z m-1981 -189 l0 -200 55 0
c48 0 55 -2 55 -20 0 -18 -7 -20 -80 -20 l-80 0 0 220 0 220 25 0 25 0 0 -200z
m591 40 l58 -155 3 155 3 155 25 0 25 0 3 -218 2 -218 -31 3 c-31 3 -32 6 -88
158 l-56 155 -3 -157 -3 -158 -24 0 -25 0 0 221 0 220 27 -3 c25 -3 31 -14 84
-158z m679 -40 l0 -200 55 0 c48 0 55 -2 55 -20 0 -18 -7 -20 -80 -20 l-80 0
0 220 0 220 25 0 25 0 0 -200z m350 180 c0 -18 -7 -20 -60 -20 l-60 0 0 -80 0
-80 55 0 c48 0 55 -2 55 -20 0 -18 -7 -20 -55 -20 l-55 0 0 -80 0 -80 65 0
c58 0 65 -2 65 -20 0 -19 -7 -20 -90 -20 l-90 0 0 220 0 220 85 0 c78 0 85 -2
85 -20z m620 13 c0 -7 72 -352 85 -410 5 -20 1 -23 -23 -23 -27 0 -30 3 -38
53 l-9 52 -49 3 c-56 4 -61 -1 -71 -65 -6 -39 -9 -43 -35 -43 -19 0 -28 4 -25
13 2 6 23 102 46 212 22 110 43 203 46 208 2 4 20 7 39 7 19 0 34 -3 34 -7z
m210 -191 c4 -157 8 -195 20 -202 21 -14 43 -12 66 4 17 13 19 30 22 205 l4
191 24 0 24 0 0 -180 c0 -216 -7 -242 -69 -261 -52 -15 -97 -3 -125 34 -19 26
-21 44 -24 218 l-3 190 28 -3 28 -3 5 -193z m371 38 l58 -155 3 155 3 155 25
0 25 0 3 -218 2 -218 -31 3 c-31 3 -32 6 -88 158 l-56 155 -3 -157 -3 -158
-24 0 -25 0 0 221 0 220 27 -3 c25 -3 31 -14 84 -158z m269 -60 l0 -220 -25 0
-25 0 0 220 0 220 25 0 25 0 0 -220z m280 200 c0 -18 -7 -20 -60 -20 l-60 0 0
-80 0 -80 55 0 c48 0 55 -2 55 -20 0 -18 -7 -20 -55 -20 l-55 0 0 -80 0 -80
65 0 c58 0 65 -2 65 -20 0 -19 -7 -20 -90 -20 l-90 0 0 220 0 220 85 0 c78 0
85 -2 85 -20z m220 7 c45 -16 60 -47 60 -129 0 -56 -4 -71 -24 -94 l-23 -28
28 -85 c16 -47 29 -86 29 -88 0 -2 -13 -3 -28 -3 -26 0 -30 5 -56 85 -22 68
-31 85 -47 85 -17 0 -19 -8 -19 -85 0 -84 0 -85 -25 -85 l-25 0 0 220 0 220
48 -1 c26 0 63 -5 82 -12z"/>
<path d="M694 816 c-17 -13 -19 -30 -22 -166 -4 -166 5 -200 52 -200 49 0 56
23 56 192 0 137 -2 157 -18 171 -23 21 -42 21 -68 3z"/>
<path d="M2647 770 c-7 -19 -37 -168 -37 -186 0 -10 12 -14 40 -14 35 0 40 3
40 23 -1 42 -37 192 -43 177z"/>
<path d="M3960 725 l0 -95 29 0 c41 0 61 32 61 95 0 63 -20 95 -61 95 l-29 0
0 -95z"/>
</g>
</svg>
