<?xml version="1.0" standalone="no"?>
<!DOCTYPE svg PUBLIC "-//W3C//DTD SVG 20010904//EN"
 "http://www.w3.org/TR/2001/REC-SVG-20010904/DTD/svg10.dtd">
<svg version="1.0" xmlns="http://www.w3.org/2000/svg"
 width="400.000000pt" height="400.000000pt" viewBox="0 0 400.000000 400.000000"
 preserveAspectRatio="xMidYMid meet">
<metadata>
Created by potrace 1.11, written by Peter Selinger 2001-2013
</metadata>
<g transform="translate(0.000000,400.000000) scale(0.100000,-0.100000)"
fill="#000000" stroke="none">
<path d="M0 2000 l0 -2000 2000 0 2000 0 0 2000 0 2000 -2000 0 -2000 0 0
-2000z m1990 1890 c0 -5 -17 -43 -37 -85 l-37 -75 -113 0 c-62 0 -113 3 -113
6 0 3 19 42 41 85 l41 79 109 0 c65 0 109 -4 109 -10z m1897 -49 c43 -64 22
-184 -44 -253 -26 -28 -63 -38 -63 -18 0 6 9 23 21 39 11 15 23 47 26 70 5 38
3 44 -31 75 -20 19 -36 40 -36 47 0 23 63 80 84 77 11 -2 31 -18 43 -37z
m-2997 -154 c0 -7 -19 -46 -42 -87 l-43 -75 -73 -5 -73 -5 -92 -170 -93 -170
-73 -3 c-144 -6 -155 34 -56 220 36 67 65 123 65 125 0 2 -42 3 -94 3 -52 0
-97 3 -100 8 -4 6 20 50 81 150 13 22 13 22 303 22 226 0 290 -3 290 -13z
m514 3 c40 -15 33 -45 -39 -174 l-66 -117 51 -106 c28 -58 52 -104 54 -102 2
2 54 103 116 224 62 121 121 235 132 253 l20 32 103 0 c58 0 107 -4 110 -10 3
-5 -19 -58 -51 -117 -31 -60 -79 -150 -106 -201 -27 -52 -48 -95 -46 -96 2 -2
122 93 268 210 l265 213 98 0 c92 1 99 -1 124 -25 20 -20 24 -32 19 -55 -5
-26 -204 -405 -228 -436 -13 -16 -208 -18 -208 -3 0 6 29 64 65 131 36 66 65
122 65 125 0 4 -260 -217 -298 -254 -11 -9 -87 -12 -344 -10 l-330 3 -44 100
c-24 55 -44 108 -44 118 0 10 12 39 26 63 l27 45 -49 -3 -49 -3 -90 -162 -90
-163 -102 0 c-63 0 -103 4 -103 10 0 6 11 28 25 50 14 22 25 41 25 44 0 2 41
77 91 167 143 258 145 259 401 259 97 0 188 -4 202 -10z m1706 4 c0 -4 -21
-49 -46 -100 l-47 -94 -76 0 -76 0 -83 -165 -82 -165 -72 0 c-80 0 -108 15
-108 58 0 14 29 81 64 149 l65 123 -100 0 c-54 0 -99 2 -99 5 0 3 21 48 47
100 l48 95 282 0 c156 0 283 -3 283 -6z m260 -8 c0 -8 -22 -53 -50 -101 -27
-48 -50 -88 -50 -91 0 -2 29 -4 64 -4 l65 0 56 105 57 105 98 0 c54 0 101 -3
104 -8 4 -6 -79 -164 -239 -457 l-33 -60 -93 -3 c-51 -1 -98 -1 -105 2 -9 3 1
30 32 87 24 45 44 84 44 86 0 2 -30 3 -67 1 l-66 -3 -46 -87 -46 -88 -102 0
c-109 0 -117 4 -90 45 8 11 38 65 67 120 72 136 169 315 186 343 13 20 22 22
114 22 80 0 100 -3 100 -14z m-700 -563 c0 -10 -16 -45 -34 -78 l-34 -60 -143
-5 c-146 -5 -168 -11 -203 -49 l-19 -21 125 0 c112 0 128 -2 152 -21 37 -29
34 -71 -10 -145 -49 -82 -70 -102 -139 -135 l-60 -29 -212 0 c-164 0 -213 3
-213 13 0 6 15 39 33 72 l32 60 182 5 c167 5 183 7 197 25 9 11 16 23 16 27 0
3 -58 8 -129 10 -110 3 -132 6 -150 22 -12 11 -21 30 -21 43 0 34 81 170 128
216 61 60 91 66 310 67 176 0 192 -1 192 -17z m-1282 -9 c13 -9 22 -26 22 -42
0 -15 -39 -99 -86 -187 -125 -235 -128 -239 -186 -276 l-52 -34 -148 -3 c-121
-3 -148 -1 -148 10 0 8 19 45 43 83 l42 70 75 3 75 3 50 92 c28 50 52 95 53
99 2 5 -26 8 -62 8 l-65 0 -42 -70 -41 -70 -104 0 c-65 0 -104 4 -104 10 0 16
111 207 142 245 15 18 47 42 70 54 39 19 60 21 243 21 165 0 204 -3 223 -16z
m260 -21 c10 -21 34 -76 52 -123 19 -47 37 -88 40 -92 3 -4 35 50 70 120 l65
127 108 3 c76 2 107 -1 107 -9 0 -10 -69 -147 -273 -541 -28 -54 -54 -98 -59
-98 -7 0 -88 160 -158 313 l-17 38 -68 -125 -68 -126 -61 0 c-82 0 -106 17
-106 74 0 23 4 46 9 52 4 5 54 99 111 209 56 110 104 203 107 208 2 4 31 7 63
7 59 0 60 0 78 -37z m-1108 17 c0 -6 -45 -92 -100 -193 l-100 -182 215 -3
c118 -1 215 -6 215 -10 0 -20 -55 -85 -98 -114 l-47 -33 -252 -3 c-247 -3
-252 -3 -274 19 -31 31 -21 77 39 185 28 50 74 136 103 190 87 165 73 154 195
154 63 0 104 -4 104 -10z m3228 -252 l-3 -83 -100 -35 -100 -35 -3 -152 -3
-152 103 -33 103 -33 3 -82 c2 -46 0 -83 -4 -83 -5 0 -683 241 -746 265 -16 6
-18 22 -18 120 l0 113 43 16 c157 59 704 254 715 255 10 1 12 -19 10 -81z
m-2818 -648 l0 -120 -335 0 -335 0 0 45 0 45 300 0 300 0 0 75 0 75 35 0 35 0
0 -120z m2818 -302 l-3 -83 -338 -5 -338 -5 78 -27 c43 -15 158 -55 256 -89
l178 -61 -3 -95 -3 -95 -253 -88 c-139 -48 -256 -91 -259 -94 -4 -3 150 -6
340 -6 l347 0 0 -80 0 -80 -385 0 -385 0 0 129 0 129 58 20 c31 11 144 49 249
85 106 36 199 70 207 74 10 6 -72 38 -247 99 l-262 91 -3 131 -3 132 386 0
386 0 -3 -82z m-2871 29 c43 -23 63 -64 63 -127 0 -69 -23 -114 -68 -137 -33
-16 -70 -18 -324 -21 l-288 -3 0 45 0 46 248 0 c261 0 313 6 345 39 17 17 19
24 9 45 -18 40 -65 46 -344 46 l-258 0 0 46 0 45 293 -3 c257 -3 296 -5 324
-21z m1323 -276 c203 -70 359 -229 427 -436 33 -101 37 -262 9 -365 -62 -228
-248 -414 -476 -476 -88 -24 -252 -24 -340 0 -175 48 -337 176 -417 331 -58
112 -76 189 -77 315 -1 153 40 276 133 400 83 112 231 210 366 244 91 23 290
16 375 -13z m-1786 -122 c10 -51 8 -56 -27 -63 -51 -10 -71 -28 -63 -59 10
-42 54 -49 292 -45 192 3 214 5 233 22 42 38 16 77 -62 92 -33 6 -38 10 -33
28 3 11 6 30 6 40 0 17 6 18 52 13 94 -12 131 -56 125 -154 -2 -49 -8 -68 -26
-87 -42 -45 -79 -51 -316 -51 -243 0 -277 6 -320 56 -21 25 -25 41 -25 90 0
34 7 73 15 89 9 17 17 30 18 30 1 0 20 7 42 15 64 23 82 20 89 -16z m516 -449
l0 -120 -335 0 -335 0 0 45 0 45 300 0 300 0 0 75 0 75 35 0 35 0 0 -120z
m2723 -407 l98 -35 -3 -106 -3 -106 -365 -133 c-201 -73 -373 -135 -382 -139
-16 -5 -18 3 -18 78 l0 84 308 104 c169 57 311 106 315 110 5 4 -132 55 -305
112 l-313 105 -3 85 -3 86 288 -105 c158 -57 332 -120 386 -140z m-2723 153
c0 -49 -1 -50 -85 -62 -91 -12 -96 -17 -93 -76 l3 -53 88 -14 87 -14 0 -49 c0
-42 -3 -49 -17 -45 -10 3 -161 31 -336 63 l-318 58 3 60 3 60 305 57 c168 31
317 57 333 58 26 1 27 -1 27 -43z m-516 -397 c10 -51 8 -56 -27 -63 -51 -10
-71 -28 -63 -59 10 -42 54 -49 292 -45 192 3 214 5 233 22 42 38 16 77 -62 92
-33 6 -38 10 -33 28 3 11 6 30 6 40 0 17 6 18 52 13 94 -12 131 -56 125 -154
-2 -49 -8 -68 -26 -87 -42 -45 -79 -51 -316 -51 -243 0 -277 6 -320 56 -21 25
-25 41 -25 90 0 34 7 73 15 89 9 17 17 30 18 30 1 0 20 7 42 15 64 23 82 20
89 -16z"/>
<path d="M3297 2620 c-98 -32 -180 -60 -183 -63 -6 -5 352 -127 374 -127 9 0
12 32 12 125 0 94 -3 125 -12 124 -7 0 -93 -27 -191 -59z"/>
<path d="M1990 1585 c0 -43 1 -45 30 -45 29 0 30 2 30 45 0 43 -1 45 -30 45
-29 0 -30 -2 -30 -45z"/>
<path d="M1587 1452 c-16 -17 -15 -20 16 -50 32 -31 34 -32 50 -14 16 17 15
20 -16 50 -32 31 -34 32 -50 14z"/>
<path d="M2385 1440 c-27 -29 -28 -31 -12 -47 16 -16 19 -16 49 14 27 27 29
34 18 47 -17 22 -22 20 -55 -14z"/>
<path d="M1410 1025 c0 -23 3 -25 50 -25 47 0 50 2 50 25 0 23 -3 25 -50 25
-47 0 -50 -2 -50 -25z"/>
<path d="M2530 1025 c0 -23 4 -25 45 -25 41 0 45 2 45 25 0 23 -4 25 -45 25
-41 0 -45 -2 -45 -25z"/>
<path d="M1602 657 c-31 -32 -32 -34 -14 -50 17 -16 20 -15 50 16 31 32 32 34
14 50 -17 16 -20 15 -50 -16z"/>
<path d="M2370 664 c-11 -13 -9 -20 18 -47 30 -30 33 -30 49 -14 16 16 15 18
-12 47 -33 34 -38 36 -55 14z"/>
<path d="M1990 475 c0 -43 1 -45 30 -45 29 0 30 2 30 45 0 43 -1 45 -30 45
-29 0 -30 -2 -30 -45z"/>
<path d="M655 739 c-22 -3 -73 -12 -113 -19 -40 -7 -71 -14 -68 -17 5 -5 207
-43 229 -43 4 0 7 18 7 39 0 22 -3 42 -7 44 -5 2 -26 0 -48 -4z"/>
</g>
</svg>
