<?xml version="1.0" standalone="no"?>
<!DOCTYPE svg PUBLIC "-//W3C//DTD SVG 20010904//EN"
 "http://www.w3.org/TR/2001/REC-SVG-20010904/DTD/svg10.dtd">
<svg version="1.0" xmlns="http://www.w3.org/2000/svg"
 width="500.000000pt" height="500.000000pt" viewBox="0 0 500.000000 500.000000"
 preserveAspectRatio="xMidYMid meet">
<metadata>
Created by potrace 1.11, written by Peter Selinger 2001-2013
</metadata>
<g transform="translate(0.000000,500.000000) scale(0.100000,-0.100000)"
fill="#000000" stroke="none">
<path d="M0 4990 c0 -6 13 -10 29 -10 38 0 41 -6 27 -55 -10 -31 -17 -40 -34
-39 -23 1 -32 -22 -9 -24 29 -2 83 -28 80 -38 -2 -7 6 -10 22 -7 25 5 36 -11
13 -20 -10 -3 -10 -8 -2 -17 8 -8 14 -9 18 -1 4 6 20 11 36 11 36 0 61 10 55
20 -6 9 29 23 60 24 13 1 19 7 17 17 -1 9 4 19 13 22 17 7 31 -11 18 -24 -14
-14 -3 -89 13 -89 8 0 14 -4 14 -10 0 -5 -7 -10 -15 -10 -10 0 -15 -10 -15
-31 0 -27 -3 -30 -23 -25 -33 8 -64 -3 -70 -25 -4 -15 0 -19 21 -19 15 0 79
-5 142 -11 122 -11 190 -13 199 -3 10 10 -20 21 -45 16 -14 -2 -24 0 -24 7 0
6 11 11 25 11 14 0 25 4 25 9 0 15 -30 21 -49 9 -27 -17 -72 26 -70 66 2 17
-1 40 -4 51 -6 18 -2 20 47 22 30 2 70 -4 89 -12 22 -9 37 -11 44 -4 6 6 28 6
62 -2 l52 -11 -6 -45 c-3 -28 -2 -42 5 -38 5 3 10 16 10 29 0 12 6 31 14 41
11 15 17 17 28 7 8 -6 18 -9 21 -5 12 11 19 -27 8 -41 -6 -7 -8 -16 -4 -20 4
-4 1 -11 -7 -16 -10 -6 -11 -12 -2 -22 9 -11 9 -17 -1 -27 -9 -9 -9 -14 3 -21
11 -7 12 -13 2 -35 -7 -14 -12 -37 -12 -50 0 -28 -21 -33 -40 -10 -7 8 -20 15
-29 15 -24 1 -51 25 -51 46 0 13 -3 15 -11 7 -6 -6 -13 -40 -16 -76 l-6 -65
-36 -6 c-20 -3 -64 -6 -99 -6 -46 0 -63 -3 -60 -12 3 -8 25 -13 59 -14 93 -1
139 -14 139 -36 0 -17 -4 -19 -22 -13 -13 4 -40 9 -61 12 -20 3 -40 9 -43 14
-3 5 -14 9 -25 9 -11 0 -17 -4 -14 -10 15 -25 -91 11 -107 36 -10 15 -290 6
-300 -9 -4 -7 -11 -7 -20 1 -11 9 -17 9 -27 -1 -10 -9 -14 -8 -22 6 -19 33
-27 7 -28 -82 l-1 -90 28 -4 27 -4 -27 -2 c-29 -1 -34 -14 -22 -59 6 -21 10
-22 53 -16 25 3 54 14 64 22 16 14 19 14 27 2 8 -13 10 -12 10 2 0 10 -11 19
-29 23 -16 3 -32 12 -35 20 -3 9 0 12 10 8 7 -3 14 0 14 6 0 6 19 11 46 11 25
0 43 4 40 9 -9 14 45 22 84 12 19 -5 28 -10 20 -11 -9 -1 -6 -5 8 -11 13 -5
35 -6 49 -3 16 4 28 2 33 -6 10 -17 31 -3 23 15 -4 11 3 15 25 15 17 0 32 -5
34 -12 5 -14 32 -19 123 -22 39 -1 74 -3 78 -4 17 -4 -15 -42 -36 -43 -17 -1
-15 -3 8 -8 29 -7 29 -7 8 -15 -28 -9 -31 -30 -3 -23 11 3 20 1 20 -4 0 -5
-11 -9 -25 -9 -14 0 -25 -4 -25 -10 0 -5 7 -10 15 -10 16 0 19 -9 7 -27 -5 -8
-50 -11 -154 -10 -135 1 -171 -3 -155 -19 3 -4 34 -7 69 -9 35 -1 80 -3 101
-3 20 -1 37 -7 37 -12 0 -13 -196 -2 -224 12 -12 7 -22 6 -29 -1 -5 -5 -22 -7
-38 -4 -19 3 -28 1 -31 -9 -3 -13 -9 -13 -43 -2 -32 11 -34 13 -10 10 17 -3
38 2 50 11 18 14 13 15 -60 8 -53 -4 -83 -11 -88 -21 -4 -8 -20 -13 -35 -13
-27 1 -27 1 3 8 l30 6 -24 17 c-48 34 -51 22 -51 -188 l1 -194 52 0 c66 0 97
9 97 26 0 8 -6 11 -15 8 -8 -4 -15 -1 -15 6 0 7 -6 10 -12 7 -7 -2 -22 0 -33
4 -13 6 7 8 57 6 61 -2 74 0 66 10 -8 10 -6 13 8 14 11 1 -4 9 -33 18 -76 25
-74 31 8 24 83 -6 97 -13 75 -36 -15 -14 -14 -16 11 -19 14 -2 29 -9 31 -17 3
-8 0 -11 -7 -7 -15 10 -14 -2 2 -18 11 -11 47 -14 105 -7 9 1 6 8 -7 23 -24
25 -20 38 9 31 11 -3 20 0 20 6 0 6 -17 11 -39 11 -22 0 -43 5 -46 11 -5 7 27
9 102 6 71 -3 92 -2 63 4 -37 6 -34 7 20 3 36 -2 75 -4 88 -4 17 0 22 -6 22
-25 0 -14 5 -25 10 -25 6 0 10 -9 10 -20 0 -12 12 -26 30 -35 32 -17 32 -35 0
-35 -10 0 -26 -7 -34 -16 -14 -13 -24 -14 -71 -4 -30 6 -59 9 -64 6 -5 -3 -25
1 -45 9 -35 15 -151 15 -188 0 -10 -4 -18 -3 -18 3 0 7 -44 10 -119 10 -66 0
-125 3 -130 7 -7 4 -11 -7 -11 -29 0 -25 5 -36 14 -36 8 0 17 -4 20 -9 4 -5
-3 -7 -14 -4 -17 4 -20 0 -20 -25 l0 -31 66 4 c70 3 87 10 64 26 -10 6 -5 7
17 3 21 -4 45 -1 68 10 34 17 46 17 183 0 26 -3 42 -1 42 5 0 6 -21 11 -50 11
-30 0 -50 4 -50 11 0 7 11 9 27 6 16 -3 39 1 54 10 23 14 30 13 72 -1 26 -9
71 -16 100 -16 48 -1 50 -2 28 -14 l-23 -13 23 -8 c20 -6 21 -8 6 -12 -20 -5
-23 -23 -4 -23 8 0 7 -4 -3 -10 -8 -6 -48 -9 -88 -8 -55 2 -77 7 -89 20 -17
19 -53 25 -53 9 0 -5 3 -11 7 -14 5 -2 2 -2 -5 0 -8 1 -21 3 -30 3 -15 0 -15
2 -2 10 13 8 12 10 -2 10 -10 0 -18 -4 -18 -9 0 -5 -14 -12 -31 -16 -46 -10
-26 -19 49 -21 114 -3 265 -22 301 -37 l34 -14 -38 -7 c-48 -9 -40 -21 16 -25
11 0 17 -5 14 -11 -3 -5 0 -10 8 -10 8 0 20 -6 26 -14 11 -13 7 -13 -23 -5
-28 8 -41 6 -61 -7 -32 -21 -32 -26 1 -18 20 5 25 3 22 -7 -3 -9 -24 -15 -64
-17 -32 -2 -63 -7 -68 -12 -9 -9 124 -5 185 6 22 3 39 2 43 -5 4 -6 20 -8 35
-5 16 4 32 1 35 -5 5 -8 -12 -11 -53 -11 -76 0 -87 -15 -18 -25 51 -7 51 -8
24 -19 -15 -7 -24 -16 -20 -20 5 -5 -5 -6 -22 -2 -106 22 -136 26 -145 21 -22
-14 4 -25 58 -25 40 0 53 -3 45 -11 -6 -6 -50 -11 -102 -12 -58 0 -88 -4 -82
-10 12 -12 161 -17 161 -6 0 14 34 10 56 -5 18 -14 16 -15 -24 -22 -31 -5 -42
-11 -38 -20 4 -11 -9 -14 -57 -16 -124 -4 -382 4 -399 13 -9 5 -52 9 -95 8
-66 -1 -73 -2 -43 -10 19 -5 56 -7 83 -4 26 3 47 1 47 -4 0 -5 24 -12 53 -16
40 -6 47 -10 32 -16 -12 -5 13 -8 67 -8 48 -1 90 -5 93 -11 3 -5 39 -9 78 -8
40 0 57 3 40 5 -33 4 -42 16 -23 28 6 4 18 1 27 -7 11 -9 14 -9 10 -1 -6 9 4
8 34 -2 36 -13 40 -13 35 0 -6 17 19 21 29 5 3 -5 12 -7 20 -3 9 3 15 -1 15
-11 0 -9 -5 -16 -12 -16 -26 0 3 -12 49 -20 l48 -8 -62 -1 c-50 -1 -63 -4 -63
-17 0 -11 8 -14 33 -12 21 2 31 -1 29 -9 -1 -7 3 -13 9 -13 6 0 9 -6 6 -14 -3
-7 0 -19 6 -26 10 -10 4 -11 -28 -5 -22 4 -74 9 -115 10 -61 3 -80 0 -100 -15
-14 -10 -21 -22 -17 -26 4 -4 44 -9 89 -11 114 -5 125 -9 144 -44 11 -23 19
-28 27 -20 14 14 117 15 117 1 0 -5 15 -10 33 -10 23 0 34 -5 34 -15 0 -8 -7
-15 -14 -15 -8 0 -11 4 -8 10 4 6 -8 10 -29 10 -29 0 -34 -3 -29 -16 7 -18 -9
-17 -104 4 -34 7 -43 6 -43 -4 0 -7 14 -17 30 -21 35 -9 40 -23 15 -38 -13 -7
-19 -7 -22 3 -3 6 -11 12 -19 12 -9 0 -12 -4 -9 -10 4 -6 -10 -10 -36 -10 -56
0 -42 -13 19 -17 79 -6 96 -9 112 -16 8 -3 51 -13 95 -21 l80 -14 -83 -1 c-45
-1 -90 3 -100 8 -32 17 -151 33 -191 26 -55 -9 -52 -24 2 -18 32 4 54 0 83
-15 36 -20 37 -21 13 -22 -42 0 -89 -12 -89 -21 0 -5 6 -9 14 -9 8 0 16 -4 18
-10 2 -5 43 -12 92 -16 84 -6 143 -23 129 -37 -12 -13 -51 -7 -57 9 -3 8 -10
13 -15 9 -6 -3 -8 -12 -4 -20 4 -11 1 -13 -11 -9 -9 3 -16 12 -16 20 0 17 -12
18 -27 3 -7 -7 -27 -7 -60 -1 -27 5 -58 5 -69 1 -10 -4 -35 -10 -56 -14 -20
-3 -39 -13 -42 -21 -5 -14 -1 -15 21 -10 16 4 51 10 78 13 28 3 54 11 58 17 6
7 7 4 3 -6 -4 -14 0 -18 17 -18 12 0 40 -5 62 -12 37 -10 38 -11 15 -17 -14
-4 -127 -8 -251 -10 -188 -2 -231 0 -256 12 -26 14 -35 14 -69 2 -21 -8 -72
-14 -111 -15 l-73 0 0 -1250 0 -1250 2500 0 2500 0 0 1251 c0 1180 -1 1253
-18 1265 -16 13 -16 13 1 14 19 0 24 30 5 30 -7 0 -24 9 -38 20 -21 16 -22 20
-7 20 10 0 27 -5 38 -10 18 -10 19 -7 19 69 l0 80 -32 4 -33 4 33 1 c28 2 32
5 32 30 0 21 -7 31 -27 39 l-28 11 28 1 c33 1 38 31 5 32 -13 0 -17 3 -11 6
19 7 16 30 -4 42 -15 9 -14 10 10 11 41 0 33 17 -13 25 -72 12 -54 32 25 26
19 -2 19 -1 2 13 -15 12 -16 14 -2 20 20 7 19 23 -2 29 -14 4 -14 5 -3 6 12 1
16 15 18 56 2 58 1 61 -28 45 -31 -16 -152 -12 -169 6 -3 4 1 5 10 1 9 -3 21
-1 27 5 6 6 25 11 42 10 16 0 30 4 30 9 0 5 -9 9 -20 9 -11 0 -20 4 -20 8 0
16 28 47 36 39 4 -4 2 -7 -4 -7 -7 0 -12 -4 -12 -10 0 -11 52 -13 88 -4 27 8
29 34 2 34 -11 0 -20 5 -20 10 0 6 9 10 21 10 17 0 20 5 17 32 -3 29 -7 33
-36 34 -41 2 -56 14 -18 14 52 0 56 14 56 189 0 158 0 160 -22 164 l-23 4 23
2 22 1 0 297 0 297 -66 -129 c-36 -71 -67 -131 -68 -132 -2 -2 -11 0 -20 3
-12 5 -16 14 -13 31 3 18 1 23 -10 19 -12 -5 -13 3 -7 42 17 122 19 127 47
140 26 13 37 32 17 32 -5 0 -10 7 -10 15 0 9 -9 15 -25 15 -30 0 -31 14 -7 55
23 37 98 63 130 46 12 -6 23 -11 26 -11 3 0 6 131 6 290 l0 290 -268 0 -268 0
1 -22 c0 -13 4 -28 8 -35 12 -19 -4 -91 -24 -109 -11 -9 -19 -13 -19 -8 -1 5
-7 -2 -15 -16 l-14 -25 -1 27 c0 14 7 62 15 105 8 43 15 79 15 81 0 1 -92 2
-205 2 l-205 0 0 -27 c0 -16 6 -64 14 -108 8 -44 20 -127 26 -185 7 -58 16
-118 21 -134 5 -16 9 -61 9 -100 0 -41 8 -101 20 -141 25 -88 26 -132 3 -138
-16 -4 -16 -5 1 -6 14 -1 17 -6 12 -23 -3 -13 -6 -55 -6 -95 0 -60 -3 -72 -17
-76 -17 -4 -17 -5 -1 -6 18 -1 20 -6 38 -101 19 -96 20 -130 7 -130 -8 0 -8
-3 2 -9 10 -6 13 -35 13 -110 0 -55 4 -101 9 -101 5 0 9 -4 9 -10 0 -5 -7 -10
-15 -10 -8 0 -15 -8 -15 -17 0 -10 -7 -30 -14 -45 -14 -26 -21 -61 -16 -83 1
-5 1 -26 0 -46 l-1 -36 50 5 c33 3 51 1 51 -6 0 -6 15 -12 33 -14 17 -2 -5 -5
-50 -5 -88 -2 -110 -7 -95 -26 5 -7 12 -29 14 -49 3 -31 1 -38 -14 -38 -10 0
-18 -4 -18 -10 0 -5 15 -10 33 -10 26 -1 29 -2 15 -11 -10 -5 -18 -16 -18 -22
0 -9 -11 -12 -35 -9 -34 4 -50 22 -20 22 8 0 15 5 15 10 0 7 -7 7 -21 0 -15
-8 -24 -8 -34 0 -7 6 -22 10 -32 8 -11 -2 -22 6 -28 20 -5 12 -23 27 -40 31
-29 9 -29 9 -5 12 14 1 31 2 37 2 7 -1 13 3 13 8 0 12 -46 22 -61 13 -8 -4 -9
-3 -5 4 4 7 16 12 26 12 10 0 22 5 25 10 3 6 15 10 26 10 11 0 18 -4 15 -9 -8
-13 4 -42 14 -36 5 3 11 1 15 -5 9 -15 48 -12 71 5 16 12 16 14 3 15 -17 0
-81 30 -66 30 4 0 2 6 -5 14 -9 10 -15 11 -20 2 -6 -8 -10 -8 -15 0 -26 37
-92 43 -313 30 -103 -7 -128 -12 -143 -27 -10 -10 -22 -19 -27 -19 -14 0 -12
17 3 24 6 3 -2 3 -19 0 -22 -3 -33 -1 -37 9 -4 11 10 16 64 21 78 8 103 26 36
26 -54 0 -83 24 -41 34 15 4 32 2 37 -3 6 -6 20 -11 32 -11 16 0 17 2 5 10
-11 7 -6 10 20 10 19 0 59 3 89 7 47 5 54 4 48 -9 -7 -19 40 -26 113 -18 40 4
43 6 25 17 -18 11 -15 12 24 13 35 0 42 3 37 16 -3 9 -6 18 -6 20 0 2 -10 4
-22 5 -22 1 -22 1 2 8 14 4 25 13 25 20 0 8 9 17 20 22 18 7 18 8 -5 9 -23 1
-23 2 -5 10 11 4 34 6 50 4 27 -4 28 -4 7 6 -13 5 -29 24 -37 42 -7 18 -16 32
-19 31 -14 -4 -45 10 -40 18 3 5 -7 9 -21 9 -17 0 -24 -4 -19 -11 4 -7 0 -9
-12 -5 -37 12 -90 18 -136 17 -26 0 -49 3 -52 8 -3 5 25 9 62 9 113 0 109 -1
86 17 -19 14 -19 14 1 15 21 0 78 31 102 56 8 8 25 14 38 14 37 0 39 18 3 22
-20 2 -32 8 -31 16 2 6 -2 12 -8 12 -7 0 -8 12 -4 33 l6 32 -20 -25 c-20 -25
-21 -25 -21 -3 0 12 4 24 9 27 5 3 7 15 4 26 -3 11 0 27 7 35 9 10 9 15 1 15
-6 0 -11 13 -11 29 0 17 -4 32 -10 36 -5 3 -7 12 -4 20 4 8 10 13 14 10 5 -3
6 4 3 15 -4 13 6 32 27 57 18 20 41 55 51 77 19 43 26 116 10 116 -5 0 -7 8
-4 19 4 17 -29 53 -58 63 -8 3 -7 22 1 63 6 33 13 89 15 125 2 36 9 101 15
145 22 156 41 280 46 308 l6 27 -249 0 c-248 -1 -248 -1 -224 -20 16 -14 19
-20 8 -20 -31 0 -47 -94 -18 -105 8 -3 17 -1 19 4 9 26 19 7 21 -36 3 -55 6
-81 22 -143 6 -25 13 -67 16 -95 l4 -50 -91 -2 c-50 -2 -100 -8 -111 -14 -11
-6 -19 -12 -17 -13 1 -1 50 0 108 4 58 3 108 5 113 3 4 -3 7 -26 7 -53 l0 -48
-36 0 c-19 0 -38 -3 -41 -6 -7 -6 28 -10 61 -6 16 1 18 -3 12 -30 -3 -18 -6
-54 -6 -81 l0 -49 -108 0 c-59 0 -112 -4 -117 -9 -10 -10 -105 15 -105 28 2
33 44 120 67 138 22 18 24 23 11 23 -23 0 -22 7 1 51 28 51 38 161 17 182 -22
21 -103 33 -138 19 -15 -6 -28 -6 -28 -2 0 18 19 56 39 77 21 22 31 69 18 90
-4 6 2 13 13 16 15 4 20 0 20 -17 0 -12 7 -31 15 -43 9 -12 15 -26 14 -30 -3
-20 2 -33 15 -33 7 0 17 -10 21 -22 6 -19 9 -16 15 22 4 25 21 87 39 138 44
133 44 132 -32 132 -50 0 -68 -4 -85 -20 -18 -17 -26 -19 -42 -10 -11 6 -20
15 -20 20 0 6 -49 10 -119 10 l-119 0 21 -52 c11 -29 21 -80 23 -113 1 -33 2
-68 3 -77 1 -9 9 -19 19 -21 11 -3 9 -4 -4 -2 -12 1 -26 -6 -33 -17 -16 -25
-14 -113 4 -199 9 -40 12 -76 7 -81 -12 -12 -42 1 -42 18 0 8 -8 14 -17 14
-14 0 -15 -2 -4 -9 20 -13 6 -28 -29 -33 -33 -5 -49 6 -28 18 9 6 5 10 -12 15
-25 7 -25 7 -2 8 31 1 23 23 -11 32 -65 17 -67 36 -19 216 20 74 32 103 45
107 12 3 17 14 17 38 0 18 3 57 6 86 l7 52 -395 0 -394 0 -2 -55 c-2 -68 -6
-75 -42 -75 -31 0 -45 21 -27 39 9 9 9 14 -2 20 -11 7 -11 9 0 13 12 4 12 7 0
21 -12 15 -11 17 3 17 9 0 16 5 16 10 0 16 -1022 14 -1038 -2 -9 -9 -12 -9
-12 0 0 9 -125 12 -530 12 -341 0 -530 -4 -530 -10z m640 -10 c0 -5 -4 -10
-10 -10 -5 0 -10 5 -10 10 0 6 5 10 10 10 6 0 10 -4 10 -10z m900 -25 c0 -19
-4 -35 -10 -35 -5 0 -10 16 -10 35 0 19 5 35 10 35 6 0 10 -16 10 -35z m-446
-38 c-8 -50 -32 -86 -56 -87 -10 0 -18 3 -18 6 0 5 19 89 25 109 1 6 14 11 29
13 25 2 26 1 20 -41z m186 -3 c28 -65 27 -84 -7 -84 -53 0 -59 12 -38 74 11
31 20 56 22 56 1 0 11 -21 23 -46z m-852 19 c-2 -12 -11 -17 -23 -15 -25 5
-29 8 -20 21 11 19 47 13 43 -6z m102 -5 c15 -10 22 -10 32 0 11 11 68 18 68
8 0 -22 -15 -31 -53 -30 -23 1 -59 2 -79 3 -41 1 -51 17 -15 24 12 2 23 5 25
6 1 0 11 -5 22 -11z m230 -3 c0 -10 -10 -15 -30 -15 -20 0 -30 5 -30 15 0 10
10 15 30 15 20 0 30 -5 30 -15z m-420 -5 c0 -6 -13 -10 -30 -10 -39 0 -39 14
0 17 17 1 30 -2 30 -7z m1228 -22 c21 -21 14 -35 -18 -30 -16 2 -30 7 -30 11
0 9 22 31 30 31 3 0 11 -5 18 -12z m120 -50 c25 -71 26 -78 12 -78 -5 0 -13
12 -16 28 -4 15 -12 30 -17 34 -11 7 -17 78 -7 78 4 0 16 -28 28 -62z m-1166
22 c13 0 30 -5 38 -11 12 -8 9 -9 -11 -5 -14 3 -41 1 -59 -4 -39 -11 -44 -9
-35 19 5 17 10 19 25 11 10 -6 29 -10 42 -10z m1826 -85 c8 -74 7 -81 -16
-115 -21 -30 -23 -42 -18 -90 12 -100 11 -114 -16 -153 l-26 -38 -6 36 c-4 19
-4 40 0 46 3 6 7 37 8 68 1 31 12 108 25 171 12 63 25 126 27 139 8 37 13 21
22 -64z m2199 27 c12 -31 25 -65 29 -74 5 -14 1 -18 -16 -18 -13 0 -19 -4 -14
-11 3 -6 14 -9 24 -6 21 5 25 -7 35 -104 5 -42 1 -114 -10 -199 -9 -74 -15
-160 -13 -192 l4 -58 -50 0 c-48 0 -51 2 -52 26 -1 14 -10 31 -19 38 -15 11
-16 14 -4 22 10 6 8 10 -11 14 -20 5 -25 12 -26 37 -1 19 5 34 13 37 14 6 13
44 -3 155 -7 50 -6 54 11 48 23 -9 52 12 33 24 -7 5 -23 9 -34 9 -28 0 -37 25
-21 58 9 20 24 30 57 38 l45 12 -28 11 c-37 14 -42 32 -24 83 9 29 20 43 31
42 18 -2 22 12 5 18 -12 4 -3 48 9 48 4 0 17 -26 29 -58z m-4260 42 c-3 -3
-12 -4 -19 -1 -8 3 -5 6 6 6 11 1 17 -2 13 -5z m890 -10 c-3 -3 -12 -4 -19 -1
-8 3 -5 6 6 6 11 1 17 -2 13 -5z m980 0 c-3 -3 -12 -4 -19 -1 -8 3 -5 6 6 6
11 1 17 -2 13 -5z m-40 -17 c4 -8 16 -16 25 -20 14 -5 17 -17 17 -57 -1 -27
-6 -50 -10 -50 -5 0 -9 -4 -9 -10 0 -5 7 -10 15 -10 15 0 75 -51 75 -64 0 -3
-7 -6 -15 -6 -12 0 -13 -4 -6 -18 6 -10 7 -28 4 -40 -3 -13 -1 -22 5 -22 40 0
31 -128 -13 -186 -15 -19 -28 -51 -30 -72 -2 -20 -9 -53 -15 -72 -5 -19 -10
-49 -10 -67 0 -17 -4 -35 -10 -38 -5 -3 -10 -19 -10 -36 0 -44 -31 -95 -55
-91 -19 3 -21 11 -23 101 -3 93 -2 100 22 129 33 39 35 66 4 56 -26 -8 -65 -7
-80 2 -6 4 -8 24 -5 45 3 22 0 53 -6 71 -9 24 -9 32 0 35 7 2 9 11 6 19 -3 8
-2 22 1 31 6 15 8 15 16 3 5 -8 11 -12 14 -10 2 3 7 70 10 149 3 84 10 149 17
157 6 8 8 25 5 38 -9 36 42 63 61 33z m-874 -16 c3 -14 11 -18 26 -14 16 4 21
1 21 -14 0 -22 -29 -66 -30 -45 0 8 -9 25 -20 39 -21 27 -26 53 -11 53 5 0 11
-9 14 -19z m-186 -25 c5 -8 19 -20 33 -26 20 -8 15 -9 -30 -5 -62 7 -65 8 -57
30 8 19 43 20 54 1z m537 -64 l1 -57 35 -3 c23 -2 30 0 22 6 -11 8 -11 10 2
15 9 4 22 4 30 1 8 -3 19 4 26 16 19 35 28 12 34 -80 5 -94 -2 -170 -16 -170
-5 0 -6 4 -3 10 11 18 -15 50 -43 51 -15 0 -36 4 -47 8 -17 7 -18 9 -2 17 9 5
18 21 20 34 3 15 12 27 26 30 41 9 27 25 -26 28 -43 3 -54 0 -66 -19 -14 -19
-17 -20 -36 -7 -18 13 -19 17 -6 35 8 11 14 43 13 72 0 47 17 90 30 76 3 -3 6
-31 6 -63z m2809 11 c-11 -92 -16 -113 -25 -113 -6 0 -8 13 -4 33 4 17 9 49
13 70 6 42 22 51 16 10z m-3143 -23 c0 -5 -5 -10 -11 -10 -5 0 -7 5 -4 10 3 6
8 10 11 10 2 0 4 -4 4 -10z m-245 -69 c3 -6 -3 -14 -12 -20 -15 -9 -12 -11 17
-12 19 -1 42 -3 50 -4 8 -1 50 -3 94 -4 l78 -1 -4 -40 c-2 -22 1 -42 7 -44 5
-2 2 -5 -8 -5 -10 -1 -29 6 -42 15 -23 15 -25 15 -25 0 0 -12 -11 -16 -47 -17
-27 -1 -59 -2 -73 -3 -14 -1 -37 -3 -52 -4 -16 -1 -28 -6 -28 -12 0 -5 60 -11
148 -12 l147 -3 -4 -54 c-2 -32 -10 -60 -20 -70 -15 -16 -18 -16 -54 3 -29 15
-40 17 -49 8 -9 -9 -8 -12 5 -12 9 0 17 -5 17 -11 0 -7 -10 -9 -25 -7 -17 4
-25 1 -25 -8 0 -10 9 -12 30 -7 19 3 30 1 30 -6 0 -6 4 -11 10 -11 5 0 7 8 4
18 -5 16 -5 16 9 0 17 -22 21 -22 41 -2 15 14 16 13 16 -15 0 -29 0 -30 -47
-26 -110 9 -331 0 -318 -14 3 -3 54 -9 113 -13 120 -10 124 -10 207 -4 33 3
51 2 40 -1 -29 -7 -55 -44 -49 -69 3 -12 1 -25 -5 -28 -14 -9 -2 -36 13 -30
15 6 99 -31 115 -50 7 -8 -5 -6 -31 7 -23 12 -57 21 -75 21 -18 0 -33 4 -33 8
0 4 -16 8 -36 8 -19 0 -33 4 -30 9 3 5 -5 11 -19 13 -26 5 -35 -7 -12 -15 6
-2 -33 -4 -88 -2 -55 1 -88 0 -72 -2 15 -2 27 -9 27 -14 0 -12 -5 -11 -65 4
-43 11 -50 17 -53 40 -3 25 -1 27 33 27 20 0 45 -5 56 -11 11 -6 25 -8 32 -6
7 3 1 9 -12 14 l-25 10 33 11 c20 7 40 8 56 2 13 -5 41 -7 61 -4 32 4 35 2 24
-11 -10 -12 -9 -15 7 -15 11 0 34 7 52 16 59 30 24 39 -149 40 -88 0 -162 3
-166 7 -4 3 -3 14 1 24 5 10 10 26 12 37 7 37 20 48 62 50 22 1 41 -1 41 -6 0
-17 50 -7 60 12 13 24 30 26 30 5 0 -8 7 -15 15 -15 13 0 13 3 3 20 -15 24
-68 28 -68 5 0 -12 -7 -14 -27 -9 -16 4 -35 10 -43 14 -8 4 -20 5 -27 3 -8 -3
-9 4 -4 24 6 22 14 29 38 31 24 2 31 8 30 23 -1 13 -6 17 -19 13 -16 -5 -18 2
-18 59 0 51 6 74 26 111 22 39 28 44 44 36 11 -6 21 -14 25 -19z m1585 -77 c0
-31 -2 -34 -15 -20 -18 18 -19 28 -3 44 17 17 18 16 18 -24z m1794 -41 c3 -18
1 -20 -15 -10 -19 12 -26 57 -12 71 8 8 23 -26 27 -61z m-2382 29 c3 -9 1 -26
-3 -37 -6 -15 -8 -11 -8 18 -1 40 4 48 11 19z m-513 -23 c-13 -26 -23 -18 -14
10 3 12 11 19 16 16 5 -4 5 -14 -2 -26z m1187 23 c-3 -5 14 -16 37 -26 59 -24
91 -43 95 -55 2 -6 -16 0 -40 14 -24 13 -62 27 -85 31 -47 7 -49 8 -30 29 13
15 32 21 23 7z m-1080 -82 c83 0 64 -17 -27 -24 -70 -7 -82 -10 -87 -28 -2
-11 -16 -24 -29 -29 -13 -5 -21 -13 -18 -19 3 -5 -1 -10 -10 -10 -19 0 -16 25
11 88 14 34 15 35 60 28 26 -3 71 -6 100 -6z m829 0 c3 -5 -1 -10 -9 -10 -9 0
-16 5 -16 10 0 6 4 10 9 10 6 0 13 -4 16 -10z m155 -11 c0 -3 -13 -35 -29 -70
-15 -35 -31 -80 -35 -100 -5 -29 -11 -36 -24 -32 -13 3 -17 15 -17 51 1 26 -3
55 -7 64 -13 27 16 86 44 90 36 5 68 4 68 -3z m-1850 -19 c0 -7 -13 -7 -38 -1
-2 1 -1 5 3 11 6 10 35 2 35 -10z m3037 -11 c61 -23 102 -88 47 -75 -19 5 -25
3 -21 -6 2 -8 16 -12 33 -10 l29 3 -25 -17 c-14 -10 -27 -19 -29 -21 -3 -2 6
-15 20 -30 17 -20 18 -23 3 -10 -28 23 -39 22 -58 -8 -9 -14 -21 -25 -28 -25
-6 0 -17 -8 -23 -17 -11 -15 -13 -10 -12 35 2 47 -1 55 -30 83 -37 34 -41 59
-15 81 32 29 65 34 109 17z m-3463 -14 c13 -9 43 -19 67 -24 35 -7 25 -8 -48
-6 -56 1 -99 7 -108 15 -8 7 -24 10 -35 7 -11 -3 -20 -1 -20 3 0 5 26 11 58
13 31 2 58 4 60 5 1 1 13 -5 26 -13z m1355 -9 c-2 -2 -18 -7 -34 -11 l-30 -6
30 14 c27 13 45 14 34 3z m1357 -6 c37 0 44 -3 44 -20 0 -13 -7 -20 -20 -20
-23 0 -26 -10 -8 -28 19 -19 6 -22 -42 -11 -25 6 -73 12 -107 13 -35 1 -66 5
-69 9 -4 4 -2 18 4 31 9 20 20 26 54 29 24 2 56 3 72 1 16 -2 48 -4 72 -4z
m-1296 -20 c0 -5 -4 -10 -9 -10 -6 0 -13 5 -16 10 -3 6 1 10 9 10 9 0 16 -4
16 -10z m-960 -31 c0 -11 -4 -18 -10 -14 -5 3 -7 12 -3 20 7 21 13 19 13 -6z
m730 11 c-20 -13 -40 -13 -40 0 0 6 12 10 28 10 21 0 24 -2 12 -10z m-10 -52
c0 -4 -11 -3 -24 3 -17 8 -29 8 -42 0 -11 -6 -13 -11 -6 -11 21 0 13 -30 -9
-30 -16 0 -19 4 -14 23 4 12 9 29 11 39 4 15 7 15 44 0 22 -10 40 -20 40 -24z
m190 31 c11 -7 4 -8 -25 -3 -50 8 -58 14 -19 14 16 0 36 -5 44 -11z m-1520 -9
c-8 -5 -26 -10 -40 -10 -20 0 -22 2 -10 10 8 5 26 10 40 10 20 0 22 -2 10 -10z
m448 -6 c77 -7 98 -20 32 -18 -47 1 -61 -12 -28 -25 l23 -10 -23 0 c-12 -1
-25 6 -28 14 -7 17 -44 21 -44 5 0 -5 -12 -10 -26 -10 -14 0 -23 4 -19 10 3 6
15 10 26 10 10 0 19 5 19 11 0 8 -16 10 -50 5 -30 -4 -50 -3 -50 3 0 11 45 20
76 15 11 -2 53 -7 92 -10z m2415 -21 c54 -5 57 -7 57 -32 0 -15 -4 -31 -9 -36
-6 -6 -12 -21 -14 -35 -3 -14 -14 -51 -24 -82 -11 -32 -18 -58 -15 -58 11 0
52 44 52 55 0 7 10 20 22 31 l21 19 -19 -34 c-10 -19 -34 -50 -52 -68 -19 -19
-31 -37 -28 -40 7 -7 34 -11 85 -12 30 -1 32 -3 20 -17 -11 -14 -27 -16 -94
-11 -44 3 -71 3 -60 1 11 -3 30 -7 43 -10 13 -2 20 -9 17 -14 -4 -6 1 -13 10
-16 12 -5 13 -9 4 -20 -14 -17 -13 -18 26 -32 l30 -11 -30 2 c-25 2 -29 -2
-30 -23 0 -16 -7 -27 -20 -31 -19 -5 -18 -7 9 -32 27 -25 27 -27 8 -27 -11 0
-24 -4 -27 -10 -3 -5 3 -10 14 -10 11 0 23 -4 26 -10 3 -5 -1 -10 -9 -10 -9 0
-16 -7 -16 -15 0 -8 7 -15 15 -15 8 0 15 -5 15 -11 0 -7 -10 -9 -25 -5 -14 4
-25 2 -25 -4 0 -5 -11 -12 -25 -16 -14 -3 -22 -10 -19 -16 3 -5 12 -7 20 -4 7
3 16 1 19 -4 3 -4 -1 -11 -7 -13 -7 -3 -1 -6 15 -6 15 -1 27 -5 27 -11 0 -11
-39 -14 -165 -12 -65 0 -75 -1 -55 -10 23 -10 66 -16 128 -17 28 -1 19 -21 -9
-21 -10 0 -19 -3 -19 -7 0 -10 78 -9 87 1 14 14 25 4 21 -19 -5 -24 -4 -25 33
-19 24 4 39 3 39 -3 0 -6 -18 -13 -39 -17 -21 -3 -41 -13 -45 -21 -4 -11 -14
-13 -37 -8 -21 4 -30 3 -26 -4 4 -6 25 -13 47 -17 22 -3 40 -11 40 -17 0 -6
-8 -8 -18 -5 -9 3 -33 1 -52 -4 -22 -6 -38 -6 -44 0 -7 7 -5 10 4 10 10 0 11
3 3 11 -7 7 -17 8 -25 3 -22 -14 -58 -16 -56 -2 4 14 -32 24 -41 10 -3 -5 -16
-12 -27 -16 -18 -5 -23 -2 -28 20 -6 21 -11 25 -29 21 -20 -5 -20 -5 -5 7 20
14 14 26 -13 26 -12 0 -16 6 -12 20 3 11 10 20 17 21 51 3 105 19 64 19 -26 0
-27 26 -2 45 13 10 24 28 24 41 0 12 6 25 13 27 6 3 2 6 -10 6 -13 1 -23 5
-23 10 0 5 -13 11 -30 15 -16 3 -30 10 -30 16 0 13 37 13 45 0 11 -18 115 -8
115 11 0 5 -12 9 -26 9 -14 0 -23 4 -19 10 8 13 -40 13 -85 0 -32 -9 -37 -8
-57 15 -30 35 -29 55 2 55 14 0 25 5 25 10 0 6 12 10 28 10 59 0 53 17 -9 24
-46 6 -64 4 -70 -6 -14 -22 -38 22 -32 57 3 17 9 34 13 38 4 4 68 11 143 14
76 3 137 10 137 14 0 15 -98 40 -153 38 -66 -2 -95 17 -77 51 6 11 21 21 33
21 135 9 181 17 196 37 9 13 23 17 44 15 27 -3 29 -2 12 7 -16 8 -12 9 18 6
31 -4 38 -2 33 9 -3 8 -1 15 4 15 6 0 10 6 10 13 0 8 -22 13 -68 15 -37 2 -76
6 -87 9 -19 6 -18 7 4 13 48 11 33 27 -28 32 -33 2 -63 7 -67 10 -14 15 11 28
54 29 26 0 56 4 67 9 11 5 27 6 35 3 8 -3 41 -7 73 -10z m-1395 -23 c12 -8 6
-8 -23 -3 -22 4 -50 7 -62 6 -13 0 -23 4 -23 9 0 13 83 3 108 -12z m2329 -41
c-19 -11 -51 -68 -43 -76 3 -3 -5 -20 -18 -37 -12 -17 -35 -55 -50 -84 -26
-51 -26 -53 -7 -47 12 3 21 2 21 -3 0 -5 -13 -12 -30 -15 -32 -7 -80 -70 -80
-106 0 -11 -4 -23 -10 -26 -5 -3 -10 -1 -10 6 0 7 -7 20 -16 30 -15 16 -14 17
3 13 15 -4 25 7 47 54 34 72 29 86 -30 79 l-43 -4 22 28 c23 32 32 37 24 14
-4 -8 -2 -17 3 -20 14 -9 39 6 45 26 4 10 12 19 20 19 7 0 16 14 20 31 6 26 2
36 -26 67 l-34 36 40 -33 39 -34 8 29 c4 16 6 35 3 41 -3 9 6 11 33 8 20 -2
44 0 52 5 8 5 20 10 25 10 6 -1 2 -5 -8 -11z m-637 -19 c0 -5 -9 -10 -20 -10
-11 0 -20 5 -20 10 0 6 9 10 20 10 11 0 20 -4 20 -10z m293 -12 c3 -10 1 -18
-4 -18 -5 0 -9 5 -9 10 0 7 -13 8 -34 5 -36 -7 -86 3 -68 14 5 3 33 6 60 7 41
0 52 -3 55 -18z m-253 -18 c0 -5 -12 -12 -27 -16 -16 -3 -33 -7 -40 -9 -6 -2
-14 3 -17 12 -4 10 -2 14 6 10 7 -2 22 -1 33 4 28 11 45 11 45 -1z m-440 -36
c0 -19 -16 -18 -40 3 -19 16 -19 18 -3 24 21 7 43 -7 43 -27z m288 13 c7 -6
18 -20 23 -31 8 -17 6 -16 -9 3 -15 19 -30 25 -61 25 -33 1 -38 3 -26 12 17
13 51 8 73 -9z m362 13 c0 -5 -2 -10 -4 -10 -3 0 -8 5 -11 10 -3 6 -1 10 4 10
6 0 11 -4 11 -10z m-2040 -10 c0 -5 -8 -7 -17 -3 -16 6 -16 5 1 -15 l18 -21
-61 2 c-33 1 -61 4 -61 7 1 16 20 32 34 27 9 -4 16 -2 16 3 0 6 16 10 35 10
19 0 35 -4 35 -10z m955 0 c3 -5 1 -10 -4 -10 -6 0 -11 5 -11 10 0 6 2 10 4
10 3 0 8 -4 11 -10z m-1189 -21 c19 -22 19 -22 -3 -8 -13 8 -23 17 -23 21 0
12 6 9 26 -13z m2315 8 c-1 -12 -15 -9 -19 4 -3 6 1 10 8 8 6 -3 11 -8 11 -12z
m-1871 -9 c0 -11 -112 -9 -130 2 -10 6 8 9 58 7 39 -1 72 -5 72 -9z m1690 2
c0 -5 13 -7 30 -4 37 8 120 -4 120 -17 0 -5 -17 -9 -37 -9 -21 0 -48 -3 -60
-6 -39 -11 -16 -21 42 -19 30 1 55 -2 55 -5 0 -20 -32 -30 -82 -26 -45 3 -58
1 -71 -14 -14 -16 -14 -19 0 -24 8 -3 22 -6 31 -6 15 1 14 3 -2 15 -18 13 -15
15 32 14 29 -1 52 -4 52 -6 0 -13 -67 -62 -91 -67 -34 -6 -40 -35 -9 -43 11
-3 20 -9 20 -12 0 -13 -47 -34 -62 -28 -9 4 -7 6 5 6 17 1 23 16 9 24 -4 3
-25 -4 -47 -14 -58 -28 -80 -22 -80 21 0 19 -4 41 -8 48 -5 7 -4 12 2 12 8 0
9 26 5 79 l-6 79 38 -5 c22 -2 50 0 64 6 33 13 50 13 50 1z m-1393 -52 c-3 -7
-5 -2 -5 12 0 14 2 19 5 13 2 -7 2 -19 0 -25z m2542 17 c6 3 13 -4 15 -17 19
-86 27 -143 30 -204 3 -51 11 -85 30 -122 15 -29 22 -52 16 -52 -17 0 -23 -49
-8 -73 11 -18 12 -33 4 -76 -6 -30 -16 -56 -23 -58 -23 -8 63 -109 107 -126
11 -4 9 -6 -5 -6 -12 -1 -26 4 -33 11 -6 6 -14 9 -17 6 -12 -11 8 -60 30 -74
l23 -15 -21 -23 c-12 -13 -31 -26 -43 -30 -15 -5 -20 -14 -19 -35 1 -16 -4
-40 -11 -53 -7 -12 -13 -17 -14 -10 0 15 -76 17 -86 1 -4 -8 1 -9 15 -4 20 6
111 -22 111 -35 0 -12 -81 -39 -107 -36 -15 2 -21 1 -13 -1 8 -3 22 -12 32
-20 9 -8 24 -16 34 -17 9 -1 19 -12 21 -24 2 -19 -2 -22 -30 -22 -17 0 -38 -4
-46 -9 -17 -11 -5 -32 14 -25 11 5 14 -4 12 -35 -1 -33 -4 -40 -17 -35 -8 3
-39 8 -69 11 -40 5 -52 3 -47 -5 4 -7 14 -12 22 -12 8 0 12 -4 9 -10 -3 -5
-20 -10 -37 -10 -41 0 -31 -8 28 -23 59 -14 67 -36 22 -56 -28 -13 -30 -15
-12 -21 10 -4 25 -3 32 3 20 16 25 1 6 -18 -16 -16 -16 -17 6 -13 14 2 34 -6
46 -17 l23 -20 -21 -11 c-21 -11 -20 -12 10 -19 52 -11 36 -22 -26 -17 -45 3
-61 0 -71 -12 -12 -14 -6 -16 60 -16 57 0 70 -3 61 -12 -7 -7 -22 -13 -35 -13
-16 0 -23 -7 -27 -29 -3 -17 -14 -32 -25 -37 -17 -6 -15 -8 10 -9 29 -1 29 -1
11 -15 -15 -12 -49 -15 -150 -14 -72 1 -121 4 -108 6 12 2 22 11 22 18 0 8
-10 21 -22 31 l-23 16 22 -5 c13 -3 26 -1 29 4 3 5 16 9 30 9 36 0 29 15 -13
32 l-38 14 63 8 c74 8 81 31 11 32 -77 1 -106 27 -46 42 44 11 47 50 6 66 -29
10 -39 26 -18 26 6 0 9 9 6 20 -3 11 -1 20 4 20 23 0 6 21 -22 27 -27 5 -29 7
-15 21 13 13 20 13 60 0 38 -13 46 -13 50 -1 3 8 1 11 -4 8 -5 -3 -17 3 -27
15 -10 11 -23 20 -29 20 -7 0 -14 7 -18 15 -3 10 1 15 11 15 15 0 15 2 1 18
-27 30 -20 67 16 82 l31 13 -30 7 c-32 7 -23 15 25 23 14 2 -1 5 -32 6 -31 0
-59 5 -63 10 -3 6 9 8 29 4 23 -4 42 0 57 11 13 9 38 16 56 16 18 0 33 5 33
10 0 6 -5 10 -12 10 -6 0 -4 6 6 13 13 10 18 26 18 64 -1 51 0 52 31 56 31 4
31 4 -5 5 -30 2 -39 7 -51 32 -18 35 -17 36 46 45 32 5 47 12 47 22 0 9 -6 13
-14 10 -7 -3 -34 -8 -59 -12 -31 -5 -47 -13 -49 -23 -3 -18 -1 -20 -54 46
l-26 32 24 1 c148 3 185 11 170 35 -5 9 -23 9 -64 1 -56 -10 -58 -9 -82 16
-14 15 -36 27 -49 27 l-24 0 18 86 c10 47 21 106 24 131 6 48 15 67 22 47 3
-8 25 -10 69 -6 50 4 68 2 75 -9 5 -8 9 -9 9 -3 0 6 18 14 40 18 55 9 45 36
-14 36 -22 0 -48 5 -56 11 -11 8 -7 9 18 5 44 -8 32 10 -17 25 -44 13 -132 3
-96 -11 l20 -8 -20 -8 c-11 -4 -24 -12 -28 -18 -8 -10 -4 31 9 97 5 25 9 27
57 29 l52 2 -52 3 c-49 4 -53 6 -53 29 0 36 24 56 76 62 24 2 44 8 44 13 0 14
-37 20 -64 9 -37 -14 -46 -13 -46 5 0 10 10 15 29 15 16 0 31 6 34 13 3 10 9
10 26 0 23 -14 52 -17 50 -5 -3 19 2 23 16 12 8 -6 19 -9 24 -5z m-3838 -32
c13 -16 12 -17 -3 -4 -17 13 -22 21 -14 21 2 0 10 -8 17 -17z m889 -3 c17 -11
18 -10 -30 -17 -64 -9 -140 -8 -137 2 1 6 23 9 49 7 26 -2 55 1 65 7 23 13 34
13 53 1z m870 -15 c0 -8 -7 -15 -15 -15 -8 0 -15 7 -15 15 0 8 7 15 15 15 8 0
15 -7 15 -15z m-1782 -12 c11 -10 28 -31 38 -48 l18 -30 -24 20 c-13 11 -30
26 -38 33 -7 6 -31 12 -53 12 -21 0 -39 4 -39 9 0 25 71 27 98 4z m442 7 c0
-6 -60 -9 -152 -9 -173 2 -146 14 35 17 70 1 117 -3 117 -8z m610 0 c0 -5 -13
-10 -30 -10 -16 0 -30 5 -30 10 0 6 14 10 30 10 17 0 30 -4 30 -10z m-775 -50
c8 -13 -5 -13 -25 0 -13 8 -13 10 2 10 9 0 20 -4 23 -10z m2555 -26 c0 -8 -4
-12 -10 -9 -5 3 -10 10 -10 16 0 5 5 9 10 9 6 0 10 -7 10 -16z m-2563 -10 c-3
-3 -12 -4 -19 -1 -8 3 -5 6 6 6 11 1 17 -2 13 -5z m3798 -4 c3 -5 1 -10 -4
-10 -6 0 -11 5 -11 10 0 6 2 10 4 10 3 0 8 -4 11 -10z m129 -22 c3 -17 4 -33
1 -36 -8 -8 -43 42 -38 55 9 24 30 13 37 -19z m-3489 12 c3 -5 1 -10 -4 -10
-6 0 -11 5 -11 10 0 6 2 10 4 10 3 0 8 -4 11 -10z m826 -27 c12 -15 12 -16 -4
-10 -10 4 -25 7 -33 7 -9 0 -12 5 -9 10 9 15 31 12 46 -7z m1410 0 c13 -16 12
-17 -3 -4 -17 13 -22 21 -14 21 2 0 10 -8 17 -17z m-2180 -10 c13 -16 12 -17
-3 -4 -17 13 -22 21 -14 21 2 0 10 -8 17 -17z m328 -31 c0 -11 -3 -12 -6 -4
-2 6 -12 12 -21 12 -14 0 -15 2 -2 9 18 12 30 5 29 -17z m661 -3 c0 -6 -5 -7
-10 -4 -15 10 -31 -42 -33 -111 l-2 -63 -47 -6 c-76 -11 -67 -31 11 -27 7 0
23 -8 34 -19 12 -10 32 -19 45 -19 35 0 21 -24 -16 -28 -18 -2 -32 -7 -32 -11
0 -5 -20 -12 -45 -16 -25 -3 -43 -9 -41 -13 2 -4 -17 -6 -42 -4 -36 2 -43 0
-30 -8 13 -8 14 -15 5 -39 -6 -16 -18 -32 -26 -35 -9 -3 -23 -9 -31 -12 -10
-3 -8 0 3 10 18 14 18 15 -2 26 -26 13 -27 26 -2 33 27 7 31 49 6 62 -14 7
-20 21 -21 45 -1 19 -4 47 -9 63 -5 18 -3 27 4 27 8 0 9 5 1 19 -23 44 -5 111
31 111 11 0 29 5 40 11 16 8 30 7 61 -6 47 -18 88 -13 113 15 17 19 35 18 35
-1z m65 1 c-3 -5 -10 -10 -16 -10 -5 0 -9 5 -9 10 0 6 7 10 16 10 8 0 12 -4 9
-10z m2395 -15 c0 -7 5 -16 10 -18 6 -3 5 -4 -1 -3 -7 1 -16 12 -20 25 -6 14
-5 20 1 16 6 -3 10 -12 10 -20z m-4440 -5 c0 -13 -11 -13 -30 0 -12 8 -11 10
8 10 12 0 22 -4 22 -10z m-230 -20 c0 -15 -76 -19 -149 -7 l-76 12 100 5 c103
5 125 3 125 -10z m3175 3 c36 -8 38 -10 15 -15 -25 -6 -85 -2 -99 6 -4 3 -19
-1 -34 -9 -22 -11 -26 -11 -31 2 -3 8 -3 19 0 25 7 10 81 6 149 -9z m-2781
-26 c7 -6 6 -7 -4 -4 -8 2 -16 12 -17 23 -2 13 -1 15 4 4 3 -8 11 -19 17 -23z
m1163 27 c-3 -3 -12 -4 -19 -1 -8 3 -5 6 6 6 11 1 17 -2 13 -5z m251 -21 c25
-16 66 -96 59 -116 -2 -7 -7 2 -11 19 -4 17 -19 43 -34 56 -29 28 -72 45 -72
30 0 -6 -9 -8 -20 -5 -11 3 -32 -3 -47 -13 -27 -17 -28 -17 -13 1 25 30 73 55
95 49 11 -3 31 -13 43 -21z m1522 7 c0 -5 -6 -10 -14 -10 -8 0 -16 -5 -18 -11
-2 -6 -13 -9 -23 -7 -17 4 -14 7 15 20 19 9 36 17 38 17 1 1 2 -3 2 -9z
m-2440 -4 c0 -2 -11 -6 -25 -8 -13 -3 -22 -1 -19 3 5 9 44 13 44 5z m277 -2
c-3 -3 -12 -4 -19 -1 -8 3 -5 6 6 6 11 1 17 -2 13 -5z m150 0 c-3 -3 -12 -4
-19 -1 -8 3 -5 6 6 6 11 1 17 -2 13 -5z m3393 -8 c0 -8 -4 -18 -10 -21 -5 -3
-10 3 -10 14 0 12 5 21 10 21 6 0 10 -6 10 -14z m-4115 -36 c21 -22 37 -40 34
-40 -3 0 -23 18 -44 40 -21 22 -37 40 -34 40 3 0 23 -18 44 -40z m983 16 c-3
-15 0 -27 7 -30 33 -12 44 -280 12 -272 -7 1 -9 1 -4 -1 4 -3 7 -27 7 -54 0
-37 5 -52 19 -61 16 -10 17 -13 5 -26 -17 -17 -10 -32 15 -32 14 0 23 -13 32
-46 14 -45 71 -114 95 -114 7 0 16 -5 20 -11 8 -13 -38 -1 -46 12 -5 6 -180 8
-180 2 0 -2 9 -12 20 -23 24 -24 26 -40 5 -40 -8 0 -15 -4 -15 -10 0 -5 7 -10
15 -10 8 0 15 -6 15 -14 0 -8 7 -17 15 -20 9 -3 15 -14 13 -23 -2 -12 6 -19
27 -24 l30 -7 -36 -1 c-19 0 -41 -7 -48 -13 -10 -11 -12 -9 -9 7 2 16 -3 20
-27 22 -29 3 -29 2 -6 -7 13 -6 21 -13 17 -17 -8 -9 -195 -5 -209 4 -7 4 -39
9 -72 10 -41 2 -55 0 -45 -7 8 -5 24 -10 35 -11 11 -1 4 -5 -15 -9 -35 -9 -55
0 -55 22 0 27 -129 32 -146 6 -3 -5 -18 -4 -35 3 -28 12 -26 13 46 25 41 7 96
16 123 19 26 4 45 10 42 16 -4 5 1 9 9 9 9 0 16 5 16 11 0 5 -3 8 -7 6 -5 -2
-21 2 -38 9 -24 11 -26 13 -9 14 11 0 24 3 28 7 4 4 21 8 39 9 93 6 139 14
153 28 9 10 33 16 62 16 34 0 43 3 32 10 -8 6 -28 7 -45 3 -16 -3 -54 -5 -84
-5 -30 1 -59 -2 -65 -7 -16 -13 -133 -8 -148 7 -9 9 -9 12 5 12 9 0 17 5 17
10 0 6 27 10 60 10 33 0 60 4 60 10 0 6 -7 10 -15 10 -8 0 -15 5 -15 12 0 9
-3 9 -12 0 -7 -7 -27 -9 -54 -5 -24 3 -49 1 -56 -4 -16 -13 -78 -15 -78 -3 0
14 39 23 98 22 30 0 66 4 78 9 28 10 33 33 6 25 -12 -4 -20 1 -27 17 -6 13
-22 25 -40 28 -22 5 -24 7 -8 8 12 0 25 6 28 11 10 16 26 11 23 -7 -3 -18 -1
-18 58 -15 36 3 20 22 -18 22 -38 0 -30 13 9 14 17 1 29 7 31 17 2 13 -3 15
-23 12 -17 -4 -25 -1 -25 9 0 9 -9 14 -21 14 -12 -1 -24 4 -26 10 -5 16 48 28
57 14 5 -9 9 -9 14 -1 4 6 26 11 49 11 42 -1 42 -1 17 -16 l-25 -15 34 5 c18
3 39 6 46 6 7 0 15 12 18 26 4 21 1 25 -14 21 -11 -3 -22 -1 -25 4 -6 11 -142
1 -159 -11 -5 -4 -28 -5 -50 -2 l-40 5 35 13 c19 7 50 13 68 13 18 1 31 5 28
10 -3 5 -40 8 -82 7 -42 -1 -78 2 -80 5 -5 9 25 21 36 14 4 -3 6 4 3 15 -4 17
0 20 23 20 23 0 26 2 14 10 -11 7 -5 10 25 12 22 1 50 1 63 0 26 -1 27 4 7 24
-8 9 -15 11 -15 5 0 -21 -27 -11 -38 13 -9 21 -19 26 -64 29 -41 3 -48 5 -31
11 13 5 20 12 18 17 -9 14 -67 1 -87 -20 -20 -22 -48 -28 -48 -11 0 5 -15 10
-32 9 -18 0 -75 0 -127 0 -52 1 -97 -1 -99 -4 -3 -3 27 -5 66 -5 44 0 72 -4
72 -11 0 -5 8 -9 18 -8 32 3 52 -1 52 -10 0 -6 -16 -7 -35 -4 -31 5 -35 3 -35
-16 0 -18 4 -21 20 -16 11 3 25 3 32 -1 7 -5 -7 -14 -38 -25 -52 -18 -50 -20
26 -37 l45 -10 -47 -1 c-59 -1 -85 -10 -66 -22 7 -5 28 -9 46 -9 17 0 32 -4
32 -10 0 -5 -11 -10 -25 -10 -22 0 -24 -2 -13 -14 9 -10 15 -11 20 -2 5 7 10
8 17 1 8 -8 6 -18 -5 -34 -13 -18 -23 -22 -44 -18 -41 9 -73 -2 -59 -19 6 -7
9 -19 7 -25 -5 -15 -134 -24 -143 -9 -3 5 0 10 8 10 7 0 14 7 14 15 0 18 -35
31 -49 17 -6 -6 -22 -7 -44 0 -19 5 -39 6 -46 2 -7 -4 -8 -3 -4 4 4 8 0 12
-11 13 -13 0 -12 3 7 10 17 7 26 7 28 0 2 -7 10 -4 19 5 13 12 18 13 24 3 6
-10 18 -9 56 4 l48 17 -47 -5 c-44 -4 -66 7 -35 18 6 2 0 3 -15 1 -16 -2 -28
1 -28 6 0 6 -16 10 -35 10 -19 0 -35 -4 -35 -10 0 -5 -7 -7 -15 -4 -30 12 -14
22 48 30 62 7 62 7 32 20 -28 13 -29 14 -8 20 27 8 40 36 15 34 -26 -3 -63 11
-56 21 3 5 47 10 97 11 51 0 76 3 57 5 -19 3 -39 9 -44 14 -6 5 -18 9 -28 9
-14 0 -18 9 -19 38 -3 56 -4 65 -17 95 -7 16 -12 29 -12 31 0 1 55 1 123 -1
67 -2 127 -3 132 -3 6 0 127 2 270 4 144 3 271 9 285 15 14 5 51 10 84 10 57
1 58 0 54 -23z m-1754 -1 c3 -8 15 -15 26 -15 11 0 20 -4 20 -10 0 -16 -25
-12 -51 9 -13 10 -33 21 -44 24 -14 3 -10 5 11 6 20 1 34 -5 38 -14z m236 11
c0 -9 -30 -14 -35 -6 -4 6 3 10 14 10 12 0 21 -2 21 -4z m3414 -42 c9 -24 2
-26 -12 -4 -7 11 -8 20 -3 20 5 0 12 -7 15 -16z m-268 -3 c-5 -8 -56 -3 -56 5
0 2 14 4 31 4 16 0 28 -4 25 -9z m-3106 -31 c0 -5 -5 -10 -11 -10 -5 0 -7 5
-4 10 3 6 8 10 11 10 2 0 4 -4 4 -10z m4550 1 c0 -5 9 -11 20 -14 21 -5 29
-47 9 -47 -6 0 -8 7 -5 15 4 11 1 15 -10 13 -9 -2 -20 7 -25 20 -5 13 -5 22 1
22 6 0 10 -4 10 -9z m-1469 -10 c-8 -5 -20 -7 -28 -4 -21 8 -15 13 15 13 20 0
23 -3 13 -9z m1424 -11 c3 -5 1 -10 -4 -10 -6 0 -11 5 -11 10 0 6 2 10 4 10 3
0 8 -4 11 -10z m-2728 -42 c-3 -8 -6 -5 -6 6 -1 11 2 17 5 13 3 -3 4 -12 1
-19z m1473 15 c-8 -3 -30 -12 -47 -19 -18 -7 -33 -9 -33 -4 0 10 47 28 75 28
14 0 15 -1 5 -5z m256 -21 c-31 -4 -41 2 -32 17 5 7 16 6 34 -2 l27 -12 -29
-3z m-433 2 c-2 -6 -17 -11 -33 -11 -16 0 -27 4 -24 8 2 4 -4 10 -13 12 -10 3
3 5 28 4 29 -1 45 -6 42 -13z m-386 -20 c-3 -3 -12 -4 -19 -1 -8 3 -5 6 6 6
11 1 17 -2 13 -5z m460 -18 c0 -10 -24 -13 -105 -14 -135 -1 -156 11 -32 19
52 3 104 6 116 7 12 1 21 -4 21 -12z m28 -61 c-20 -17 -43 -25 -67 -25 -21 0
-38 -4 -38 -10 0 -15 -33 -12 -55 4 -18 13 -16 15 30 21 109 14 125 17 125 26
0 5 8 9 18 9 13 -1 10 -6 -13 -25z m-3428 9 c-3 -3 -12 -4 -19 -1 -8 3 -5 6 6
6 11 1 17 -2 13 -5z m2925 -15 l33 -21 -33 6 c-18 3 -43 13 -55 21 l-21 15 22
0 c12 0 36 -9 54 -21z m622 7 c-3 -9 5 -15 26 -20 18 -3 35 -4 39 -1 4 2 8 -2
8 -10 0 -17 -33 -21 -39 -5 -4 13 -68 -7 -68 -21 0 -5 -4 -9 -10 -9 -15 0 -12
26 5 40 8 7 13 16 10 20 -3 5 1 11 7 13 22 9 28 7 22 -7z m-1234 -6 c0 -5 -7
-10 -16 -10 -8 0 -12 5 -9 10 3 6 10 10 16 10 5 0 9 -4 9 -10z m-1712 -7 c-10
-2 -28 -2 -40 0 -13 2 -5 4 17 4 22 1 32 -1 23 -4z m1672 -13 c0 -5 -4 -10
-10 -10 -5 0 -10 5 -10 10 0 6 5 10 10 10 6 0 10 -4 10 -10z m1489 -4 c13 -15
-4 -26 -40 -26 -24 0 -24 9 -1 26 22 17 27 17 41 0z m-1690 -41 c0 -5 -6 -1
-14 9 -8 11 -15 24 -15 30 0 5 7 1 15 -10 8 -10 14 -23 14 -29z m-1444 -7 c15
-6 11 -7 -14 -3 -18 3 -42 5 -52 5 -11 0 -19 4 -19 10 0 10 51 3 85 -12z
m2810 13 c21 -4 26 -9 17 -15 -16 -10 -79 1 -87 14 -7 11 23 11 70 1z m801 -1
c15 -6 24 -13 22 -16 -8 -8 -58 7 -58 17 0 11 3 11 36 -1z m-1211 -10 c-3 -5
-10 -10 -16 -10 -5 0 -9 5 -9 10 0 6 7 10 16 10 8 0 12 -4 9 -10z m155 0 c8
-5 11 -10 5 -10 -5 0 -17 5 -25 10 -8 5 -10 10 -5 10 6 0 17 -5 25 -10z
m-2395 -30 c-3 -5 -13 -10 -21 -10 -8 0 -14 5 -14 10 0 6 9 10 21 10 11 0 17
-4 14 -10z m3005 0 c0 -5 -4 -10 -10 -10 -5 0 -10 5 -10 10 0 6 5 10 10 10 6
0 10 -4 10 -10z m-1690 -21 c0 15 25 14 39 -3 9 -11 8 -15 -6 -20 -10 -4 -19
-2 -21 3 -2 6 -7 9 -12 6 -4 -3 -14 3 -21 13 -13 15 -12 16 4 3 11 -9 17 -10
17 -2z m1265 1 c-3 -5 -19 -10 -36 -10 -16 0 -29 5 -29 10 0 6 16 10 36 10 21
0 33 -4 29 -10z m368 -17 c-7 -2 -21 -2 -30 0 -10 3 -4 5 12 5 17 0 24 -2 18
-5z m-2563 -17 c0 -2 -9 -6 -20 -9 -11 -3 -20 -1 -20 4 0 5 9 9 20 9 11 0 20
-2 20 -4z m211 -5 c-11 -7 -9 -10 10 -14 13 -2 3 -5 -23 -6 -26 0 -50 -5 -53
-11 -3 -5 -18 -10 -33 -9 -16 0 -21 3 -12 6 8 3 26 10 40 15 20 7 22 11 10 18
-11 7 -2 10 30 10 30 0 40 -3 31 -9z m776 -3 c24 0 31 -3 22 -9 -22 -13 -79
-8 -79 8 0 8 5 11 11 8 6 -4 26 -7 46 -7z m1186 5 c-7 -2 -21 -2 -30 0 -10 3
-4 5 12 5 17 0 24 -2 18 -5z m-630 -13 c7 -6 25 -21 40 -35 15 -14 35 -25 43
-25 8 0 14 -10 14 -26 l0 -25 26 20 c15 11 31 17 38 13 7 -4 2 -8 -11 -10 -29
-4 -29 -8 5 -39 l27 -26 -80 6 c-67 5 -74 4 -42 -5 35 -9 36 -11 20 -24 -16
-12 -13 -13 27 -14 34 -1 40 -3 25 -10 -11 -5 -15 -9 -9 -9 5 -1 19 -8 30 -16
18 -14 17 -14 -13 -15 -23 0 -33 5 -38 20 -5 15 -19 21 -68 26 -34 4 -55 10
-47 13 17 7 20 28 5 39 -22 16 -9 37 25 42 23 3 36 11 38 23 3 16 1 17 -17 8
-14 -8 -22 -8 -27 1 -4 6 -2 14 4 16 25 8 10 21 -40 33 -47 11 -50 14 -28 20
36 10 40 10 53 -1z m1390 3 c-7 -2 -19 -2 -25 0 -7 3 -2 5 12 5 14 0 19 -2 13
-5z m-3053 -13 c0 -5 -2 -10 -4 -10 -3 0 -8 5 -11 10 -3 6 -1 10 4 10 6 0 11
-4 11 -10z m2702 -10 c-38 -24 -42 -24 -78 -8 l-28 13 30 6 c16 4 47 7 69 8
l40 1 -33 -20z m-3052 0 c0 -5 -4 -10 -10 -10 -5 0 -10 5 -10 10 0 6 5 10 10
10 6 0 10 -4 10 -10z m2647 4 c-3 -3 -12 -4 -19 -1 -8 3 -5 6 6 6 11 1 17 -2
13 -5z m-2525 -16 c-9 -9 -15 -9 -24 0 -9 9 -7 12 12 12 19 0 21 -3 12 -12z
m1319 2 c6 0 7 -4 4 -10 -10 -15 -32 -12 -39 6 -5 12 -2 15 10 10 8 -3 20 -6
25 -6z m709 6 c0 -2 -8 -10 -17 -17 -16 -13 -17 -12 -4 4 13 16 21 21 21 13z
m777 -2 c-3 -3 -12 -4 -19 -1 -8 3 -5 6 6 6 11 1 17 -2 13 -5z m-2502 -14
c-44 -11 -65 -11 -65 0 0 6 21 9 48 9 42 -1 44 -2 17 -9z m-235 -25 c5 -3 28
-6 52 -6 23 -1 58 -10 76 -20 18 -11 42 -19 53 -19 13 0 19 -6 18 -22 -1 -17
-2 -19 -6 -5 -5 19 -12 21 -33 7 -21 -13 -6 -23 35 -24 46 -1 45 -16 -1 -16
-20 0 -33 -4 -29 -10 3 -5 25 -7 48 -4 30 4 48 1 62 -10 19 -15 18 -15 -12
-10 -18 4 -46 1 -63 -6 -24 -10 -33 -10 -45 0 -12 10 -17 7 -26 -14 -10 -21
-19 -26 -51 -26 -26 0 -38 4 -38 14 0 11 -10 13 -39 9 -23 -3 -41 -1 -45 6 -5
7 2 11 16 12 22 1 21 2 -4 12 -16 6 -28 14 -28 19 0 12 38 10 45 -2 10 -16 23
-12 30 11 4 11 16 24 28 29 20 8 20 9 -6 9 -18 1 -27 6 -24 14 2 7 18 11 43 9
l39 -3 -27 14 c-14 8 -48 18 -75 22 -27 3 -55 10 -63 15 -10 6 -2 8 24 5 21
-3 42 -7 46 -10z m2013 8 c-7 -2 -19 -2 -25 0 -7 3 -2 5 12 5 14 0 19 -2 13
-5z m-1536 -19 c-3 -3 -12 -4 -19 -1 -8 3 -5 6 6 6 11 1 17 -2 13 -5z m783 -8
c0 -8 6 -17 13 -19 6 -3 -3 -6 -20 -6 -33 -1 -47 22 -20 32 21 9 27 7 27 -7z
m250 4 c0 -5 -9 -10 -20 -10 -11 0 -20 5 -20 10 0 6 9 10 20 10 11 0 20 -4 20
-10z m250 0 c0 -5 -7 -10 -16 -10 -8 0 -12 5 -9 10 3 6 10 10 16 10 5 0 9 -4
9 -10z m377 4 c-3 -3 -12 -4 -19 -1 -8 3 -5 6 6 6 11 1 17 -2 13 -5z m-762
-14 c3 -5 1 -10 -4 -10 -6 0 -11 5 -11 10 0 6 2 10 4 10 3 0 8 -4 11 -10z
m2505 0 c13 -9 13 -10 0 -11 -8 -1 -19 0 -25 1 -74 19 -73 18 -30 19 22 0 47
-4 55 -9z m-3880 -10 c0 -13 -20 -13 -40 0 -12 8 -9 10 13 10 15 0 27 -4 27
-10z m1568 3 c-10 -2 -26 -2 -35 0 -10 3 -2 5 17 5 19 0 27 -2 18 -5z m2205
-20 c-7 -2 -19 -2 -25 0 -7 3 -2 5 12 5 14 0 19 -2 13 -5z m67 3 c0 -2 -9 -6
-20 -9 -11 -3 -20 -1 -20 4 0 5 9 9 20 9 11 0 20 -2 20 -4z m99 -12 c2 -2 -10
-4 -27 -4 -18 0 -32 5 -32 10 0 9 47 4 59 -6z m41 6 c0 -5 -4 -10 -10 -10 -5
0 -10 5 -10 10 0 6 5 10 10 10 6 0 10 -4 10 -10z m-1552 -17 c-10 -2 -26 -2
-35 0 -10 3 -2 5 17 5 19 0 27 -2 18 -5z m-1198 -13 c0 -5 20 -10 44 -10 28 0
48 -6 57 -16 12 -15 11 -16 -9 -10 -13 5 -43 8 -68 8 -36 1 -44 5 -44 20 0 10
5 18 10 18 6 0 10 -4 10 -10z m2120 0 c0 -5 -7 -10 -16 -10 -8 0 -12 5 -9 10
3 6 10 10 16 10 5 0 9 -4 9 -10z m-3022 -7 c-10 -2 -26 -2 -35 0 -10 3 -2 5
17 5 19 0 27 -2 18 -5z m2002 -19 c0 -2 -21 -4 -46 -4 -25 0 -43 4 -40 8 4 7
86 4 86 -4z m-2525 -3 c17 -7 16 -8 -10 -13 -37 -7 -63 1 -43 13 16 10 26 10
53 0z m2864 -20 c-9 -13 -29 -17 -95 -18 -46 -1 -89 -5 -96 -9 -23 -15 28 -23
152 -24 190 -1 126 -20 -87 -24 -98 -3 -170 -2 -160 1 37 10 13 22 -60 28 -98
8 -124 19 -55 23 28 2 52 7 52 13 0 5 18 7 43 3 31 -4 38 -3 27 5 -12 8 -7 11
20 10 19 0 44 -4 55 -8 10 -4 37 -2 59 4 22 7 66 12 97 12 51 1 57 -1 48 -16z
m-1174 -1 c13 -5 -7 -7 -54 -5 -40 2 -76 6 -79 9 -9 9 111 5 133 -4z m515 0
c0 -5 -4 -10 -10 -10 -5 0 -10 5 -10 10 0 6 5 10 10 10 6 0 10 -4 10 -10z m57
-1 c-14 -8 -22 -8 -30 0 -8 8 -3 11 19 11 25 -1 27 -2 11 -11z m140 5 c-3 -3
-12 -4 -19 -1 -8 3 -5 6 6 6 11 1 17 -2 13 -5z m626 -11 c-18 -2 -33 -8 -33
-14 0 -5 -7 -9 -15 -9 -18 0 -20 16 -2 23 6 3 28 5 47 5 l35 -1 -32 -4z
m-2188 -31 c-3 -3 -11 0 -18 7 -9 10 -8 11 6 5 10 -3 15 -9 12 -12z m531 3
c-4 -11 1 -15 19 -15 14 0 25 -4 25 -9 0 -11 -26 -12 -80 -4 l-35 5 35 19 c43
22 43 22 36 4z m124 0 c0 -10 -11 -15 -35 -15 -24 0 -35 5 -35 15 0 10 11 15
35 15 24 0 35 -5 35 -15z m1885 -5 c8 -13 -5 -13 -25 0 -13 8 -13 10 2 10 9 0
20 -4 23 -10z m-3285 -4 c0 -3 -4 -8 -10 -11 -5 -3 -10 -1 -10 4 0 6 5 11 10
11 6 0 10 -2 10 -4z m1963 -3 c-7 -2 -19 -2 -25 0 -7 3 -2 5 12 5 14 0 19 -2
13 -5z m82 -23 c13 -5 14 -9 5 -9 -8 0 -24 4 -35 9 -13 5 -14 9 -5 9 8 0 24
-4 35 -9z m335 -11 c0 -11 -36 -12 -81 -2 l-34 8 40 5 c45 6 75 2 75 -11z
m-120 7 c0 -2 -11 -6 -25 -8 -13 -3 -22 -1 -19 3 5 9 44 13 44 5z m-855 -15
c14 0 25 -6 25 -12 0 -6 -18 -9 -45 -8 -56 4 -70 -8 -19 -16 108 -17 108 -23
4 -29 -76 -4 -176 17 -165 34 4 6 -4 10 -16 10 -12 0 -19 3 -15 8 8 7 128 18
179 16 15 -1 38 -2 52 -3z m582 3 c-3 -3 -12 -4 -19 -1 -8 3 -5 6 6 6 11 1 17
-2 13 -5z m-980 -10 c-3 -3 -12 -4 -19 -1 -8 3 -5 6 6 6 11 1 17 -2 13 -5z
m791 -11 c-10 -2 -28 -2 -40 0 -13 2 -5 4 17 4 22 1 32 -1 23 -4z m1017 -8
c17 -4 35 -11 40 -15 6 -5 21 -10 35 -13 15 -2 6 -5 -22 -6 -29 0 -48 4 -51
12 -3 9 -9 7 -24 -5 -23 -21 -55 -26 -35 -6 19 19 14 30 -7 19 -12 -7 -45 -8
-93 -2 -70 8 -71 9 -23 11 28 1 64 6 80 9 33 8 55 7 100 -4z m-1295 -10 c7 -9
19 -14 26 -11 7 3 16 1 19 -4 4 -6 -13 -10 -40 -10 -37 0 -46 3 -42 14 4 9 -1
17 -11 19 -10 3 -7 5 9 6 15 0 32 -6 39 -14z m1510 5 c0 -4 -10 -12 -22 -19
-20 -9 -20 -11 -3 -7 62 13 75 17 75 26 0 6 17 1 37 -10 21 -11 50 -20 64 -20
47 0 85 -11 96 -29 9 -15 6 -16 -22 -13 -18 2 -42 -1 -52 -7 -16 -9 -14 -10
13 -11 42 0 49 -11 22 -32 l-23 -18 24 0 c24 0 24 0 5 -15 -16 -12 -17 -16 -4
-24 12 -9 12 -11 -3 -17 -24 -9 -21 -24 6 -24 18 -1 16 -3 -11 -15 -19 -9 -31
-19 -27 -25 4 -6 13 -9 20 -6 7 2 21 -2 32 -9 17 -13 16 -14 -14 -15 -24 0
-33 -5 -33 -16 0 -11 -5 -14 -16 -10 -10 4 -14 1 -11 -6 2 -7 11 -12 19 -12
10 1 16 -7 16 -22 0 -18 -6 -24 -24 -24 -12 0 -25 4 -28 9 -3 4 -27 11 -53 15
-70 10 -74 10 -120 3 -24 -4 -43 -4 -43 1 0 4 46 17 103 27 l102 20 -100 3
c-63 2 -101 -1 -103 -8 -4 -12 -72 -14 -72 -1 0 5 16 12 35 15 49 10 54 26 7
26 -27 0 -42 5 -46 16 -5 13 -9 13 -32 -5 -15 -12 -30 -19 -33 -16 -3 4 1 10
8 14 21 13 -2 21 -53 19 -26 -1 -52 -8 -58 -15 -13 -17 -38 -17 -39 0 0 10 -2
10 -6 0 -2 -7 -11 -13 -19 -13 -8 0 -14 -4 -14 -9 0 -11 29 -23 41 -16 5 3 21
-1 36 -9 l28 -15 -30 -2 c-16 0 -50 0 -75 0 -33 1 -41 -1 -30 -8 11 -8 -19
-11 -101 -11 -95 0 -118 -3 -123 -15 -4 -13 9 -15 82 -16 59 -1 79 -4 62 -9
-23 -8 -23 -8 10 -11 19 -1 45 -2 58 -1 12 0 22 -5 22 -13 0 -7 12 -16 28 -18
15 -2 0 -5 -33 -6 -33 -1 -78 -6 -100 -10 -34 -7 -27 -9 45 -10 62 -1 92 -6
109 -17 22 -16 26 -16 51 -1 30 18 40 14 40 -18 0 -11 6 -27 12 -33 10 -10 6
-10 -20 -1 -18 6 -39 8 -47 5 -9 -3 -15 1 -15 10 0 13 -9 15 -52 10 -114 -13
-323 -17 -308 -7 8 6 47 11 85 11 49 0 65 3 55 10 -8 5 -10 10 -5 10 6 0 2 7
-8 14 -16 13 -15 15 14 25 18 6 43 11 55 11 13 0 24 5 24 11 0 9 -22 10 -77 5
-42 -3 -91 -6 -110 -6 -21 0 -32 -4 -31 -12 2 -9 -16 -13 -62 -14 -36 -1 -51
0 -35 3 31 4 70 19 94 37 11 9 9 12 -10 17 -23 7 -23 7 4 8 16 1 26 5 22 11
-3 5 8 16 25 25 16 8 30 19 30 24 0 5 9 11 21 14 15 4 19 2 15 -9 -4 -11 5
-14 40 -14 49 0 52 15 4 25 -17 4 -30 11 -30 17 0 6 -12 8 -28 5 -15 -3 -34
-2 -42 4 -8 5 -13 9 -10 10 3 0 46 5 95 9 50 5 115 14 145 20 30 5 120 11 200
11 83 1 134 5 120 9 -14 5 -37 8 -53 9 -15 1 -35 5 -45 10 -9 6 -30 13 -47 17
-26 7 -27 8 -8 11 12 3 31 -1 42 -6 11 -6 33 -11 50 -11 64 0 87 29 24 31 -42
1 -101 16 -70 18 10 1 15 6 12 11 -4 6 11 10 39 10 53 0 69 15 25 24 -36 7
-199 -4 -199 -13 0 -4 4 -11 10 -17 6 -6 -26 -9 -96 -7 -66 1 -103 -1 -99 -7
3 -6 18 -10 33 -11 24 -1 23 -2 -8 -9 -27 -7 -37 -5 -47 8 -21 28 -15 41 20
42 52 0 100 7 127 17 l25 10 -24 8 c-12 4 -37 4 -55 1 -58 -11 -186 -16 -186
-7 0 4 59 14 130 21 105 10 139 10 176 0 50 -14 249 -9 266 8 6 6 -3 14 -24
23 -31 13 -31 13 -9 19 36 8 101 8 101 0z m-817 -7 c-7 -2 -21 -2 -30 0 -10 3
-4 5 12 5 17 0 24 -2 18 -5z m74 1 c-3 -3 -12 -4 -19 -1 -8 3 -5 6 6 6 11 1
17 -2 13 -5z m56 -1 c-7 -2 -21 -2 -30 0 -10 3 -4 5 12 5 17 0 24 -2 18 -5z
m-2033 -13 c0 -5 -10 -10 -22 -9 -22 0 -22 1 -3 9 11 5 21 9 23 9 1 1 2 -3 2
-9z m37 4 c-3 -3 -12 -4 -19 -1 -8 3 -5 6 6 6 11 1 17 -2 13 -5z m1761 -21
c14 -23 14 -23 -29 -22 l-44 1 30 13 30 13 -25 11 -25 11 24 -3 c13 -1 30 -12
39 -24z m-1938 13 c0 -2 -7 -6 -15 -10 -8 -3 -15 -1 -15 4 0 6 7 10 15 10 8 0
15 -2 15 -4z m1665 -6 c-3 -5 -18 -10 -33 -9 l-27 1 25 8 c35 11 42 11 35 0z
m-1595 -16 c3 0 16 -6 30 -12 22 -11 16 -12 -37 -9 -35 2 -63 0 -63 -5 0 -4
-9 -8 -21 -8 -11 0 -17 -4 -14 -10 3 -5 1 -10 -4 -10 -6 0 -11 4 -11 9 0 4
-11 6 -25 3 -46 -8 -25 6 33 23 31 9 64 20 72 25 8 4 20 5 25 1 6 -3 12 -6 15
-7z m1967 0 c-3 -3 -12 -4 -19 -1 -8 3 -5 6 6 6 11 1 17 -2 13 -5z m1850 0
c-3 -3 -12 -4 -19 -1 -8 3 -5 6 6 6 11 1 17 -2 13 -5z m-2618 -36 c-6 -11 -17
-17 -27 -14 -9 3 -34 8 -54 12 -21 3 -35 11 -32 16 3 5 12 7 20 4 7 -3 15 -2
18 2 2 4 23 6 45 4 37 -4 40 -6 30 -24z m746 12 c4 -7 -3 -8 -22 -4 -38 9 -42
14 -10 14 14 0 29 -5 32 -10z m135 0 l55 -7 -50 -2 c-36 -1 -46 -4 -35 -11 11
-7 3 -10 -30 -10 -26 0 -51 -5 -57 -11 -7 -7 -19 -9 -27 -6 -19 8 -21 25 -3
24 41 -1 50 3 37 18 -11 13 -8 15 21 14 19 -1 59 -4 89 -9z m-850 -30 c0 -5
-4 -10 -10 -10 -5 0 -10 5 -10 10 0 6 5 10 10 10 6 0 10 -4 10 -10z m586 -15
c19 -14 19 -14 -1 -15 -11 0 -31 3 -44 7 -23 6 -23 7 -5 14 27 11 28 11 50 -6z
m367 3 c-17 -8 -29 -8 -45 0 -20 9 -18 11 22 11 40 0 42 -2 23 -11z m1574 6
c-3 -3 -12 -4 -19 -1 -8 3 -5 6 6 6 11 1 17 -2 13 -5z m-2617 -14 c0 -5 21
-10 48 -11 38 -1 42 -3 22 -9 -37 -11 -106 3 -95 20 8 13 25 13 25 0z m-438
-31 c-42 -38 -94 -38 -97 -1 -2 22 1 23 47 19 27 -2 51 0 54 5 3 4 11 8 17 8
7 0 -3 -14 -21 -31z m1833 11 c-3 -5 -10 -10 -16 -10 -5 0 -9 5 -9 10 0 6 7
10 16 10 8 0 12 -4 9 -10z m-1413 -10 c6 0 6 -6 -2 -15 -17 -21 -27 -19 -33 6
-4 15 -2 19 10 15 8 -3 19 -6 25 -6z m1268 -10 c-8 -16 -20 -20 -53 -19 -24 1
-32 4 -19 6 15 3 22 10 18 19 -4 10 4 14 30 14 32 0 34 -2 24 -20z m97 14 c-3
-3 -12 -4 -19 -1 -8 3 -5 6 6 6 11 1 17 -2 13 -5z m-1972 -16 c35 -11 37 -12
15 -16 -14 -2 -29 -8 -34 -13 -6 -5 33 -6 92 -3 68 3 102 2 102 -5 0 -6 -5
-11 -11 -11 -6 0 -8 -9 -4 -20 5 -16 2 -20 -17 -20 -21 -1 -22 -2 -5 -14 16
-12 16 -15 2 -29 -20 -21 -19 -27 5 -27 11 0 20 -4 20 -9 0 -6 -24 -12 -52
-14 -41 -3 -48 -5 -30 -11 12 -5 22 -17 22 -27 0 -11 6 -19 14 -19 26 0 28
-20 4 -29 -13 -6 -17 -10 -9 -10 11 -1 11 -4 1 -16 -9 -11 -16 -13 -24 -5 -13
13 -76 13 -76 0 0 -5 -10 -10 -23 -10 -13 0 -29 -6 -35 -12 -10 -10 -14 -8
-18 10 -4 12 -14 22 -23 22 -14 1 -14 2 2 14 23 18 22 29 -4 21 -12 -4 -19 -3
-16 1 3 5 -22 10 -55 12 -49 2 -59 0 -50 -10 8 -10 -1 -13 -44 -14 -30 -1 -54
2 -54 5 0 4 10 7 21 7 12 -1 24 5 26 12 3 8 -7 12 -29 13 -18 0 -42 5 -53 10
-13 6 20 7 95 4 84 -4 110 -3 98 5 -10 6 -24 10 -30 9 -31 -4 -59 2 -53 11 3
5 13 6 22 3 11 -4 14 -2 11 8 -5 16 -132 18 -254 4 -40 -4 -85 -4 -100 0 l-29
8 29 8 c16 4 42 5 59 2 21 -4 28 -3 23 5 -5 8 0 12 13 12 11 0 22 -4 25 -8 3
-4 40 -5 82 -1 43 4 81 6 85 3 11 -7 40 7 34 17 -3 4 10 11 30 15 50 9 52 21
5 26 -22 2 -42 -1 -45 -7 -3 -6 -7 -5 -11 3 -5 10 -10 10 -25 -4 -14 -13 -22
-14 -33 -5 -7 6 -21 8 -31 5 -15 -6 -15 -4 -4 14 11 18 23 21 89 21 41 0 102
4 135 9 l60 8 -50 8 c-77 12 -84 17 -45 31 45 17 104 18 155 3z m-625 -8 c12
-8 12 -10 -5 -10 -11 0 -27 5 -35 10 -12 8 -12 10 5 10 11 0 27 -5 35 -10z
m1917 4 c-3 -3 -12 -4 -19 -1 -8 3 -5 6 6 6 11 1 17 -2 13 -5z m81 -35 c-29
-9 -57 -15 -62 -11 -13 7 85 41 102 34 7 -2 -10 -13 -40 -23z m242 6 c0 -9 25
-12 91 -13 50 -1 94 -3 97 -6 3 -4 -45 -6 -106 -6 -94 0 -110 2 -106 15 5 12
-4 13 -48 10 l-53 -4 44 9 c24 5 46 11 48 14 9 8 33 -6 33 -19z m80 15 c-20
-13 -50 -13 -50 0 0 6 15 10 33 10 24 0 28 -3 17 -10z m265 0 c4 -6 -8 -10
-30 -10 -22 0 -34 4 -30 10 3 6 17 10 30 10 13 0 27 -4 30 -10z m-2632 -26
c26 -3 45 -10 42 -14 -3 -5 9 -11 26 -15 20 -5 28 -10 21 -17 -10 -10 -13 -9
-80 26 -18 10 -49 17 -70 16 -74 -4 -112 0 -112 11 0 11 32 9 173 -7z m345 10
c-9 -8 -137 -11 -132 -2 3 4 35 8 71 8 37 0 64 -3 61 -6z m2212 -4 c11 -7 2
-9 -30 -9 -37 1 -41 2 -20 9 34 11 33 11 50 0z m-1245 -14 c12 3 26 1 29 -5 5
-7 -4 -11 -23 -11 -17 0 -31 -4 -31 -10 0 -5 -16 -10 -35 -10 -19 0 -35 5 -35
10 0 6 5 10 10 10 6 0 10 7 10 15 0 11 5 12 26 5 14 -6 36 -7 49 -4z m620 4
c3 -5 1 -10 -4 -10 -6 0 -11 5 -11 10 0 6 2 10 4 10 3 0 8 -4 11 -10z m2035
-4 c0 -9 -30 -14 -35 -6 -4 6 3 10 14 10 12 0 21 -2 21 -4z m-1992 -35 c8 -4
14 -12 14 -16 0 -10 -23 -25 -39 -25 -7 0 -13 5 -13 10 0 6 7 10 16 10 8 0 13
4 10 9 -3 5 -28 7 -56 4 -31 -2 -50 0 -50 7 0 12 99 13 118 1z m272 -10 c20
-9 6 -10 -70 -6 -52 3 -99 10 -103 14 -12 12 145 5 173 -8z m-2227 -8 c-7 -2
-21 -2 -30 0 -10 3 -4 5 12 5 17 0 24 -2 18 -5z m1266 -9 c1 -1 0 -7 -3 -13
-5 -7 -15 -7 -32 1 -20 9 -27 8 -38 -7 -9 -13 -15 -15 -20 -6 -12 19 25 40 59
34 17 -3 32 -7 34 -9z m2386 6 c3 -5 -3 -10 -14 -10 -12 0 -21 5 -21 10 0 6 6
10 14 10 8 0 18 -4 21 -10z m-1987 -28 c2 -7 -2 -10 -12 -6 -9 3 -16 11 -16
16 0 13 23 5 28 -10z m602 -2 c-8 -5 -60 -9 -115 -8 -86 1 -92 2 -45 8 91 11
177 11 160 0z m1347 -14 c-5 -16 -37 -20 -50 -7 -9 9 -8 14 2 20 17 11 53 2
48 -13z m-3547 4 c0 -6 -28 -10 -62 -10 -45 0 -59 -3 -48 -10 13 -9 13 -10 0
-9 -8 0 -24 4 -35 9 -27 11 -6 18 65 23 30 2 61 4 68 5 6 1 12 -2 12 -8z
m1357 4 c-3 -3 -12 -4 -19 -1 -8 3 -5 6 6 6 11 1 17 -2 13 -5z m-183 -23 c7
-11 -22 -23 -35 -15 -5 3 -7 10 -4 15 8 12 32 12 39 0z m491 -1 c4 -6 -8 -10
-29 -10 -20 0 -36 5 -36 10 0 6 13 10 29 10 17 0 33 -4 36 -10z m305 0 c11 -7
6 -10 -20 -10 -26 0 -31 3 -20 10 8 5 17 10 20 10 3 0 12 -5 20 -10z m-1670
-10 c12 -8 11 -10 -7 -10 -13 0 -23 5 -23 10 0 13 11 13 30 0z m1183 -17 c-7
-2 -21 -2 -30 0 -10 3 -4 5 12 5 17 0 24 -2 18 -5z m-1276 -17 c4 -3 -23 -5
-59 -4 -36 2 -64 6 -61 11 5 9 110 3 120 -7z m926 7 c-7 -2 -19 -2 -25 0 -7 3
-2 5 12 5 14 0 19 -2 13 -5z m-1153 -35 c0 -13 -23 -5 -28 10 -2 7 2 10 12 6
9 -3 16 -11 16 -16z m1170 2 c-19 -12 -30 -12 -30 -1 0 10 31 20 40 14 2 -2
-2 -8 -10 -13z m1627 14 c-3 -3 -12 -4 -19 -1 -8 3 -5 6 6 6 11 1 17 -2 13 -5z
m186 -1 c-7 -2 -19 -2 -25 0 -7 3 -2 5 12 5 14 0 19 -2 13 -5z m-1106 -9 c-3
-3 -12 -4 -19 -1 -8 3 -5 6 6 6 11 1 17 -2 13 -5z m226 -11 c-7 -2 -19 -2 -25
0 -7 3 -2 5 12 5 14 0 19 -2 13 -5z m949 -14 c-37 -17 -37 -17 -8 -18 21 -1
27 -5 22 -17 -3 -9 -6 -20 -6 -25 0 -5 -12 -9 -27 -10 -16 0 -22 -3 -15 -6 6
-2 12 -11 12 -19 0 -10 -15 -14 -61 -14 -37 0 -58 -4 -54 -10 3 -5 37 -8 76
-7 38 2 64 0 58 -4 -6 -4 -8 -12 -4 -18 5 -8 -17 -11 -79 -10 -47 1 -86 6 -86
11 0 4 -9 8 -19 8 -26 0 -36 17 -14 23 14 4 14 5 -3 6 -12 0 -34 7 -48 15
l-27 14 48 7 c26 4 51 12 56 18 5 9 10 7 18 -5 11 -20 64 -24 89 -8 12 7 8 11
-19 16 -20 4 -36 14 -38 25 -3 10 -19 21 -37 25 -29 7 -30 8 -7 13 13 4 66 7
117 7 l94 0 -38 -17z m-1882 -9 c0 -13 -11 -13 -30 0 -12 8 -11 10 8 10 12 0
22 -4 22 -10z m740 -4 c0 -8 -11 -17 -25 -20 -14 -4 -23 -10 -20 -15 7 -13
-23 -22 -51 -15 -34 9 -30 24 6 24 19 0 30 5 30 14 0 13 16 22 48 25 6 0 12
-5 12 -13z m1957 8 c-3 -3 -12 -4 -19 -1 -8 3 -5 6 6 6 11 1 17 -2 13 -5z m63
-4 c-8 -5 -19 -10 -25 -10 -5 0 -3 5 5 10 8 5 20 10 25 10 6 0 3 -5 -5 -10z
m-3670 -30 c0 -5 -4 -10 -10 -10 -5 0 -10 5 -10 10 0 6 5 10 10 10 6 0 10 -4
10 -10z m1127 4 c-3 -3 -12 -4 -19 -1 -8 3 -5 6 6 6 11 1 17 -2 13 -5z m838
-4 c15 -6 8 -9 -27 -9 -26 -1 -50 -5 -53 -11 -3 -5 -17 -10 -30 -10 -13 0 -27
5 -30 10 -3 6 -25 11 -48 12 -27 1 -16 4 33 8 111 9 133 9 155 0z m-2085 -10
c0 -5 -5 -10 -11 -10 -5 0 -7 5 -4 10 3 6 8 10 11 10 2 0 4 -4 4 -10z m3600
-4 c0 -11 -19 -15 -25 -6 -3 5 1 10 9 10 9 0 16 -2 16 -4z m-3725 -16 c-28
-12 -37 -12 -30 0 3 6 16 10 28 9 21 0 21 -1 2 -9z m1195 -22 c0 -5 -9 -8 -20
-8 -13 0 -20 7 -20 20 0 18 2 19 20 8 11 -7 20 -16 20 -20z m-517 6 c-2 -7
-20 -12 -38 -12 -19 0 -38 -3 -44 -7 -6 -3 -11 -2 -11 3 0 5 10 14 23 20 29
14 76 12 70 -4z m1247 -5 c0 -11 -21 -12 -45 -3 -12 5 -13 9 -5 14 15 9 50 1
50 -11z m-2060 -4 c14 -16 10 -18 -14 -9 -9 3 -16 10 -16 15 0 14 16 11 30 -6z
m52 3 c3 -7 30 -15 64 -18 34 -3 57 -9 54 -15 -12 -24 -140 9 -140 36 0 13 18
11 22 -3z m353 -8 c8 -13 -35 -13 -55 0 -11 7 -7 10 17 10 17 0 35 -4 38 -10z
m1903 -22 c47 -8 66 -8 71 0 4 6 53 14 114 18 88 6 107 5 107 -7 0 -24 53 -42
84 -28 20 10 38 9 83 -1 69 -17 53 -26 -19 -10 -36 7 -54 8 -56 0 -2 -6 -48
-10 -118 -10 -81 0 -113 3 -108 11 4 8 -30 9 -122 4 -145 -7 -217 2 -222 27
-4 20 28 26 83 16 22 -5 69 -13 103 -20z m-1575 2 c28 0 46 -4 42 -9 -3 -6
-42 -9 -86 -7 -83 3 -121 -10 -47 -17 25 -2 8 -4 -38 -5 -65 -2 -83 1 -88 13
-3 8 -12 15 -20 15 -8 0 -17 4 -21 9 -3 6 36 8 102 6 60 -3 130 -5 156 -5z
m857 -10 c0 -11 -2 -20 -4 -20 -2 0 -6 9 -9 20 -3 11 -1 20 4 20 5 0 9 -9 9
-20z m101 7 c-1 -12 -15 -9 -19 4 -3 6 1 10 8 8 6 -3 11 -8 11 -12z m162 6
c-7 -2 -21 -2 -30 0 -10 3 -4 5 12 5 17 0 24 -2 18 -5z m44 -9 c-3 -3 -12 -4
-19 -1 -8 3 -5 6 6 6 11 1 17 -2 13 -5z m213 -4 c0 -5 -5 -10 -11 -10 -5 0 -7
5 -4 10 3 6 8 10 11 10 2 0 4 -4 4 -10z m-1861 -26 c2 -2 -27 -3 -65 -3 -53 1
-62 3 -39 9 27 7 94 3 104 -6z m86 6 c8 -13 -5 -13 -25 0 -13 8 -13 10 2 10 9
0 20 -4 23 -10z m1738 -7 c-24 -2 -62 -2 -85 0 -24 2 -5 4 42 4 47 0 66 -2 43
-4z m-2202 -411 c48 -21 119 -77 119 -94 0 -19 -73 -98 -90 -98 -10 0 -23 7
-31 16 -24 29 -93 57 -139 57 -106 1 -206 -100 -225 -225 -14 -91 37 -198 119
-252 76 -50 143 -47 227 10 l52 35 44 -43 c24 -23 43 -50 43 -60 0 -24 -83
-83 -144 -104 -71 -24 -205 -16 -271 16 -151 73 -238 259 -207 442 25 144 124
268 245 308 77 25 189 22 258 -8z m1354 -3 c54 -14 127 -75 158 -133 18 -34
22 -57 22 -136 0 -109 -19 -158 -86 -220 l-38 -36 65 -109 c35 -61 64 -113 64
-117 0 -5 -37 -8 -82 -8 l-83 0 -60 108 c-59 106 -61 107 -101 112 l-42 5 25
68 25 67 42 0 c52 0 98 28 119 73 22 46 21 85 -3 125 -32 52 -74 72 -152 72
l-68 0 0 -315 0 -315 -70 0 -70 0 0 385 0 385 146 0 c80 0 165 -5 189 -11z
m620 0 c54 -14 127 -75 158 -133 18 -34 22 -57 22 -136 0 -109 -19 -158 -86
-220 l-38 -36 65 -109 c35 -61 64 -113 64 -117 0 -5 -37 -8 -82 -8 l-83 0 -60
108 c-59 106 -61 107 -101 112 l-42 5 25 68 25 67 42 0 c52 0 98 28 119 73 22
46 21 85 -3 125 -32 52 -74 72 -152 72 l-68 0 0 -315 0 -315 -70 0 -70 0 0
385 0 385 146 0 c80 0 165 -5 189 -11z m415 -374 l0 -385 -70 0 -70 0 0 385 0
385 70 0 70 0 0 -385z m499 369 c105 -29 188 -109 232 -223 30 -77 31 -212 2
-293 -39 -107 -111 -182 -211 -221 -44 -18 -252 -25 -252 -9 0 4 10 35 23 67
l23 60 70 6 c81 6 119 24 164 75 70 80 83 182 36 278 -47 97 -119 135 -253
136 l-83 0 0 -315 0 -315 -70 0 -70 0 0 385 0 385 167 0 c121 0 182 -4 222
-16z m855 -349 c81 -201 150 -375 153 -386 5 -19 1 -20 -72 -17 l-78 3 -108
265 c-59 146 -111 271 -116 278 -7 12 -56 -97 -118 -260 -6 -16 1 -18 78 -18
l84 0 27 -61 c14 -33 26 -66 26 -72 0 -9 -39 -12 -141 -12 l-141 0 -26 -62
-26 -63 -79 0 c-59 0 -78 3 -74 13 3 6 71 174 152 372 81 198 149 366 152 373
4 8 30 12 82 12 l76 0 149 -365z m-3022 318 c248 -117 309 -444 122 -652 -45
-50 -81 -71 -93 -55 -3 5 -15 14 -26 20 -17 10 -20 21 -19 81 1 38 7 80 14 92
10 20 8 28 -16 63 -15 22 -38 47 -50 57 -22 18 -22 18 -6 65 16 46 18 47 50
42 26 -4 32 -1 32 13 0 10 -7 24 -15 31 -8 7 -15 27 -15 44 0 18 -6 38 -12 44
-9 9 -10 17 -2 30 7 11 7 29 2 50 -7 26 -13 32 -36 32 -35 0 -52 -16 -52 -51
0 -30 -13 -43 -53 -53 -15 -3 -41 -19 -58 -34 l-31 -28 26 -52 c15 -29 24 -58
20 -63 -4 -6 0 -15 7 -20 15 -9 22 -68 9 -84 -4 -5 -11 -25 -15 -43 -5 -23
-18 -40 -46 -58 -21 -13 -39 -29 -39 -34 0 -5 -16 -20 -35 -32 -32 -21 -35
-27 -33 -62 4 -51 20 -56 37 -11 9 27 31 48 85 84 40 28 85 64 100 82 l28 33
34 -19 c26 -14 33 -23 28 -37 -3 -10 -7 -54 -9 -98 -3 -79 -3 -79 24 -83 14
-2 -61 -5 -167 -6 l-193 -1 -50 50 c-29 29 -63 78 -82 118 -30 63 -32 74 -32
177 0 98 3 116 27 167 31 68 105 149 166 185 70 41 119 53 217 50 78 -2 99 -6
157 -34z m-172 -260 c-1 -44 -2 -47 -15 -29 -20 26 -20 76 0 76 11 0 15 -12
15 -47z m3149 -632 c34 -11 87 -38 117 -61 l56 -42 -48 -49 c-27 -27 -52 -49
-57 -49 -4 0 -23 11 -40 24 -169 126 -404 -33 -371 -250 10 -66 61 -143 118
-179 43 -26 59 -30 122 -30 66 0 77 3 118 33 26 17 50 32 54 32 4 0 30 -22 56
-49 l48 -49 -60 -45 c-150 -110 -336 -99 -473 30 -167 156 -168 439 -1 595
107 100 229 130 361 89z m-3757 -33 c115 -54 195 -160 219 -291 32 -172 -60
-352 -219 -425 -48 -22 -75 -27 -164 -30 -124 -5 -121 -8 -84 84 l24 59 75 5
c60 5 85 12 122 35 147 92 146 319 0 410 -45 28 -56 30 -162 33 l-113 4 -2
-314 -3 -313 -67 -3 -68 -3 0 391 0 392 193 -4 c184 -3 194 -4 249 -30z m458
-210 c0 -147 5 -259 11 -283 32 -114 172 -161 260 -88 64 54 69 79 69 361 l0
253 68 -3 67 -3 0 -275 0 -275 -26 -56 c-33 -69 -95 -134 -158 -162 -68 -32
-179 -30 -245 2 -66 33 -122 91 -155 160 -26 55 -26 59 -29 319 -2 145 -1 270
2 278 4 10 24 14 71 14 l65 0 0 -242z m1207 219 c55 -30 103 -78 131 -131 36
-70 37 -179 3 -246 -55 -106 -125 -151 -249 -158 -46 -3 -87 -1 -92 4 -4 5 3
39 17 77 l25 67 47 0 c102 0 167 96 126 184 -27 57 -68 76 -164 76 l-81 0 -2
-312 -3 -313 -67 -3 -68 -3 0 391 0 392 173 -4 c141 -2 178 -6 204 -21z m738
-357 c88 -209 159 -383 158 -387 -2 -5 -35 -8 -75 -8 l-71 0 -121 287 c-67
158 -123 288 -126 288 -3 0 -33 -67 -66 -148 l-62 -147 88 -3 87 -3 27 -62
c14 -34 26 -68 26 -74 0 -10 -36 -13 -147 -13 l-148 0 -26 -63 -25 -62 -75 0
c-60 0 -73 3 -71 15 2 8 74 183 160 387 l157 373 75 -1 75 0 160 -379z m635
348 c98 -57 145 -140 144 -253 0 -89 -28 -154 -90 -211 l-45 -42 70 -115 c38
-63 67 -118 64 -121 -4 -3 -40 -6 -82 -6 l-76 1 -63 109 c-64 110 -64 110
-102 110 -21 0 -41 3 -43 8 -3 4 6 37 20 75 l25 67 45 0 c63 0 101 23 125 76
21 49 18 89 -10 132 -25 39 -64 52 -151 52 l-81 0 -2 -312 -3 -313 -67 -3 -68
-3 0 391 0 392 173 -4 c165 -3 174 -4 217 -30z"/>
<path d="M2290 4510 c0 -5 5 -10 11 -10 5 0 7 5 4 10 -3 6 -8 10 -11 10 -2 0
-4 -4 -4 -10z"/>
<path d="M4548 4663 c7 -3 16 -2 19 1 4 3 -2 6 -13 5 -11 0 -14 -3 -6 -6z"/>
<path d="M4548 4543 c7 -3 16 -2 19 1 4 3 -2 6 -13 5 -11 0 -14 -3 -6 -6z"/>
<path d="M1112 4397 c18 -18 58 -23 58 -7 0 6 -9 10 -19 10 -11 0 -28 3 -38 7
-17 6 -17 6 -1 -10z"/>
<path d="M2770 3930 c-24 -6 -24 -6 9 -18 39 -14 90 -16 76 -4 -21 18 -61 28
-85 22z"/>
<path d="M2673 3918 c2 -7 16 -13 32 -13 16 0 30 6 33 13 2 8 -8 12 -33 12
-25 0 -35 -4 -32 -12z"/>
<path d="M2800 3850 c0 -5 15 -10 34 -10 19 0 38 5 41 10 4 6 -10 10 -34 10
-23 0 -41 -4 -41 -10z"/>
<path d="M2887 3728 c-8 -5 -8 -8 2 -8 8 0 22 -7 32 -16 13 -12 22 -13 37 -5
11 6 22 8 24 5 3 -3 8 3 10 14 4 16 -1 18 -44 17 -28 0 -55 -3 -61 -7z"/>
<path d="M2858 3698 c8 -8 17 -8 34 0 22 10 21 11 -11 11 -27 1 -32 -2 -23
-11z"/>
<path d="M2830 3640 c0 -5 5 -10 10 -10 6 0 10 5 10 10 0 6 -4 10 -10 10 -5 0
-10 -4 -10 -10z"/>
<path d="M2930 3505 c0 -8 5 -15 10 -15 6 0 10 7 10 15 0 8 -4 15 -10 15 -5 0
-10 -7 -10 -15z"/>
<path d="M2820 3495 c14 -16 13 -17 -7 -11 -12 4 -24 2 -28 -4 -4 -6 10 -10
39 -10 46 0 61 12 29 24 -10 3 -25 9 -33 13 -13 6 -13 4 0 -12z"/>
<path d="M2958 3473 c7 -3 16 -2 19 1 4 3 -2 6 -13 5 -11 0 -14 -3 -6 -6z"/>
<path d="M3800 4065 c0 -8 2 -15 4 -15 2 0 6 7 10 15 3 8 1 15 -4 15 -6 0 -10
-7 -10 -15z"/>
<path d="M3318 4063 c7 -3 16 -2 19 1 4 3 -2 6 -13 5 -11 0 -14 -3 -6 -6z"/>
<path d="M3365 3950 c27 -11 45 -12 45 -2 0 5 -15 9 -32 9 -27 1 -29 -1 -13
-7z"/>
<path d="M3360 3930 c0 -5 5 -10 11 -10 5 0 7 5 4 10 -3 6 -8 10 -11 10 -2 0
-4 -4 -4 -10z"/>
<path d="M4440 4000 c0 -5 7 -10 16 -10 8 0 12 5 9 10 -3 6 -10 10 -16 10 -5
0 -9 -4 -9 -10z"/>
<path d="M4446 3912 c-4 -6 17 -12 56 -14 62 -4 76 -2 67 7 -11 11 -117 17
-123 7z"/>
<path d="M4438 3739 c-32 -12 -43 -34 -17 -36 11 -1 16 3 13 11 -3 9 5 13 26
13 31 0 40 -11 18 -21 -7 -3 20 -4 59 -3 78 2 101 16 31 19 -37 1 -39 2 -10 5
17 2 32 8 32 14 0 12 -117 10 -152 -2z"/>
<path d="M4645 3740 c-3 -5 -1 -10 4 -10 6 0 11 5 11 10 0 6 -2 10 -4 10 -3 0
-8 -4 -11 -10z"/>
<path d="M4588 3673 c6 -2 18 -2 25 0 6 3 1 5 -13 5 -14 0 -19 -2 -12 -5z"/>
<path d="M4395 3660 c-3 -5 3 -10 15 -10 12 0 18 5 15 10 -3 6 -10 10 -15 10
-5 0 -12 -4 -15 -10z"/>
<path d="M4450 3630 c0 -13 60 -13 80 0 11 7 2 10 -32 10 -27 0 -48 -4 -48
-10z"/>
<path d="M4595 3630 c3 -5 12 -10 20 -10 8 0 17 5 20 10 4 6 -5 10 -20 10 -15
0 -24 -4 -20 -10z"/>
<path d="M4485 3591 c3 -5 -3 -12 -12 -14 -11 -3 -7 -5 10 -6 16 0 26 3 22 8
-3 5 5 12 17 14 17 3 14 5 -10 6 -18 0 -31 -3 -27 -8z"/>
<path d="M4350 3567 c0 -9 5 -19 10 -22 6 -3 10 -1 10 4 0 19 22 12 27 -10 4
-12 11 -18 20 -15 8 3 24 6 34 6 11 0 17 5 14 10 -3 6 -16 10 -28 10 -18 0
-19 2 -7 10 13 8 13 10 -1 10 -9 0 -31 3 -48 6 -24 5 -31 3 -31 -9z"/>
<path d="M4545 3570 c-4 -6 9 -10 32 -10 28 0 34 3 23 10 -20 13 -47 13 -55 0z"/>
<path d="M4485 3540 c-3 -5 1 -10 9 -10 9 0 16 5 16 10 0 6 -4 10 -9 10 -6 0
-13 -4 -16 -10z"/>
<path d="M4428 3433 c-31 -5 -38 -23 -9 -23 36 0 81 13 75 21 -5 9 -17 9 -66
2z"/>
<path d="M4587 3398 c2 -5 17 -8 34 -8 16 0 29 -4 29 -10 0 -5 7 -10 16 -10 9
0 14 7 12 18 -3 13 -13 17 -50 17 -25 0 -44 -3 -41 -7z"/>
<path d="M4480 3340 c8 -5 26 -10 40 -10 20 0 22 2 10 10 -8 5 -26 10 -40 10
-20 0 -22 -2 -10 -10z"/>
<path d="M4524 3252 c5 -8 76 -4 76 4 0 2 -18 4 -41 4 -22 0 -38 -4 -35 -8z"/>
<path d="M4493 3149 c11 -7 23 -7 35 0 14 9 11 10 -18 10 -29 0 -32 -1 -17
-10z"/>
<path d="M4498 3083 c7 -3 16 -2 19 1 4 3 -2 6 -13 5 -11 0 -14 -3 -6 -6z"/>
<path d="M4438 2953 c6 -2 18 -2 25 0 6 3 1 5 -13 5 -14 0 -19 -2 -12 -5z"/>
<path d="M4430 2746 c0 -2 7 -6 15 -10 8 -3 15 -1 15 4 0 6 -7 10 -15 10 -8 0
-15 -2 -15 -4z"/>
<path d="M4330 2555 c0 -8 7 -15 15 -15 8 0 15 7 15 15 0 8 -7 15 -15 15 -8 0
-15 -7 -15 -15z"/>
<path d="M2353 3763 c9 -2 25 -2 35 0 9 3 1 5 -18 5 -19 0 -27 -2 -17 -5z"/>
<path d="M2243 3653 c9 -2 25 -2 35 0 9 3 1 5 -18 5 -19 0 -27 -2 -17 -5z"/>
<path d="M1286 3784 c-3 -8 -17 -14 -31 -14 -15 0 -33 -7 -41 -15 -14 -13 -12
-15 20 -15 19 0 47 5 63 12 15 6 37 13 47 15 42 8 36 18 -16 26 -26 4 -38 2
-42 -9z"/>
<path d="M1761 3790 c-72 -8 -64 -30 11 -30 35 0 58 4 52 8 -6 4 -13 12 -15
17 -2 6 -23 8 -48 5z"/>
<path d="M1160 3770 c0 -5 9 -10 19 -10 11 0 23 5 26 10 4 6 -5 10 -19 10 -14
0 -26 -4 -26 -10z"/>
<path d="M1451 3768 c-10 -11 13 -16 111 -26 180 -19 247 -23 223 -13 -42 18
-118 31 -180 31 -37 0 -65 4 -65 10 0 14 -74 12 -89 -2z"/>
<path d="M1103 3763 c9 -2 23 -2 30 0 6 3 -1 5 -18 5 -16 0 -22 -2 -12 -5z"/>
<path d="M1015 3751 c-3 -5 -1 -12 5 -16 13 -8 50 3 50 16 0 12 -47 12 -55 0z"/>
<path d="M953 3743 c9 -2 23 -2 30 0 6 3 -1 5 -18 5 -16 0 -22 -2 -12 -5z"/>
<path d="M1320 3725 c7 -8 17 -15 22 -15 6 0 5 7 -2 15 -7 8 -17 15 -22 15 -6
0 -5 -7 2 -15z"/>
<path d="M1555 3720 c-4 -6 11 -10 37 -9 36 1 39 2 18 9 -36 11 -48 11 -55 0z"/>
<path d="M1248 3703 c6 -2 18 -2 25 0 6 3 1 5 -13 5 -14 0 -19 -2 -12 -5z"/>
<path d="M1702 3688 c6 -16 42 -22 77 -12 l26 7 -30 7 c-50 12 -77 11 -73 -2z"/>
<path d="M1632 3673 c-12 -2 -20 -9 -17 -14 8 -12 95 -12 95 1 0 6 -6 10 -14
10 -8 0 -20 2 -28 4 -7 2 -23 1 -36 -1z"/>
<path d="M962 3649 c2 -6 8 -10 13 -10 5 0 11 4 13 10 2 6 -4 11 -13 11 -9 0
-15 -5 -13 -11z"/>
<path d="M1093 3653 c-29 -2 -53 -8 -53 -14 0 -15 83 -10 104 6 11 8 16 14 10
13 -5 -1 -33 -3 -61 -5z"/>
<path d="M1615 3630 c28 -12 73 -12 80 0 4 6 -14 10 -47 9 -39 0 -48 -3 -33
-9z"/>
<path d="M1780 3620 c0 -5 14 -10 30 -10 17 0 30 5 30 10 0 6 -13 10 -30 10
-16 0 -30 -4 -30 -10z"/>
<path d="M1850 3600 c0 -5 5 -10 10 -10 6 0 10 5 10 10 0 6 -4 10 -10 10 -5 0
-10 -4 -10 -10z"/>
<path d="M1535 3580 c-3 -5 1 -10 10 -10 9 0 13 5 10 10 -3 6 -8 10 -10 10 -2
0 -7 -4 -10 -10z"/>
<path d="M1450 3550 c0 -5 5 -10 10 -10 6 0 10 5 10 10 0 6 -4 10 -10 10 -5 0
-10 -4 -10 -10z"/>
<path d="M1620 3540 c0 -5 -13 -7 -30 -3 -25 5 -29 3 -24 -11 7 -18 64 -23 64
-6 0 6 10 15 23 20 21 8 21 9 -5 9 -16 1 -28 -3 -28 -9z"/>
<path d="M1691 3534 c0 -11 3 -14 6 -6 3 7 2 16 -1 19 -3 4 -6 -2 -5 -13z"/>
<path d="M1771 3546 c2 -2 22 -6 44 -10 29 -5 36 -4 25 3 -13 10 -79 16 -69 7z"/>
<path d="M1790 3510 c0 -5 5 -10 10 -10 6 0 10 5 10 10 0 6 -4 10 -10 10 -5 0
-10 -4 -10 -10z"/>
<path d="M1738 3503 c6 -2 18 -2 25 0 6 3 1 5 -13 5 -14 0 -19 -2 -12 -5z"/>
<path d="M1020 3478 c0 -15 87 -13 124 3 15 6 -1 8 -51 7 -40 -1 -73 -6 -73
-10z"/>
<path d="M1050 3430 c0 -5 5 -10 10 -10 6 0 10 5 10 10 0 6 -4 10 -10 10 -5 0
-10 -4 -10 -10z"/>
<path d="M1808 3423 c7 -3 16 -2 19 1 4 3 -2 6 -13 5 -11 0 -14 -3 -6 -6z"/>
<path d="M1704 3396 c-10 -8 -16 -17 -12 -21 12 -13 73 -12 91 1 18 12 18 13
-1 23 -28 15 -54 14 -78 -3z"/>
<path d="M1616 3381 c-3 -5 5 -11 19 -13 20 -4 23 -3 14 8 -13 16 -25 18 -33
5z"/>
<path d="M1830 3362 c-51 -5 -58 -19 -10 -19 22 0 43 4 46 9 8 13 4 14 -36 10z"/>
<path d="M1595 3320 c-16 -7 -12 -9 18 -9 23 -1 36 3 32 9 -7 12 -23 12 -50 0z"/>
<path d="M1620 3290 c-12 -8 -10 -10 10 -10 14 0 32 5 40 10 12 8 10 10 -10
10 -14 0 -32 -5 -40 -10z"/>
<path d="M1709 3289 c16 -6 28 -6 35 1 7 7 -1 10 -24 9 -33 0 -34 -1 -11 -10z"/>
<path d="M1840 3211 c0 -14 56 -24 90 -16 17 4 28 11 24 16 -7 12 -114 12
-114 0z"/>
<path d="M1748 3153 c7 -3 16 -2 19 1 4 3 -2 6 -13 5 -11 0 -14 -3 -6 -6z"/>
<path d="M1620 3132 c-52 -3 -98 -22 -54 -22 15 0 16 -2 4 -10 -18 -11 -13
-16 29 -25 29 -6 33 -5 28 9 -5 11 -1 16 13 16 10 0 22 5 25 10 10 17 44 11
57 -10 7 -11 20 -20 28 -20 13 0 13 1 0 10 -12 8 -12 10 -1 10 11 0 10 5 -4
20 -11 12 -28 19 -44 18 -15 -2 -51 -4 -81 -6z"/>
<path d="M1578 3033 c7 -3 16 -2 19 1 4 3 -2 6 -13 5 -11 0 -14 -3 -6 -6z"/>
<path d="M1651 3016 c11 -10 89 -15 89 -6 0 5 -21 10 -47 10 -25 0 -44 -2 -42
-4z"/>
<path d="M2870 3290 c0 -5 9 -10 21 -10 11 0 17 5 14 10 -3 6 -13 10 -21 10
-8 0 -14 -4 -14 -10z"/>
<path d="M1040 3218 c0 -4 8 -8 18 -8 10 0 23 -5 30 -12 8 -8 12 -8 12 -1 0 6
-6 15 -12 20 -16 12 -48 13 -48 1z"/>
<path d="M1070 3170 c0 -5 5 -10 10 -10 6 0 10 5 10 10 0 6 -4 10 -10 10 -5 0
-10 -4 -10 -10z"/>
<path d="M3925 3010 c-60 -5 -60 -5 -18 -11 22 -4 56 -4 75 0 49 10 13 17 -57
11z"/>
<path d="M3920 2840 c0 -6 11 -8 28 -4 39 10 40 14 4 14 -18 0 -32 -5 -32 -10z"/>
<path d="M3423 2823 c-30 -11 -9 -23 42 -23 30 0 55 5 55 10 0 6 -13 10 -29
10 -16 0 -35 2 -43 4 -7 3 -19 2 -25 -1z"/>
<path d="M1765 2930 c-3 -5 -1 -10 4 -10 6 0 11 5 11 10 0 6 -2 10 -4 10 -3 0
-8 -4 -11 -10z"/>
<path d="M1768 2863 c7 -3 16 -2 19 1 4 3 -2 6 -13 5 -11 0 -14 -3 -6 -6z"/>
<path d="M1448 2783 c6 -2 18 -2 25 0 6 3 1 5 -13 5 -14 0 -19 -2 -12 -5z"/>
<path d="M1665 2750 c-8 -14 3 -30 21 -30 18 0 18 8 0 26 -9 9 -17 10 -21 4z"/>
<path d="M1485 2741 c15 -15 138 -32 149 -21 16 16 0 22 -81 26 -51 3 -74 1
-68 -5z"/>
<path d="M1680 2690 c0 -5 13 -10 29 -10 17 0 33 5 36 10 4 6 -8 10 -29 10
-20 0 -36 -4 -36 -10z"/>
<path d="M1605 2630 c-3 -5 1 -10 9 -10 9 0 16 5 16 10 0 6 -4 10 -9 10 -6 0
-13 -4 -16 -10z"/>
<path d="M4008 2513 c6 -2 18 -2 25 0 6 3 1 5 -13 5 -14 0 -19 -2 -12 -5z"/>
<path d="M47 4783 c-9 -9 -9 -43 1 -43 15 0 62 37 55 43 -8 9 -48 9 -56 0z"/>
<path d="M3280 4760 c0 -5 5 -10 10 -10 6 0 10 5 10 10 0 6 -4 10 -10 10 -5 0
-10 -4 -10 -10z"/>
<path d="M28 4707 c-20 -15 -31 -64 -18 -72 14 -9 100 5 100 17 0 5 -14 8 -32
6 -25 -2 -33 1 -36 16 -2 10 1 22 8 26 7 4 8 10 3 13 -6 4 -17 1 -25 -6z"/>
<path d="M698 4682 c-32 -4 -35 -13 -10 -29 15 -9 21 -7 31 9 15 24 14 24 -21
20z"/>
<path d="M134 4665 c3 -9 6 -19 6 -21 0 -2 9 -4 20 -4 11 0 19 6 18 13 -2 7 8
12 24 12 52 0 37 12 -18 14 -49 2 -56 0 -50 -14z"/>
<path d="M625 4670 c-3 -5 1 -10 9 -10 9 0 16 5 16 10 0 6 -4 10 -9 10 -6 0
-13 -4 -16 -10z"/>
<path d="M2 4593 c2 -20 9 -29 25 -31 29 -4 29 1 -3 33 l-25 25 3 -27z"/>
<path d="M425 4600 l-20 -9 20 -1 c11 -1 30 -3 43 -4 25 -3 30 9 6 18 -19 7
-24 7 -49 -4z"/>
<path d="M625 4600 c3 -5 8 -10 11 -10 2 0 4 5 4 10 0 6 -5 10 -11 10 -5 0 -7
-4 -4 -10z"/>
<path d="M287 4560 c3 -11 17 -23 32 -26 14 -3 34 -8 44 -11 11 -3 17 1 17 12
0 9 -6 15 -12 13 -21 -3 -59 13 -53 23 4 5 -3 9 -13 9 -15 0 -19 -5 -15 -20z"/>
<path d="M0 4535 c0 -16 16 -20 24 -6 3 5 -1 11 -9 15 -9 3 -15 0 -15 -9z"/>
<path d="M0 4490 c0 -23 10 -26 28 -8 18 18 15 28 -8 28 -13 0 -20 -7 -20 -20z"/>
<path d="M2965 4500 c-3 -6 1 -7 9 -4 18 7 21 14 7 14 -6 0 -13 -4 -16 -10z"/>
<path d="M3960 4471 c0 -4 11 -6 25 -3 14 2 25 6 25 8 0 2 -11 4 -25 4 -14 0
-25 -4 -25 -9z"/>
<path d="M3400 4413 c0 -14 112 -25 124 -13 7 7 -3 10 -26 10 -19 0 -50 3 -67
6 -18 4 -31 2 -31 -3z"/>
<path d="M3333 4333 c9 -2 23 -2 30 0 6 3 -1 5 -18 5 -16 0 -22 -2 -12 -5z"/>
<path d="M268 4273 c7 -3 16 -2 19 1 4 3 -2 6 -13 5 -11 0 -14 -3 -6 -6z"/>
<path d="M278 4230 c-9 -13 -19 -18 -35 -14 -14 4 -23 2 -23 -6 0 -7 -8 -9
-20 -5 -26 8 -25 -5 3 -32 13 -12 43 -24 69 -28 39 -6 48 -4 56 12 9 14 13 16
23 6 11 -11 10 -13 0 -13 -11 0 -11 -3 -1 -15 13 -16 42 -20 54 -8 4 4 -3 15
-16 25 -22 17 -19 17 95 11 87 -4 117 -3 117 6 0 20 -29 24 -86 14 -63 -11
-104 3 -123 43 -9 22 -13 23 -32 12 -17 -10 -23 -10 -26 0 -7 19 -41 14 -55
-8z m52 -44 c-25 -15 -45 -12 -35 5 4 5 18 9 33 9 l27 -1 -25 -13z"/>
<path d="M528 4203 c7 -3 16 -2 19 1 4 3 -2 6 -13 5 -11 0 -14 -3 -6 -6z"/>
<path d="M0 4143 c0 -12 8 -14 45 -9 34 6 45 4 45 -6 0 -10 3 -9 9 2 15 22 6
26 -49 28 -39 1 -50 -3 -50 -15z"/>
<path d="M186 4139 c3 -5 16 -9 30 -9 13 0 24 -4 24 -10 0 -5 8 -10 17 -10 12
0 14 3 6 11 -13 13 -85 30 -77 18z"/>
<path d="M553 4133 c9 -2 25 -2 35 0 9 3 1 5 -18 5 -19 0 -27 -2 -17 -5z"/>
<path d="M128 4113 c6 -2 18 -2 25 0 6 3 1 5 -13 5 -14 0 -19 -2 -12 -5z"/>
<path d="M465 4110 c-4 -6 7 -10 27 -9 27 0 30 2 13 9 -27 12 -33 12 -40 0z"/>
<path d="M5 4100 c4 -6 11 -8 16 -5 14 9 11 15 -7 15 -8 0 -12 -5 -9 -10z"/>
<path d="M4116 3842 c-4 -7 -29 -12 -56 -12 -27 0 -51 -4 -54 -9 -5 -8 47 -6
96 4 10 1 18 -4 20 -14 2 -9 6 -11 9 -6 4 6 3 19 -1 29 -4 14 -9 16 -14 8z"/>
<path d="M480 3755 c0 -8 8 -15 18 -15 10 0 23 -5 29 -11 12 -12 103 -4 103 9
-1 21 -22 29 -82 30 -54 1 -68 -2 -68 -13z"/>
<path d="M4030 3760 c0 -5 5 -10 10 -10 6 0 10 5 10 10 0 6 -4 10 -10 10 -5 0
-10 -4 -10 -10z"/>
<path d="M168 3703 c7 -3 16 -2 19 1 4 3 -2 6 -13 5 -11 0 -14 -3 -6 -6z"/>
<path d="M538 3693 c6 -2 18 -2 25 0 6 3 1 5 -13 5 -14 0 -19 -2 -12 -5z"/>
<path d="M603 3679 c-11 -5 2 -8 35 -8 28 -1 52 1 52 3 0 8 -69 12 -87 5z"/>
<path d="M440 3620 c0 -5 7 -10 16 -10 8 0 12 5 9 10 -3 6 -10 10 -16 10 -5 0
-9 -4 -9 -10z"/>
<path d="M3870 3612 c-5 -2 -10 -8 -10 -12 0 -10 71 -1 84 11 8 7 -51 8 -74 1z"/>
<path d="M3973 3613 c9 -2 23 -2 30 0 6 3 -1 5 -18 5 -16 0 -22 -2 -12 -5z"/>
<path d="M190 3530 c0 -5 14 -10 30 -10 17 0 30 5 30 10 0 6 -13 10 -30 10
-16 0 -30 -4 -30 -10z"/>
<path d="M0 3506 c0 -8 6 -17 13 -19 9 -4 9 -6 -1 -6 -9 -1 -12 -35 -11 -146
l1 -145 61 0 c34 0 69 5 77 10 13 8 13 10 -2 11 -10 1 -22 3 -28 4 -5 1 -14 3
-20 4 -5 0 -9 6 -7 13 1 7 -11 15 -28 19 -16 4 -22 7 -13 8 10 1 15 7 12 14
-12 31 25 40 141 34 17 0 55 0 85 1 71 3 50 18 -40 28 -62 7 -63 8 -31 16 24
7 54 5 103 -7 50 -13 86 -15 135 -10 68 7 72 25 5 25 -25 0 -35 5 -39 20 -6
22 -22 24 -68 12 -38 -10 -90 -1 -90 16 0 7 -7 17 -15 22 -21 14 11 13 84 -1
43 -9 60 -9 69 0 8 8 8 11 -1 11 -7 0 -12 7 -12 15 0 14 24 21 100 28 19 2
-26 4 -100 5 -169 2 -295 11 -327 23 -35 13 -53 11 -53 -5z m340 -46 c0 -12
-24 -12 -60 0 -21 7 -19 8 18 9 23 1 42 -3 42 -9z m-157 -57 c-7 -2 -19 -2
-25 0 -7 3 -2 5 12 5 14 0 19 -2 13 -5z m227 -42 c0 -6 -17 -7 -37 -4 -52 8
-54 13 -5 13 23 0 42 -4 42 -9z"/>
<path d="M532 3466 c-42 -15 -31 -26 25 -26 44 0 52 7 31 28 -14 14 -13 14
-56 -2z"/>
<path d="M410 3444 c0 -11 5 -14 16 -10 9 3 27 6 40 6 13 0 24 5 24 10 0 6
-18 10 -40 10 -30 0 -40 -4 -40 -16z"/>
<path d="M605 3410 c3 -5 13 -10 21 -10 8 0 14 5 14 10 0 6 -9 10 -21 10 -11
0 -17 -4 -14 -10z"/>
<path d="M425 3400 c-3 -5 -1 -10 4 -10 6 0 11 5 11 10 0 6 -2 10 -4 10 -3 0
-8 -4 -11 -10z"/>
<path d="M4063 3403 c9 -2 23 -2 30 0 6 3 -1 5 -18 5 -16 0 -22 -2 -12 -5z"/>
<path d="M550 3359 c0 -5 5 -7 10 -4 6 3 10 8 10 11 0 2 -4 4 -10 4 -5 0 -10
-5 -10 -11z"/>
<path d="M3622 3328 c18 -11 98 -10 98 2 0 5 -25 9 -55 8 -33 -1 -50 -5 -43
-10z"/>
<path d="M3750 3310 c0 -5 11 -10 25 -10 14 0 25 5 25 10 0 6 -11 10 -25 10
-14 0 -25 -4 -25 -10z"/>
<path d="M315 3290 c-4 -6 12 -8 40 -6 61 5 70 16 12 16 -25 0 -49 -4 -52 -10z"/>
<path d="M80 3261 c0 -8 79 -3 89 5 2 2 -17 4 -42 4 -26 0 -47 -4 -47 -9z"/>
<path d="M186 3255 c-8 -23 38 -49 71 -40 25 6 26 8 10 17 -10 5 -25 7 -33 4
-8 -3 -14 1 -14 9 0 9 14 15 38 18 31 3 29 4 -14 5 -38 2 -53 -2 -58 -13z"/>
<path d="M4040 3260 c0 -13 11 -13 30 0 12 8 11 10 -7 10 -13 0 -23 -4 -23
-10z"/>
<path d="M305 3230 c-3 -5 1 -10 10 -10 9 0 13 5 10 10 -3 6 -8 10 -10 10 -2
0 -7 -4 -10 -10z"/>
<path d="M340 3230 c0 -5 12 -10 28 -9 24 0 25 1 7 9 -27 12 -35 12 -35 0z"/>
<path d="M4985 3190 c3 -5 8 -10 11 -10 2 0 4 5 4 10 0 6 -5 10 -11 10 -5 0
-7 -4 -4 -10z"/>
<path d="M4948 3168 c9 -9 15 -9 24 0 9 9 7 12 -12 12 -19 0 -21 -3 -12 -12z"/>
<path d="M0 3160 c0 -5 7 -10 16 -10 8 0 12 5 9 10 -3 6 -10 10 -16 10 -5 0
-9 -4 -9 -10z"/>
<path d="M4023 3153 c-28 -5 -30 -23 -3 -23 11 0 20 5 20 11 0 6 9 9 20 6 11
-3 20 -1 20 4 0 9 -17 10 -57 2z"/>
<path d="M17 3116 c-9 -7 -17 -21 -17 -30 0 -13 6 -15 28 -10 15 4 29 11 30
16 2 4 13 8 25 8 26 0 11 15 -23 23 -14 3 -33 0 -43 -7z"/>
<path d="M130 3090 c-14 -11 -38 -20 -55 -21 -27 -2 -28 -2 -5 -6 37 -7 190 7
190 18 0 5 -15 9 -34 9 -19 0 -38 5 -41 10 -9 15 -27 12 -55 -10z m47 -16 c-3
-3 -12 -4 -19 -1 -8 3 -5 6 6 6 11 1 17 -2 13 -5z"/>
<path d="M608 3083 c7 -3 16 -2 19 1 4 3 -2 6 -13 5 -11 0 -14 -3 -6 -6z"/>
<path d="M330 3071 c-8 -5 -34 -12 -57 -16 -48 -8 -67 -24 -31 -26 19 -1 18
-3 -7 -9 -22 -5 -7 -8 52 -9 66 -1 81 2 77 13 -3 9 7 15 33 19 59 10 151 8
158 -3 8 -12 65 -13 84 -1 17 11 -51 21 -169 25 -47 1 -94 5 -105 9 -11 3 -27
2 -35 -2z m10 -31 c0 -5 -8 -10 -17 -10 -15 0 -16 2 -3 10 19 12 20 12 20 0z"/>
<path d="M35 3040 c-4 -6 8 -10 30 -10 22 0 34 4 30 10 -3 6 -17 10 -30 10
-13 0 -27 -4 -30 -10z"/>
<path d="M500 3021 c0 -5 -25 -13 -55 -16 -31 -4 -53 -10 -50 -13 8 -8 99 -2
105 7 3 3 16 12 30 18 l25 12 -27 0 c-16 1 -28 -3 -28 -8z"/>
<path d="M18 3012 c-10 -2 -18 -12 -18 -22 0 -22 48 -35 105 -28 19 2 35 0 35
-5 0 -5 -32 -7 -70 -5 -48 2 -70 -1 -70 -8 0 -12 89 -25 191 -29 25 -1 50 -5
56 -8 7 -5 9 0 6 13 -7 26 46 50 59 26 4 -8 23 -17 41 -21 39 -8 77 -26 77
-37 0 -4 -15 -8 -32 -8 -18 -1 -44 -7 -58 -14 l-25 -14 37 -7 c21 -4 52 -2 71
4 19 6 41 9 50 5 9 -3 24 -1 34 4 15 9 12 11 -20 17 -45 9 -54 20 -33 41 20
20 21 19 -9 20 -47 3 -75 14 -75 30 0 13 -9 15 -52 11 -29 -3 -72 -11 -95 -18
-23 -7 -46 -9 -50 -5 -4 5 -3 11 3 13 16 5 5 43 -11 43 -8 0 -21 3 -31 7 -13
5 -16 3 -11 -9 7 -19 -19 -28 -78 -27 l-40 1 40 12 c36 11 38 13 15 17 -14 3
-33 3 -42 1z"/>
<path d="M603 2998 c21 -7 32 -7 40 1 8 8 0 11 -28 10 -40 -1 -40 -1 -12 -11z"/>
<path d="M698 2983 c6 -2 18 -2 25 0 6 3 1 5 -13 5 -14 0 -19 -2 -12 -5z"/>
<path d="M435 2960 c-4 -6 7 -10 24 -10 17 0 31 5 31 10 0 6 -11 10 -24 10
-14 0 -28 -4 -31 -10z"/>
<path d="M18 2893 c-10 -3 -18 -9 -18 -14 0 -9 230 -3 239 7 2 2 -31 4 -75 5
-43 0 -90 2 -104 3 -14 2 -33 1 -42 -1z"/>
<path d="M20 2850 c-19 -6 -9 -8 38 -9 40 -1 61 3 57 9 -7 12 -59 12 -95 0z"/>
<path d="M615 2840 c3 -5 21 -10 38 -10 24 0 28 3 17 10 -20 13 -63 13 -55 0z"/>
<path d="M208 2833 c6 -2 18 -2 25 0 6 3 1 5 -13 5 -14 0 -19 -2 -12 -5z"/>
<path d="M428 2823 c7 -3 16 -2 19 1 4 3 -2 6 -13 5 -11 0 -14 -3 -6 -6z"/>
<path d="M210 2799 c-11 -7 6 -9 59 -5 41 3 77 8 79 11 10 10 -123 4 -138 -6z"/>
<path d="M45 2780 c3 -5 13 -10 21 -10 8 0 14 5 14 10 0 6 -9 10 -21 10 -11 0
-17 -4 -14 -10z"/>
<path d="M8 2773 c7 -3 16 -2 19 1 4 3 -2 6 -13 5 -11 0 -14 -3 -6 -6z"/>
<path d="M0 2751 c0 -15 100 -18 112 -3 8 9 -3 12 -51 12 -33 0 -61 -4 -61 -9z"/>
<path d="M434 2744 c3 -9 6 -18 6 -20 0 -2 14 -4 30 -4 17 0 30 4 30 8 0 16
-24 32 -48 32 -18 0 -23 -4 -18 -16z"/>
<path d="M155 2730 c3 -5 10 -10 16 -10 5 0 9 5 9 10 0 6 -7 10 -16 10 -8 0
-12 -4 -9 -10z"/>
<path d="M540 2730 c20 -13 40 -13 40 0 0 6 -12 10 -27 10 -22 0 -25 -2 -13
-10z"/>
<path d="M295 2700 c3 -5 8 -10 11 -10 2 0 4 5 4 10 0 6 -5 10 -11 10 -5 0 -7
-4 -4 -10z"/>
<path d="M403 2693 c-40 -8 -25 -24 20 -21 23 2 42 8 42 13 0 11 -29 15 -62 8z"/>
<path d="M0 2645 c0 -33 2 -35 36 -35 21 0 33 -4 29 -10 -4 -6 -11 -8 -16 -5
-12 8 -49 -4 -49 -16 0 -15 59 -10 85 7 15 10 37 14 55 12 16 -3 30 -1 30 3 0
6 27 13 113 26 23 3 43 1 50 -6 8 -8 2 -11 -23 -12 l-35 -1 30 -8 c41 -10 176
-10 200 0 18 8 18 9 -5 10 -14 2 -31 2 -38 1 -8 -1 -20 3 -28 10 -8 7 -28 9
-51 5 -24 -4 -33 -3 -24 2 23 16 -4 23 -93 21 -63 -1 -90 3 -107 15 -16 11
-45 16 -91 16 l-68 0 0 -35z m105 5 c4 -6 -5 -10 -20 -10 -15 0 -24 4 -20 10
3 6 12 10 20 10 8 0 17 -4 20 -10z"/>
<path d="M107 2573 c-10 -9 -9 -23 1 -23 5 0 17 7 28 15 19 14 19 14 -2 15
-11 0 -24 -3 -27 -7z"/>
<path d="M235 2571 c-15 -6 -4 -10 43 -16 43 -5 67 -4 75 4 8 8 2 11 -24 11
-18 0 -43 2 -54 5 -11 2 -29 0 -40 -4z"/>
<path d="M0 2536 c0 -16 3 -17 12 -8 7 7 27 12 45 12 18 0 33 4 33 9 0 5 -20
9 -45 8 -37 -2 -45 -5 -45 -21z"/>
<path d="M598 2523 c7 -3 16 -2 19 1 4 3 -2 6 -13 5 -11 0 -14 -3 -6 -6z"/>
</g>
</svg>
