<?xml version="1.0" standalone="no"?>
<!DOCTYPE svg PUBLIC "-//W3C//DTD SVG 20010904//EN"
 "http://www.w3.org/TR/2001/REC-SVG-20010904/DTD/svg10.dtd">
<svg version="1.0" xmlns="http://www.w3.org/2000/svg"
 width="16.000000pt" height="16.000000pt" viewBox="0 0 16.000000 16.000000"
 preserveAspectRatio="xMidYMid meet">
<metadata>
Created by potrace 1.11, written by Peter Selinger 2001-2013
</metadata>
<g transform="translate(0.000000,16.000000) scale(0.003556,-0.003556)"
fill="#000000" stroke="none">
<path d="M859 3725 c-3 -2 -197 -6 -432 -7 l-427 -3 0 -155 c0 -130 3 -160 17
-180 16 -22 16 -23 0 -17 -15 6 -17 -4 -17 -88 0 -52 3 -95 8 -95 4 0 24 5 45
11 22 6 41 8 44 5 9 -8 -66 -36 -82 -30 -10 4 -15 0 -15 -15 0 -14 6 -21 19
-21 10 0 22 -7 25 -16 9 -23 8 -25 -11 -22 -11 2 -18 -3 -18 -12 0 -8 -4 -21
-9 -29 -6 -10 -5 -12 2 -7 25 15 189 44 227 40 16 -2 33 2 37 9 5 8 8 4 8 -10
0 -19 -6 -23 -29 -23 -17 0 -33 -5 -36 -10 -3 -6 -18 -8 -33 -4 -23 4 -24 4
-9 -6 9 -6 25 -9 35 -6 9 2 28 8 41 11 16 5 21 4 17 -4 -4 -6 -2 -11 3 -11 6
0 11 5 11 11 0 6 7 3 16 -6 9 -8 24 -14 33 -11 9 2 36 8 61 12 46 8 55 10 68
14 4 1 11 2 15 1 5 -1 6 7 2 18 -4 14 0 20 19 23 16 3 27 0 31 -10 4 -11 0
-13 -15 -9 -12 3 -20 0 -20 -7 0 -9 28 -5 98 12 53 13 99 26 101 28 2 2 -1 10
-7 17 -16 19 4 37 40 37 18 0 28 -5 28 -15 0 -17 -16 -20 -25 -5 -3 6 -12 10
-18 10 -7 0 -6 -4 3 -10 13 -9 13 -11 0 -20 -11 -8 2 -9 45 -4 33 4 66 7 74 7
8 0 16 9 19 19 2 10 9 18 14 18 5 0 6 -4 3 -10 -4 -6 7 -10 24 -10 23 0 31 5
32 18 0 10 3 12 6 5 2 -7 11 -13 18 -13 7 0 15 6 18 13 3 9 7 9 21 -2 14 -12
19 -11 39 5 19 17 20 17 8 1 -16 -20 -21 -20 66 -1 15 3 43 7 63 10 19 2 57 9
83 15 26 6 50 9 53 6 3 -3 -30 -12 -73 -22 -43 -9 -82 -22 -88 -27 -7 -7 -2
-9 15 -5 14 3 43 9 65 13 22 3 45 10 50 14 14 10 149 33 210 35 64 3 125 14
149 27 10 6 31 12 45 13 14 2 42 8 61 13 l35 10 -30 1 c-16 0 -60 -6 -97 -13
-67 -13 -99 -4 -35 10 67 14 218 30 223 23 2 -4 -6 -10 -18 -12 -17 -3 -14 -5
10 -6 21 -1 31 3 27 10 -4 6 2 13 14 16 12 3 21 9 21 14 0 5 11 9 25 9 14 0
42 9 62 20 21 11 45 20 53 20 9 0 20 4 25 9 9 8 97 27 170 37 25 4 27 3 10 -6
-14 -7 19 -8 105 -4 69 3 127 8 130 11 3 3 -44 3 -104 1 -61 -3 -101 -2 -90 2
10 4 78 10 149 13 72 2 114 1 95 -3 -32 -7 -33 -7 -7 -9 15 0 35 4 46 10 13 9
65 9 192 3 208 -11 259 -8 259 12 0 8 6 14 14 14 18 0 31 -39 18 -52 -13 -13
13 -64 41 -83 12 -8 58 -25 102 -39 44 -14 92 -34 106 -43 92 -62 110 -73 133
-79 15 -3 32 -15 40 -25 10 -15 20 -18 44 -13 18 4 32 11 32 17 0 6 3 7 8 3 4
-4 7 -11 7 -14 0 -13 50 -57 61 -54 6 1 17 -5 24 -13 7 -8 18 -15 26 -15 7 0
17 -8 23 -17 5 -10 33 -22 63 -29 102 -24 153 -38 158 -45 9 -11 68 -39 84
-39 8 0 19 8 25 17 5 10 13 15 17 11 4 -4 1 -14 -6 -23 -10 -12 -10 -15 2 -15
7 0 21 -9 31 -20 9 -11 21 -20 26 -20 6 0 -1 11 -14 24 -26 26 -25 56 2 56 8
0 12 -4 9 -9 -4 -5 4 -7 15 -4 20 6 20 7 5 18 -15 11 -15 13 5 18 15 4 19 2
15 -9 -3 -8 -1 -14 5 -14 5 0 -2 -11 -17 -25 -22 -21 -24 -26 -11 -31 18 -6
39 10 50 39 3 9 12 17 18 17 7 0 9 -3 6 -7 -4 -4 7 -14 26 -22 38 -19 42 -43
7 -51 -24 -6 -24 -6 -4 -12 12 -3 23 -15 27 -27 3 -11 1 -19 -4 -15 -5 3 -9 1
-9 -5 0 -5 5 -13 10 -16 17 -10 11 -32 -9 -38 -13 -3 -21 2 -25 16 -4 17 -7
18 -20 7 -13 -10 -19 -10 -31 0 -10 8 -19 9 -27 3 -7 -6 -37 -9 -65 -7 -42 3
-53 0 -53 -11 0 -22 -17 -18 -23 5 -7 28 -51 26 -71 -2 -17 -23 -82 -48 -128
-48 -16 0 -28 -6 -28 -12 0 -9 -4 -8 -10 2 -13 21 -45 0 -46 -31 -1 -45 -4
-51 -19 -46 -8 4 -17 2 -20 -3 -4 -6 -17 -7 -30 -4 -12 3 -26 1 -30 -5 -8 -14
-71 -4 -103 16 -18 11 -26 12 -38 2 -10 -8 -14 -8 -14 0 0 6 -9 11 -20 11 -12
0 -20 -7 -20 -17 0 -14 -4 -13 -25 7 l-24 23 -22 -25 c-22 -24 -23 -25 -61
-10 -34 14 -41 14 -49 1 -6 -10 -3 -15 9 -18 18 -4 41 -30 41 -46 0 -5 -4 -2
-10 8 -7 12 -15 15 -22 9 -7 -5 -34 -9 -62 -10 -38 -1 -54 -7 -68 -23 -15 -18
-24 -21 -61 -16 -24 4 -46 3 -50 0 -13 -13 -58 -14 -72 -2 -12 10 -15 10 -12
-2 4 -18 -40 -13 -63 7 -8 8 -28 14 -42 14 -15 0 -27 5 -27 11 0 8 -18 10 -57
6 -48 -5 -62 -11 -83 -35 -22 -26 -70 -49 -92 -44 -5 1 -8 -5 -8 -13 0 -8 6
-12 14 -9 8 3 17 1 21 -5 9 -15 -28 -14 -43 1 -6 6 -25 11 -42 10 -17 0 -28 3
-24 9 3 6 13 9 22 8 32 -3 41 1 36 16 -7 18 -34 20 -34 3 0 -6 -3 -8 -7 -5 -3
4 -13 1 -21 -6 -13 -9 -14 -9 -8 1 4 7 1 12 -8 12 -14 0 -21 -18 -17 -43 1 -4
-8 -3 -19 3 -23 12 -27 22 -5 14 8 -4 15 -1 15 5 0 6 -14 11 -30 11 -26 0 -29
-3 -21 -17 8 -16 4 -18 -30 -18 -30 -1 -36 2 -27 12 16 20 -37 17 -56 -3 -23
-23 -20 -29 20 -42 29 -9 35 -8 30 3 -4 11 0 12 18 5 13 -5 26 -8 28 -7 2 1
-5 -5 -16 -14 -10 -9 -16 -21 -12 -28 10 -16 -3 -14 -20 4 -9 8 -26 13 -40 11
-13 -3 -24 -1 -24 4 0 4 -11 7 -25 6 -14 0 -25 -4 -25 -8 0 -4 -10 -8 -22 -10
-18 -2 -23 -9 -23 -30 1 -21 -4 -28 -19 -28 -20 0 -20 0 0 -16 10 -8 13 -13 6
-9 -7 3 -21 3 -33 0 -15 -5 -17 -10 -9 -20 8 -9 8 -14 0 -17 -6 -2 -12 -11
-14 -20 -1 -10 -5 -21 -9 -24 -4 -4 -7 -16 -7 -26 0 -11 -5 -16 -10 -13 -6 4
-8 15 -5 24 7 24 -29 56 -52 46 -17 -8 -24 -10 -48 -14 -5 -1 -3 -6 5 -11 12
-8 11 -10 -7 -10 -25 0 -47 -33 -40 -60 3 -13 0 -16 -14 -13 -11 3 -19 0 -19
-6 0 -6 -12 -11 -26 -11 -14 0 -23 -4 -19 -10 4 -6 11 -7 17 -4 6 4 8 2 5 -3
-12 -19 -117 -35 -128 -20 -4 5 -15 4 -25 -1 -11 -6 -28 -13 -39 -17 -16 -5
-17 -8 -5 -16 11 -8 3 -9 -27 -6 -24 3 -46 1 -49 -4 -10 -17 -82 -10 -96 9
-13 17 -68 27 -68 12 0 -4 -8 -10 -17 -14 -10 -3 -25 -9 -33 -12 -12 -5 -13
-4 -2 7 17 18 15 26 -8 32 -13 3 -20 0 -20 -9 0 -8 -6 -14 -14 -14 -8 0 -22
-3 -32 -7 -12 -4 -15 -3 -10 5 9 14 1 15 -42 2 -27 -7 -33 -6 -29 4 4 11 -4
13 -35 8 -36 -4 -40 -3 -35 12 5 13 3 15 -12 7 -10 -6 -26 -10 -37 -10 -32 0
-116 -20 -133 -32 -9 -7 2 5 24 25 l40 38 -35 -20 c-32 -17 -84 -21 -98 -7 -3
3 -14 -2 -24 -12 -11 -9 -18 -11 -18 -5 0 7 5 12 11 12 5 0 7 5 4 10 -4 7 -13
6 -26 -1 -11 -5 -25 -8 -32 -6 -7 2 6 12 28 23 22 10 44 20 49 22 5 3 6 0 2
-7 -4 -6 -2 -11 3 -11 14 0 14 13 0 27 -8 8 -20 8 -35 3 -32 -13 -39 4 -9 24
13 9 26 16 29 16 2 0 32 16 65 36 63 37 82 55 34 31 -16 -8 -40 -17 -55 -21
-16 -3 -28 -11 -28 -17 0 -5 -20 -19 -45 -30 -24 -11 -47 -24 -50 -29 -3 -5
-18 -7 -33 -4 -20 4 -33 0 -46 -15 -21 -23 -44 -18 -25 5 6 8 10 14 7 14 -2 0
-56 -27 -119 -61 -62 -33 -130 -67 -149 -75 l-35 -14 25 21 25 20 -25 -7 c-22
-6 -23 -5 -12 9 9 11 -14 5 -69 -18 -46 -19 -87 -32 -91 -29 -5 3 -6 16 -4 30
5 28 8 28 -38 9 l-37 -16 17 26 16 25 -28 -15 c-16 -8 -36 -15 -44 -15 -9 0
-22 -6 -29 -12 -10 -10 -15 -10 -18 -1 -2 7 -11 9 -19 6 -13 -5 -13 -7 -2 -14
9 -6 4 -9 -14 -9 l-28 0 0 -1005 0 -1005 2250 0 2250 0 0 1130 0 1130 -25 16
c-15 10 -36 14 -53 11 -22 -4 -24 -3 -10 6 14 9 9 15 -35 44 -29 18 -57 33
-63 33 -6 0 -22 9 -35 20 -12 12 -39 31 -59 43 l-35 22 40 3 c39 3 223 -14
258 -24 17 -5 18 8 16 218 -1 123 -3 217 -6 211 -7 -18 -23 -16 -23 2 0 8 -9
15 -20 15 -11 0 -23 7 -26 15 -4 8 -18 15 -33 15 l-26 1 30 13 c17 7 33 11 38
9 4 -2 7 3 7 13 0 13 6 15 29 11 l30 -6 1 369 1 369 -23 3 c-13 2 -22 9 -21
16 4 18 -17 15 -24 -4 -4 -10 -8 -12 -13 -4 -5 7 -97 11 -306 11 -243 1 -306
-2 -339 -14 -39 -15 -60 -14 -50 2 8 15 -69 21 -131 11 -32 -6 -106 -10 -164
-10 -63 0 -100 -4 -91 -9 9 -6 10 -11 2 -15 -6 -4 -15 -4 -21 -1 -5 3 -10 2
-10 -4 0 -5 -11 -8 -25 -5 -17 3 -23 0 -20 -8 3 -8 19 -12 38 -11 17 1 40 2
51 2 13 1 16 6 11 19 -5 13 -3 14 5 6 13 -13 50 -7 50 7 0 11 167 12 174 1 6
-10 -198 -46 -261 -46 -24 0 -43 -3 -43 -7 0 -3 -12 -4 -26 -1 -14 2 -23 10
-21 17 3 6 -1 12 -9 12 -8 0 -14 -4 -14 -9 0 -4 -10 -8 -22 -7 -16 0 -18 2 -8
6 8 3 18 11 22 16 8 13 -23 38 -36 29 -5 -3 -1 -9 10 -13 11 -5 4 -6 -18 -3
-37 6 -53 -7 -25 -20 6 -4 1 -4 -13 -1 -14 2 -33 5 -43 5 -10 0 -16 4 -13 9 3
5 15 7 26 4 12 -3 20 -2 19 3 -4 22 2 34 19 34 14 0 15 -2 2 -10 -12 -8 -11
-10 7 -10 12 0 25 5 28 11 4 6 13 8 21 5 7 -3 16 -1 19 4 3 5 -39 8 -95 8 -66
0 -97 -4 -93 -11 4 -7 0 -8 -13 -3 -10 5 -23 8 -29 8 -32 0 -273 -24 -287 -28
-10 -3 -18 0 -18 6 0 6 6 8 13 4 7 -4 9 -3 4 2 -5 5 -65 9 -133 10 -68 0 -118
-3 -112 -8 16 -10 9 -11 -77 -8 -71 2 -84 -7 -23 -17 60 -9 43 -14 -28 -7 -38
4 -70 11 -72 15 -5 13 -62 11 -62 -1 0 -7 -6 -7 -18 -1 -11 6 -27 9 -38 9 -10
-1 -30 2 -43 6 -16 6 -21 5 -17 -3 7 -11 -17 -6 -39 8 -18 12 -65 13 -65 2 0
-7 -16 -9 -47 -4 -27 4 -113 7 -193 6 -105 0 -130 2 -90 7 l55 8 -55 -3 c-30
-1 -66 -6 -79 -10 -17 -6 -22 -5 -17 3 9 16 -7 15 -22 0 -9 -9 -12 -9 -12 1 0
8 -7 10 -22 5 -34 -10 -464 -6 -533 6 -67 11 -89 12 -96 5z m1791 -50 c11 -13
7 -15 -29 -13 -41 1 -44 12 -6 21 11 3 21 5 21 6 1 0 7 -6 14 -14z m980 5 c0
-5 -5 -10 -11 -10 -5 0 -7 5 -4 10 3 6 8 10 11 10 2 0 4 -4 4 -10z m-1150 -20
c0 -5 -5 -10 -11 -10 -5 0 -7 5 -4 10 3 6 8 10 11 10 2 0 4 -4 4 -10z m-273
-6 c-3 -3 -12 -4 -19 -1 -8 3 -5 6 6 6 11 1 17 -2 13 -5z m1436 -21 c-7 -2
-19 -2 -25 0 -7 3 -2 5 12 5 14 0 19 -2 13 -5z m457 -57 c0 -2 -7 -7 -16 -10
-8 -3 -12 -2 -9 4 6 10 25 14 25 6z m-1671 -15 c28 -1 32 -3 21 -16 -7 -8 -17
-12 -24 -8 -6 4 -19 6 -30 4 -25 -4 -68 8 -62 17 3 4 17 7 33 6 15 -1 43 -2
62 -3z m1978 -7 c-3 -3 -12 -4 -19 -1 -8 3 -5 6 6 6 11 1 17 -2 13 -5z m-2308
-13 c9 -6 -5 -10 -44 -12 -65 -5 -99 7 -39 14 21 2 46 4 54 5 8 1 21 -2 29 -7z
m821 -1 c0 -5 -4 -10 -9 -10 -6 0 -13 5 -16 10 -3 6 1 10 9 10 9 0 16 -4 16
-10z m1344 -9 c-11 -9 -19 -23 -17 -31 3 -9 -2 -7 -12 5 -11 14 -18 16 -23 8
-8 -13 -151 -16 -173 -2 -9 6 2 9 38 9 32 0 53 5 56 13 4 10 7 10 18 0 7 -7
23 -13 36 -13 13 0 26 6 28 13 3 6 20 13 37 13 31 1 31 1 12 -15z m-309 -11
c14 -6 16 -9 5 -10 -8 -2 -19 -1 -25 0 -5 1 -55 4 -110 7 -54 2 -101 6 -104 8
-8 9 214 4 234 -5z m-890 -80 c-3 -5 -10 -10 -16 -10 -5 0 -9 5 -9 10 0 6 7
10 16 10 8 0 12 -4 9 -10z m-2540 -10 c27 -7 25 -8 -17 -9 -27 0 -48 4 -48 9
0 11 21 11 65 0z m-385 -40 c0 -5 -6 -10 -12 -10 -7 0 -24 -3 -38 -5 -22 -5
-21 -3 5 9 36 18 45 19 45 6z m602 -1 c2 -7 12 -7 30 0 16 6 52 7 90 2 57 -7
60 -8 28 -14 -67 -12 -266 -18 -250 -7 8 5 11 10 7 10 -5 0 -5 5 -2 10 8 13
92 13 97 -1z m-292 -13 c0 -2 -7 -6 -15 -10 -8 -3 -15 -1 -15 4 0 6 7 10 15
10 8 0 15 -2 15 -4z m862 -28 c7 -19 -39 -50 -61 -43 -20 6 -37 35 -21 35 6 0
10 -4 10 -10 0 -5 4 -10 10 -10 5 0 7 6 4 14 -4 9 3 16 18 19 13 2 26 5 30 6
3 0 8 -5 10 -11z m48 -24 c0 -14 -3 -14 -15 -4 -8 7 -15 14 -15 16 0 2 7 4 15
4 8 0 15 -7 15 -16z m-665 -14 c0 -10 -11 -16 -30 -17 -65 -3 -99 -11 -103
-22 -2 -6 3 -11 12 -11 9 0 15 -6 14 -12 -2 -7 5 -12 15 -12 9 1 17 -2 17 -7
0 -5 -9 -9 -20 -9 -11 0 -20 -7 -20 -15 0 -9 -6 -12 -15 -9 -8 4 -21 1 -28 -4
-7 -6 -29 -9 -50 -7 -20 1 -37 -1 -37 -7 0 -6 -6 -8 -14 -5 -8 3 -17 -1 -20
-10 -5 -12 -9 -13 -22 -3 -11 10 -18 10 -26 2 -14 -14 -84 -16 -92 -3 -3 5 8
14 24 21 23 10 33 10 44 1 10 -9 21 -9 33 -3 10 5 43 13 73 17 69 9 101 21 80
28 -39 14 -43 17 -18 14 25 -4 38 8 38 34 0 12 -47 12 -54 0 -9 -13 -55 -20
-85 -11 -21 7 -22 8 -5 9 11 1 26 7 33 14 6 6 26 12 44 13 108 1 127 4 127 20
0 12 9 14 43 12 29 -2 42 -8 42 -18z m445 10 c0 -5 -7 -10 -15 -10 -8 0 -15 5
-15 10 0 6 7 10 15 10 8 0 15 -4 15 -10z m-295 -20 c-6 -10 -40 -8 -51 3 -4 4
7 7 25 7 19 0 30 -4 26 -10z m242 -27 c-11 -10 -58 -13 -52 -2 4 5 18 9 32 9
15 0 23 -3 20 -7z m-82 -14 c-7 -11 -35 -12 -35 -1 0 4 9 8 20 9 11 1 18 -2
15 -8z m263 -14 c-3 -3 -9 2 -12 12 -6 14 -5 15 5 6 7 -7 10 -15 7 -18z m-328
5 c0 -5 -12 -10 -27 -9 l-28 1 25 8 c14 4 26 8 28 9 1 1 2 -3 2 -9z m617 -6
c-3 -3 -12 -4 -19 -1 -8 3 -5 6 6 6 11 1 17 -2 13 -5z m2893 -22 c22 -10 20
-11 -20 -6 -24 3 -49 8 -53 11 -5 3 -13 -1 -18 -8 -4 -8 -16 -14 -25 -14 -10
0 -19 -6 -21 -13 -3 -6 1 -10 9 -9 7 2 10 2 6 0 -5 -3 -8 -11 -8 -19 0 -16
-30 -7 -46 14 -6 8 -16 12 -22 8 -6 -3 -14 -1 -17 5 -9 14 -85 1 -107 -19 -17
-14 -18 -13 -24 16 -4 17 -14 33 -23 35 -9 3 9 6 39 7 30 1 65 5 78 8 33 10
223 -2 252 -16z m-2980 8 c0 -5 -10 -10 -22 -10 -19 0 -20 2 -8 10 19 13 30
13 30 0z m2555 0 c-3 -5 -12 -10 -18 -10 -7 0 -6 4 3 10 19 12 23 12 15 0z
m-332 -21 c36 6 47 5 47 -6 0 -7 6 -13 13 -13 6 0 -3 -8 -20 -16 -18 -9 -31
-20 -28 -24 2 -4 -6 -5 -18 -3 -13 3 -33 19 -45 37 -23 34 -31 61 -9 34 10
-13 21 -15 60 -9z m-2313 1 c-14 -4 -34 -8 -45 -9 -16 -1 -17 1 -5 9 8 5 29 9
45 9 29 -1 29 -1 5 -9z m-1147 -57 c-7 -2 -13 -12 -13 -20 0 -12 -3 -13 -14
-4 -9 7 -22 8 -37 3 -23 -8 -109 -6 -118 3 -11 11 51 23 119 23 41 0 69 -2 63
-5z m387 -8 c0 -2 -10 -10 -22 -16 -21 -11 -22 -11 -9 4 13 16 31 23 31 12z
m3800 -5 c0 -5 -2 -10 -4 -10 -3 0 -8 5 -11 10 -3 6 -1 10 4 10 6 0 11 -4 11
-10z m-4060 -10 c0 -5 -6 -10 -14 -10 -8 0 -18 5 -21 10 -3 6 3 10 14 10 12 0
21 -4 21 -10z m200 0 c0 -5 -5 -10 -11 -10 -5 0 -7 5 -4 10 3 6 8 10 11 10 2
0 4 -4 4 -10z m3027 4 c-3 -3 -12 -4 -19 -1 -8 3 -5 6 6 6 11 1 17 -2 13 -5z
m323 -20 c0 -8 -4 -14 -9 -14 -12 0 -32 26 -25 33 10 9 34 -4 34 -19z m-3660
6 c0 -5 -2 -10 -4 -10 -3 0 -8 5 -11 10 -3 6 -1 10 4 10 6 0 11 -4 11 -10z
m47 -22 c-3 -8 -6 -5 -6 6 -1 11 2 17 5 13 3 -3 4 -12 1 -19z m3318 12 c3 -5
-1 -10 -9 -10 -9 0 -16 5 -16 10 0 6 4 10 9 10 6 0 13 -4 16 -10z m110 0 c-3
-5 -13 -10 -21 -10 -8 0 -14 5 -14 10 0 6 9 10 21 10 11 0 17 -4 14 -10z
m-3585 -10 c0 -5 -4 -10 -10 -10 -5 0 -10 5 -10 10 0 6 5 10 10 10 6 0 10 -4
10 -10z m67 4 c-3 -3 -12 -4 -19 -1 -8 3 -5 6 6 6 11 1 17 -2 13 -5z m363 -5
c0 -5 -4 -7 -10 -4 -5 3 -10 1 -10 -6 0 -7 -3 -10 -6 -6 -8 7 4 27 17 27 5 0
9 -5 9 -11z m3110 7 c0 -3 -4 -8 -10 -11 -5 -3 -10 -1 -10 4 0 6 5 11 10 11 6
0 10 -2 10 -4z m-3315 -36 c3 -5 3 -11 -2 -11 -36 -6 -53 -5 -53 3 0 5 10 6
21 3 15 -5 19 -4 15 4 -4 6 -3 11 3 11 5 0 13 -4 16 -10z m95 0 c0 -5 -4 -10
-10 -10 -5 0 -10 5 -10 10 0 6 5 10 10 10 6 0 10 -4 10 -10z m3928 -304 c-7
-8 -15 -12 -17 -11 -5 6 10 25 20 25 5 0 4 -6 -3 -14z m-915 -278 c5 -20 4
-21 -6 -7 -7 9 -18 14 -26 11 -8 -3 -11 0 -7 7 12 19 33 12 39 -11z m264 -34
c-3 -3 -12 -4 -19 -1 -8 3 -5 6 6 6 11 1 17 -2 13 -5z m313 -13 c0 -14 -28
-21 -32 -9 -3 7 -10 8 -18 3 -20 -12 -60 -15 -60 -5 0 10 21 15 73 18 20 1 37
-2 37 -7z m-153 -14 c19 -10 216 -144 393 -268 25 -17 80 -54 123 -81 43 -27
76 -52 73 -56 -3 -3 -14 2 -23 10 -24 21 -115 73 -128 73 -5 0 -23 9 -38 19
-20 13 -31 16 -39 8 -6 -6 -17 -8 -25 -5 -30 12 11 -49 46 -67 20 -11 31 -19
25 -20 -6 0 -10 -12 -8 -27 2 -16 1 -20 -2 -10 -3 9 -10 17 -15 17 -6 0 -7 5
-4 10 3 6 2 10 -3 10 -6 0 -13 -7 -16 -17 -6 -15 -8 -15 -19 1 -12 17 -14 17
-28 0 -7 -10 -9 -15 -2 -11 6 4 14 3 18 -2 11 -19 -35 -2 -70 25 -19 14 -35
23 -35 19 0 -4 -13 5 -30 18 -16 14 -39 28 -50 32 -11 3 -20 11 -20 16 0 5
-11 9 -24 9 -13 0 -35 9 -49 20 -14 11 -31 20 -39 20 -8 0 -19 5 -26 12 -9 9
-12 9 -12 -3 0 -8 5 -20 12 -27 6 -6 9 -15 5 -18 -9 -10 -83 13 -101 31 -26
26 -30 16 -5 -12 42 -46 -33 6 -142 99 -31 26 -59 44 -63 40 -4 -4 -6 -2 -4 3
3 11 -17 33 -69 76 -26 22 -43 27 -88 28 -57 0 -64 -5 -42 -29 6 -8 3 -7 -9 3
-33 27 -68 22 -81 -13 -6 -17 -7 -28 -3 -25 5 3 14 -4 21 -16 10 -20 9 -21
-10 -16 -11 3 -21 1 -21 -4 0 -5 -10 -4 -22 3 -23 12 -29 14 -48 17 -5 0 -10
7 -10 15 0 16 -27 29 -43 20 -7 -3 -4 1 6 9 13 11 15 16 5 20 -22 8 48 15 292
32 129 8 251 17 270 19 84 7 157 5 177 -7z m-1461 -52 c-9 -10 -22 -12 -42 -6
l-29 8 35 10 c41 12 56 7 36 -12z m689 15 c3 -5 2 -10 -4 -10 -5 0 -13 5 -16
10 -3 6 -2 10 4 10 5 0 13 -4 16 -10z m963 -5 c4 -4 -8 -6 -25 -3 -18 2 -33 1
-33 -3 0 -5 -7 -6 -15 -3 -8 4 -15 10 -15 15 0 11 77 5 88 -6z m-755 -19 c9 5
9 4 0 -6 -13 -15 -37 -4 -26 13 5 8 8 8 11 -1 2 -7 9 -9 15 -6z m917 4 c8 -5
11 -10 5 -10 -5 0 -17 5 -25 10 -8 5 -10 10 -5 10 6 0 17 -5 25 -10z m-1935
-30 c3 -5 1 -10 -4 -10 -6 0 -11 5 -11 10 0 6 2 10 4 10 3 0 8 -4 11 -10z
m1093 -24 c3 -3 -6 -6 -21 -6 -14 0 -28 4 -31 9 -6 9 42 6 52 -3z m78 -42 c3
-26 2 -26 -15 -8 -14 15 -15 20 -4 22 11 3 12 7 2 20 -11 14 -11 15 1 5 7 -7
14 -24 16 -39z m-188 -6 c12 2 20 8 17 13 -8 12 -1 11 30 -3 37 -17 31 -27
-14 -21 -24 3 -41 1 -46 -7 -5 -8 -14 -5 -31 11 -30 29 -32 49 -1 23 12 -11
32 -18 45 -16z m97 22 c-3 -5 -14 -10 -23 -9 -14 0 -13 2 3 9 27 11 27 11 20
0z m970 -12 l24 -23 -34 -2 c-19 -1 -35 2 -35 7 0 5 7 7 16 3 12 -4 15 -2 12
8 -3 8 -11 13 -17 12 -6 -2 -11 2 -11 7 0 17 20 11 45 -12z m-2001 -33 c-6
-16 -24 -21 -24 -7 0 11 11 22 21 22 5 0 6 -7 3 -15z m1026 -59 c0 4 14 -10
30 -31 35 -44 37 -49 10 -35 -11 6 -20 15 -20 20 0 6 -7 10 -15 10 -9 0 -18 7
-21 15 -4 8 -14 15 -23 16 -10 0 -11 2 -3 6 21 8 13 23 -12 23 -19 0 -23 4
-19 21 5 19 8 18 39 -15 19 -20 34 -33 34 -30z m-1224 13 c6 -5 13 -6 17 -3 3
3 3 -4 0 -15 -7 -29 -18 -34 -33 -16 -11 13 -10 14 6 8 17 -6 17 -5 5 10 -7 9
-19 17 -27 17 -7 0 -15 4 -18 9 -7 11 34 2 50 -10z m1254 11 c0 -5 -4 -10 -9
-10 -6 0 -13 5 -16 10 -3 6 1 10 9 10 9 0 16 -4 16 -10z m-103 -27 c-4 -3 -2
-12 3 -19 6 -6 9 -18 8 -25 -2 -8 2 -13 9 -12 6 1 17 -5 25 -15 12 -15 11 -16
-4 -3 -10 7 -18 10 -19 5 -7 -52 -4 -77 7 -89 8 -7 14 -19 14 -27 0 -7 -11 -1
-25 15 -20 21 -34 27 -65 25 -22 -1 -37 -5 -35 -9 9 -14 -20 -16 -42 -2 -14
10 -23 11 -28 4 -4 -7 -13 -8 -23 -2 -24 12 -42 3 -34 -17 5 -15 4 -15 -12 1
-9 9 -19 17 -21 17 -5 0 3 -78 9 -88 2 -4 0 -14 -5 -22 -8 -13 -12 -12 -25 5
-8 11 -17 30 -21 43 -3 12 -11 22 -19 22 -7 0 -18 8 -23 18 -6 9 -11 13 -11 7
0 -13 -20 16 -20 30 0 6 5 3 10 -5 5 -8 10 -10 10 -5 0 15 -16 37 -26 36 -5
-1 -9 3 -9 8 0 5 -4 13 -9 18 -5 5 -6 -2 -2 -17 16 -62 19 -83 9 -77 -11 7
-37 97 -30 103 2 3 63 7 136 11 96 4 134 10 143 21 10 11 9 17 -6 28 -16 11
-9 13 55 17 41 1 76 4 78 5 2 1 1 -1 -2 -5z m-952 -23 c3 -6 -1 -7 -9 -4 -18
7 -21 14 -7 14 6 0 13 -4 16 -10z m1115 -20 c8 -5 11 -10 5 -10 -5 0 -17 5
-25 10 -8 5 -10 10 -5 10 6 0 17 -5 25 -10z m-1073 -7 c-9 -2 -15 -9 -12 -14
9 -14 -7 -10 -29 6 -18 14 -17 15 20 14 21 -1 31 -3 21 -6z m-1761 -22 c-3 -5
-16 -11 -28 -14 -22 -6 -22 -5 -4 8 22 17 40 20 32 6z m1204 -28 c0 -1 -9 -7
-20 -13 -15 -8 -20 -8 -20 3 0 7 9 13 20 13 11 0 20 -1 20 -3z m1635 -3 c3 -6
-1 -7 -9 -4 -18 7 -21 14 -7 14 6 0 13 -4 16 -10z m-2368 -23 c2 -3 -8 -4 -22
-4 -14 0 -25 3 -25 8 0 7 38 4 47 -4z m583 8 c0 -2 -10 -9 -22 -15 -22 -11
-22 -10 -4 4 21 17 26 19 26 11z m71 -9 c-6 -7 -23 -13 -37 -13 -18 0 -22 2
-13 8 7 4 16 6 20 3 4 -2 10 0 14 6 3 5 11 10 17 10 7 0 7 -5 -1 -14z m929
-26 c0 -5 -5 -10 -11 -10 -5 0 -7 5 -4 10 3 6 8 10 11 10 2 0 4 -4 4 -10z
m751 -17 c13 -16 12 -17 -3 -4 -17 13 -22 21 -14 21 2 0 10 -8 17 -17z m884
-12 c-6 -5 -25 10 -25 20 0 5 6 4 14 -3 8 -7 12 -15 11 -17z m-2848 -7 c-3 -3
-12 -4 -19 -1 -8 3 -5 6 6 6 11 1 17 -2 13 -5z m1470 -36 c-3 -8 -6 -5 -6 6
-1 11 2 17 5 13 3 -3 4 -12 1 -19z m-937 -16 c-19 -2 -45 -13 -57 -24 -13 -12
-23 -17 -23 -12 0 5 -5 2 -10 -6 -9 -13 -10 -13 -10 0 0 38 36 57 92 51 l43
-6 -35 -3z m93 -9 c-7 -2 -21 -2 -30 0 -10 3 -4 5 12 5 17 0 24 -2 18 -5z
m-443 -588 c0 -12 -53 -111 -64 -117 -16 -11 -144 -10 -150 1 -4 5 8 34 26 65
l32 56 78 0 c43 0 78 -2 78 -5z m2160 -155 c13 -24 9 -34 -85 -205 -92 -169
-105 -179 -262 -183 -62 -2 -113 -1 -113 2 0 3 16 30 35 61 l36 55 53 0 54 0
40 73 c22 39 39 74 37 77 -2 3 -26 3 -54 0 -47 -5 -52 -8 -81 -52 l-30 -48
-70 0 c-49 0 -70 4 -70 13 1 26 91 167 127 196 l38 31 167 0 c156 0 168 -1
178 -20z m214 -66 c20 -47 36 -90 36 -95 0 -27 21 1 63 86 l47 95 80 0 c44 0
80 -2 80 -4 0 -5 -161 -318 -212 -411 l-37 -70 -63 133 c-34 72 -66 132 -71
132 -4 0 -11 -8 -15 -17 -4 -10 -24 -51 -46 -90 l-38 -73 -52 0 c-55 0 -76 12
-76 43 0 11 39 96 88 188 l87 169 46 0 47 0 36 -86z m-1565 -6 l-34 -63 -58
-5 -59 -5 -61 -120 -62 -120 -42 -3 c-95 -7 -105 32 -38 157 25 45 45 85 45
87 0 2 -31 4 -70 4 -41 0 -70 4 -70 10 0 6 14 37 30 70 l30 60 203 2 c111 2
206 0 211 -4 4 -3 -7 -35 -25 -70z m487 69 c5 -4 -178 -349 -198 -374 -14 -17
-148 -18 -148 -1 0 6 14 35 30 65 17 29 30 55 30 58 0 3 -24 5 -52 5 l-53 0
-35 -68 -35 -67 -72 -3 c-55 -2 -73 0 -73 10 0 7 45 94 99 193 l99 180 76 3
c42 2 76 0 76 -3 0 -4 -16 -34 -35 -66 -19 -33 -35 -64 -35 -70 0 -5 22 -9 49
-9 l50 0 41 74 c22 41 45 76 50 78 15 5 130 1 136 -5z m178 -54 c-21 -38 -55
-99 -76 -137 -21 -38 -36 -71 -34 -73 3 -3 72 -4 154 -4 102 1 153 -2 157 -9
8 -14 -48 -75 -87 -96 -20 -11 -72 -14 -211 -14 -195 0 -207 3 -207 49 0 21
143 303 172 339 7 8 38 12 90 12 l79 0 -37 -67z m-2335 -3 l-33 -59 -55 -3
-55 -3 -70 -127 -71 -128 -60 0 c-102 0 -107 22 -35 155 28 51 50 95 50 99 0
3 -31 6 -70 6 -74 0 -80 5 -55 45 8 14 22 36 30 50 l15 25 221 0 220 0 -32
-60z m435 44 c4 -10 -14 -51 -44 -104 -27 -48 -50 -93 -50 -99 0 -6 16 -43 36
-82 19 -39 33 -73 31 -76 -12 -11 -146 -12 -155 0 -5 7 -24 45 -41 86 l-31 74
20 34 c11 19 20 36 20 39 0 2 -17 4 -37 4 -38 0 -38 -1 -97 -108 -79 -144 -77
-142 -152 -142 -35 0 -65 4 -68 8 -4 8 48 106 146 275 59 102 71 107 259 107
135 0 158 -2 163 -16z m346 11 c0 -4 -36 -74 -81 -157 -44 -82 -78 -152 -76
-154 2 -2 93 68 203 156 l199 160 81 0 c84 0 104 -8 104 -44 0 -11 -39 -91
-86 -178 l-85 -158 -75 0 c-41 0 -74 2 -74 4 0 3 23 46 50 97 28 51 48 94 46
97 -3 2 -26 -16 -53 -40 -26 -24 -80 -71 -120 -105 l-72 -61 -148 4 c-81 2
-154 4 -161 4 -11 0 150 328 181 368 9 12 167 18 167 7z m312 -550 c21 -14 38
-29 38 -33 0 -5 -13 -21 -29 -36 l-30 -28 -27 21 c-18 14 -41 21 -70 21 -111
0 -173 -160 -79 -204 39 -19 92 -11 126 20 18 16 20 15 39 -7 28 -34 22 -49
-35 -78 -91 -47 -202 -28 -246 42 -30 47 -23 147 14 204 67 105 204 140 299
78z m-923 -5 c45 -31 64 -74 59 -131 -7 -69 -45 -139 -96 -174 -41 -28 -50
-30 -159 -34 l-116 -3 6 43 c3 24 17 107 31 184 14 77 26 142 26 144 0 2 49 2
109 -1 92 -5 114 -9 140 -28z m424 23 c2 -5 0 -23 -5 -40 l-9 -33 -88 0 c-83
0 -89 -1 -95 -22 -12 -47 -10 -48 74 -48 86 0 90 -3 70 -55 -10 -26 -12 -27
-87 -24 l-77 4 -7 -29 c-5 -16 -6 -33 -3 -38 3 -4 45 -8 94 -8 l90 0 -7 -32
c-3 -18 -7 -35 -9 -37 -3 -3 -267 -2 -270 2 -1 1 4 34 11 72 7 39 20 115 30
170 9 55 19 106 21 113 2 9 38 12 133 12 71 0 132 -3 134 -7z m691 -25 c-5
-18 -9 -53 -9 -78 l0 -45 53 -3 c30 -2 60 2 67 8 7 6 16 32 20 58 13 91 13 92
56 92 32 0 39 -4 39 -19 0 -17 -32 -214 -45 -276 -16 -80 -12 -75 -59 -75
l-44 0 8 33 c4 17 10 49 13 70 l6 37 -69 0 c-76 0 -75 2 -85 -83 l-7 -57 -44
0 c-29 0 -44 4 -44 13 0 6 14 86 30 177 17 91 30 168 30 173 0 4 21 7 46 7
l46 0 -8 -32z m516 29 c0 -2 20 -82 45 -177 25 -95 45 -177 45 -182 0 -4 -20
-8 -45 -8 -42 0 -46 2 -51 30 -9 43 -25 51 -95 48 -60 -3 -65 -5 -87 -38 -19
-29 -31 -36 -68 -40 -25 -4 -46 -4 -49 -2 -3 4 101 178 191 320 32 49 36 52
74 52 22 0 40 -2 40 -3z m280 -19 c0 -13 -9 -72 -20 -132 -29 -158 -33 -146
55 -146 l75 0 -6 -30 c-4 -16 -3 -30 2 -30 5 1 58 82 118 180 l108 180 39 0
c21 0 40 -4 43 -8 4 -7 65 -240 86 -329 l8 -33 -47 0 c-46 0 -48 1 -57 38 l-9
37 -75 0 -75 0 -20 -37 -20 -37 -172 -3 c-200 -3 -183 -17 -158 122 9 47 20
112 26 145 17 109 15 105 59 105 35 0 40 -3 40 -22z m695 -20 c-4 -24 -13 -74
-20 -113 -8 -38 -19 -103 -25 -142 l-12 -73 -45 0 c-43 0 -44 1 -39 27 3 16
17 95 32 178 14 82 28 153 30 157 3 5 23 8 45 8 l41 0 -7 -42z m236 -63 c34
-58 65 -107 69 -110 5 -3 14 28 20 67 27 155 21 143 68 146 51 4 50 14 16
-166 -14 -75 -28 -152 -31 -169 -5 -32 -7 -33 -52 -33 l-46 1 -55 99 c-30 55
-58 100 -63 100 -10 0 -13 -10 -28 -103 -7 -42 -16 -82 -20 -88 -3 -6 -24 -9
-45 -7 l-40 3 29 160 c15 88 30 170 33 183 4 18 11 22 44 22 l40 0 61 -105z"/>
<path d="M4198 3223 c7 -3 16 -2 19 1 4 3 -2 6 -13 5 -11 0 -14 -3 -6 -6z"/>
<path d="M4248 3213 c7 -3 16 -2 19 1 4 3 -2 6 -13 5 -11 0 -14 -3 -6 -6z"/>
<path d="M3673 3173 c9 -9 20 -13 24 -9 4 4 1 11 -7 16 -25 16 -35 11 -17 -7z"/>
<path d="M806 571 c-11 -17 -37 -185 -31 -199 4 -11 16 -13 50 -9 57 8 89 29
109 72 38 80 4 145 -78 145 -25 0 -47 -4 -50 -9z"/>
<path d="M2517 490 c-28 -44 -23 -55 25 -48 19 2 22 8 20 33 -6 55 -16 58 -45
15z"/>
<path d="M3213 491 c-25 -43 -22 -51 19 -51 24 0 28 4 28 28 0 16 -6 36 -12
45 -12 15 -15 13 -35 -22z"/>
<path d="M2158 3713 c7 -3 16 -2 19 1 4 3 -2 6 -13 5 -11 0 -14 -3 -6 -6z"/>
<path d="M2223 3713 c8 -7 177 -6 185 2 3 3 -39 5 -93 5 -54 0 -95 -3 -92 -7z"/>
<path d="M4470 3709 c0 -5 5 -7 10 -4 6 3 10 8 10 11 0 2 -4 4 -10 4 -5 0 -10
-5 -10 -11z"/>
<path d="M3275 3700 c-13 -6 -15 -9 -5 -9 8 0 22 4 30 9 18 12 2 12 -25 0z"/>
<path d="M1088 3143 c7 -3 16 -2 19 1 4 3 -2 6 -13 5 -11 0 -14 -3 -6 -6z"/>
<path d="M995 3130 c-13 -5 -14 -9 -5 -9 8 0 24 4 35 9 13 5 14 9 5 9 -8 0
-24 -4 -35 -9z"/>
<path d="M940 3119 c0 -5 5 -7 10 -4 6 3 10 8 10 11 0 2 -4 4 -10 4 -5 0 -10
-5 -10 -11z"/>
<path d="M0 3110 c0 -5 4 -10 9 -10 6 0 13 5 16 10 3 6 -1 10 -9 10 -9 0 -16
-4 -16 -10z"/>
<path d="M770 3090 c-12 -8 -11 -10 8 -10 12 0 22 5 22 10 0 13 -11 13 -30 0z"/>
<path d="M130 3044 c0 -8 5 -12 10 -9 6 3 10 10 10 16 0 5 -4 9 -10 9 -5 0
-10 -7 -10 -16z"/>
<path d="M585 3050 c-3 -5 -1 -10 4 -10 6 0 11 5 11 10 0 6 -2 10 -4 10 -3 0
-8 -4 -11 -10z"/>
<path d="M610 3050 c0 -5 7 -10 15 -10 8 0 15 5 15 10 0 6 -7 10 -15 10 -8 0
-15 -4 -15 -10z"/>
<path d="M538 3043 c-10 -2 -18 -9 -18 -14 0 -13 12 -11 34 6 20 15 16 17 -16
8z"/>
<path d="M65 3029 c-4 -6 -13 -8 -21 -5 -8 3 -11 0 -7 -10 4 -11 0 -15 -13
-12 -15 2 -20 -4 -22 -29 -3 -26 0 -32 12 -27 9 3 16 1 16 -5 0 -6 -6 -11 -14
-11 -11 0 -14 -32 -15 -166 -1 -156 0 -166 16 -159 10 4 160 9 333 11 185 2
329 8 350 15 19 6 61 14 93 18 48 6 57 5 52 -7 -3 -7 -5 -16 -5 -18 0 -3 -5
-2 -10 1 -14 9 -89 -27 -90 -42 0 -7 -7 -10 -15 -7 -23 9 -62 -4 -69 -22 -4
-9 -4 -19 -2 -21 2 -3 46 13 98 35 51 22 111 46 133 52 22 7 50 19 63 27 16
10 47 13 110 11 l87 -3 -3 -31 c-5 -57 14 -65 155 -63 99 1 126 4 130 16 3 9
14 13 25 10 24 -7 75 10 107 34 13 11 28 16 34 12 8 -5 7 -8 -1 -11 -17 -5
-15 -22 3 -22 8 0 15 5 15 10 0 6 10 10 23 10 21 -1 22 -1 3 -15 -11 -8 -32
-14 -47 -13 -14 1 -38 -6 -52 -15 -15 -9 -41 -17 -60 -17 -18 0 -37 -4 -42 -9
-6 -5 -23 -11 -40 -13 -24 -2 -31 -8 -33 -29 -2 -17 -13 -31 -30 -39 -16 -7
-22 -15 -15 -17 7 -3 20 2 28 11 15 14 75 36 103 36 6 0 12 5 12 10 0 6 9 10
20 10 11 0 20 4 20 9 0 7 161 16 205 12 6 -1 48 -3 95 -5 53 -2 84 -7 83 -14
-2 -7 11 -9 35 -5 20 4 42 6 47 7 12 0 192 -14 250 -20 108 -12 130 -12 154 0
14 7 46 14 70 15 48 2 61 7 61 22 0 6 -4 8 -9 5 -5 -3 -14 1 -21 9 -7 8 -9 15
-4 15 5 0 -12 10 -37 23 -26 12 -44 27 -42 35 3 7 -1 10 -10 6 -8 -3 -18 -1
-22 5 -3 6 -15 11 -26 11 -11 0 -17 -4 -14 -10 3 -5 -2 -10 -13 -10 -10 0 -29
-9 -41 -19 -12 -11 -30 -17 -41 -14 -11 3 -26 0 -34 -6 -7 -6 -27 -8 -45 -5
-20 4 -31 3 -31 -5 0 -6 -5 -11 -12 -11 -6 0 -8 3 -5 7 4 3 -2 12 -13 20 -29
20 -25 33 8 23 21 -6 29 -4 29 6 0 17 -109 17 -119 0 -6 -8 -13 -8 -28 2 -11
6 -27 12 -35 12 -21 0 -19 18 3 23 9 2 -3 3 -28 2 -25 0 -53 4 -63 9 -13 8
-20 7 -27 -4 -5 -8 -10 -10 -10 -4 0 6 -26 11 -65 11 -50 1 -70 -3 -90 -19
-20 -16 -24 -16 -19 -3 6 14 -2 16 -60 14 -36 -1 -69 1 -73 4 -3 4 -13 7 -22
7 -13 -1 -12 -3 3 -15 23 -17 14 -20 -15 -5 -11 7 -19 7 -19 1 0 -5 6 -12 13
-14 6 -3 2 -6 -10 -6 -13 -1 -23 3 -23 7 0 13 -44 8 -53 -5 -12 -19 -27 -16
-27 5 0 14 -2 15 -10 2 -6 -9 -10 -10 -10 -3 0 17 -41 20 -77 6 -28 -11 -33
-11 -33 1 0 17 -27 29 -35 16 -4 -6 -11 -10 -18 -10 -7 0 -5 6 5 16 13 13 20
14 38 4 32 -17 36 -5 5 16 -24 16 -27 16 -38 0 -11 -14 -19 -15 -72 -5 -33 7
-68 12 -78 11 -12 -1 -17 4 -13 13 4 11 -3 12 -32 8 -47 -7 -74 -21 -67 -34 8
-12 -15 -12 -35 1 -12 7 -8 12 18 23 18 7 29 16 25 20 -8 9 -48 9 -56 1 -10
-11 -91 -12 -104 -1 -7 5 -22 7 -33 4 -11 -3 -23 -1 -26 5 -3 5 -15 8 -25 5
-13 -4 -19 0 -19 11 0 14 -2 14 -9 3 -5 -8 -16 -11 -27 -7 -13 4 -11 0 6 -14
14 -11 20 -20 14 -20 -7 0 -22 11 -35 25 -18 17 -30 22 -48 18 -19 -5 -22 -3
-16 8 6 11 5 12 -6 2 -16 -16 -43 -17 -34 -2 5 7 -13 9 -52 8 -71 -3 -93 6
-66 27 20 15 15 17 -37 14 -28 -1 -33 1 -22 11 21 22 13 29 -25 24 -35 -5 -37
-4 -19 9 10 9 22 13 27 11 4 -3 9 -1 11 4 1 5 21 12 43 15 36 5 37 5 13 -5
-34 -13 -36 -27 -6 -38 17 -6 28 -3 45 13 15 15 18 23 10 28 -7 4 4 7 23 7 29
0 31 -2 15 -9 -18 -8 -18 -9 -2 -9 25 -1 38 38 19 59 -12 14 -19 15 -43 7 -19
-8 -25 -15 -19 -23 7 -8 -3 -11 -40 -10 -28 1 -52 -3 -54 -9 -3 -5 -5 -2 -5 8
-1 9 -9 17 -19 17 -10 0 -23 5 -29 11 -7 7 -17 8 -25 3 -20 -13 -41 -14 -55
-2 -7 6 -13 6 -13 1 0 -5 -12 -8 -27 -7 -16 1 -38 2 -50 3 -25 1 -32 21 -8 21
27 0 63 22 68 42 5 19 5 19 -14 2 -12 -11 -19 -13 -19 -5 0 8 -8 10 -22 5 -20
-6 -21 -5 -9 10 12 14 12 16 -4 10 -13 -5 -16 -4 -11 4 4 7 3 12 -3 12 -5 0
-13 -5 -16 -11z m52 -45 c-3 -3 -12 -4 -19 -1 -8 3 -5 6 6 6 11 1 17 -2 13 -5z
m353 -54 c0 -5 -7 -10 -15 -10 -8 0 -15 5 -15 10 0 6 7 10 15 10 8 0 15 -4 15
-10z m-200 -34 c0 -2 -7 -7 -16 -10 -8 -3 -12 -2 -9 4 6 10 25 14 25 6z m36
-101 c-11 -8 -22 -12 -25 -9 -6 6 19 24 34 24 6 -1 1 -7 -9 -15z m49 -5 c3 -5
2 -10 -4 -10 -5 0 -13 5 -16 10 -3 6 -2 10 4 10 5 0 13 -4 16 -10z m-192 -20
c31 0 31 0 9 -16 -20 -14 -24 -14 -37 0 -9 8 -23 12 -32 9 -11 -4 -14 -3 -9 6
5 7 15 10 23 7 8 -3 29 -6 46 -6z m383 -32 c10 -10 -77 -10 -93 0 -6 4 11 7
37 7 27 0 52 -3 56 -7z m32 -42 c-10 -7 -18 -18 -18 -24 0 -5 -7 -12 -14 -15
-15 -6 -33 29 -22 40 3 4 6 0 6 -8 1 -10 3 -9 11 4 5 9 20 17 32 17 20 -1 21
-2 5 -14z m183 4 c5 0 9 -4 9 -10 0 -14 -43 -6 -48 10 -3 9 1 11 12 7 10 -4
22 -7 27 -7z m59 -5 c-7 -9 -15 -13 -17 -11 -7 7 7 26 19 26 6 0 6 -6 -2 -15z
m950 -67 c0 -4 -8 -8 -17 -7 -13 0 -14 2 -4 6 11 4 11 7 0 13 -7 5 -23 4 -36
-1 -30 -11 -30 5 0 18 17 8 26 7 40 -5 9 -8 17 -19 17 -24z m-1307 25 c-7 -2
-19 -2 -25 0 -7 3 -2 5 12 5 14 0 19 -2 13 -5z m1392 -4 c-4 -6 -1 -10 6 -8
27 3 49 -1 49 -10 0 -5 -16 -5 -37 0 -21 4 -49 5 -63 2 -17 -4 -22 -2 -15 5 9
9 32 17 58 21 5 0 5 -4 2 -10z"/>
<path d="M220 3015 c0 -8 4 -15 10 -15 5 0 7 7 4 15 -4 8 -8 15 -10 15 -2 0
-4 -7 -4 -15z"/>
<path d="M415 3000 c-3 -5 1 -10 9 -10 9 0 16 5 16 10 0 6 -4 10 -9 10 -6 0
-13 -4 -16 -10z"/>
<path d="M360 2990 c0 -5 4 -10 9 -10 6 0 13 5 16 10 3 6 -1 10 -9 10 -9 0
-16 -4 -16 -10z"/>
<path d="M3720 2976 c0 -9 30 -14 35 -6 4 6 -3 10 -14 10 -12 0 -21 -2 -21 -4z"/>
<path d="M4454 2938 c-3 -5 -3 -12 0 -15 3 -3 1 -11 -4 -18 -7 -8 -2 -10 20
-7 20 3 30 10 30 22 0 19 -36 34 -46 18z"/>
<path d="M4143 2886 c-10 -11 -9 -15 3 -20 20 -8 34 1 34 20 0 18 -21 18 -37
0z"/>
<path d="M4158 2824 c22 -17 29 -17 35 -1 3 8 -6 12 -24 13 -26 1 -27 0 -11
-12z"/>
<path d="M2142 2641 c4 -13 18 -16 19 -4 0 4 -5 9 -11 12 -7 2 -11 -2 -8 -8z"/>
<path d="M2550 2530 c0 -5 -7 -10 -15 -10 -8 0 -15 -7 -15 -15 0 -17 35 -21
45 -5 3 6 2 10 -4 10 -6 0 -8 7 -5 15 4 8 3 15 0 15 -3 0 -6 -4 -6 -10z"/>
<path d="M556 2515 c-12 -9 -29 -12 -44 -8 -13 3 -27 2 -31 -3 -10 -14 -49
-34 -66 -34 -8 0 -15 -4 -15 -9 0 -5 -11 -12 -24 -15 -26 -6 -44 -36 -22 -36
8 0 61 20 118 44 56 24 111 46 121 49 9 4 17 11 17 17 0 15 -32 12 -54 -5z"/>
<path d="M2588 2503 c7 -3 16 -2 19 1 4 3 -2 6 -13 5 -11 0 -14 -3 -6 -6z"/>
<path d="M917 2133 c-32 -17 -32 -25 0 -17 12 3 24 12 27 20 3 8 4 14 3 13 -1
-1 -15 -8 -30 -16z"/>
<path d="M1088 2123 c7 -3 16 -2 19 1 4 3 -2 6 -13 5 -11 0 -14 -3 -6 -6z"/>
<path d="M895 2100 c-14 -6 -16 -9 -5 -10 24 -3 44 1 55 11 11 11 -22 11 -50
-1z"/>
<path d="M270 2070 c-19 -11 -31 -19 -27 -20 11 0 67 29 67 35 0 7 -1 7 -40
-15z"/>
<path d="M1515 2073 c-11 -3 -24 -9 -29 -14 -5 -5 5 -4 24 1 51 15 55 25 5 13z"/>
<path d="M0 2039 c0 -5 5 -7 10 -4 5 3 10 8 10 11 0 2 -4 4 -10 4 -5 0 -10 -5
-10 -11z"/>
</g>
</svg>
